<?xml version="1.0" encoding="UTF-8" standalone="no"?>
<!-- Created with Inkscape (http://www.inkscape.org/) -->

<svg
   xmlns:dc="http://purl.org/dc/elements/1.1/"
   xmlns:cc="http://creativecommons.org/ns#"
   xmlns:rdf="http://www.w3.org/1999/02/22-rdf-syntax-ns#"
   xmlns:svg="http://www.w3.org/2000/svg"
   xmlns="http://www.w3.org/2000/svg"
   xmlns:sodipodi="http://sodipodi.sourceforge.net/DTD/sodipodi-0.dtd"
   xmlns:inkscape="http://www.inkscape.org/namespaces/inkscape"
   width="40.479641mm"
   height="42.864914mm"
   viewBox="0 0 143.4318 151.88355"
   id="svg2"
   version="1.1"
   inkscape:version="0.91 r13725"
   sodipodi:docname="Orbite-Orano.svg">
  <defs
     id="defs4" />
  <sodipodi:namedview
     id="base"
     pagecolor="#ffffff"
     bordercolor="#666666"
     borderopacity="1.0"
     inkscape:pageopacity="0.0"
     inkscape:pageshadow="2"
     inkscape:zoom="1.4"
     inkscape:cx="-142.86122"
     inkscape:cy="226.49644"
     inkscape:document-units="px"
     inkscape:current-layer="layer1"
     showgrid="false"
     fit-margin-top="0"
     fit-margin-left="0"
     fit-margin-right="0"
     fit-margin-bottom="0"
     inkscape:window-width="1920"
     inkscape:window-height="1004"
     inkscape:window-x="0"
     inkscape:window-y="24"
     inkscape:window-maximized="1" />
  <metadata
     id="metadata7">
    <rdf:RDF>
      <cc:Work
         rdf:about="">
        <dc:format>image/svg+xml</dc:format>
        <dc:type
           rdf:resource="http://purl.org/dc/dcmitype/StillImage" />
        <dc:title></dc:title>
      </cc:Work>
    </rdf:RDF>
  </metadata>
  <g
     inkscape:label="Layer 1"
     inkscape:groupmode="layer"
     id="layer1"
     transform="translate(-364.62588,-841.12432)">
    <path
       style="fill:#000000"
       d="m 435.00709,992.96856 c 0.37416,-1.09995 13.0441,-25.06398 14.7328,-29.4637 9.07877,-23.65377 12.25495,-37.15956 11.47291,-59.7732 -0.9778,-28.27403 -7.70644,-44.30016 -21.09761,-50.24985 -7.76247,-3.44885 -18.52827,-2.99923 -24.81178,1.03624 -5.20901,3.34538 -9.71752,10.10092 -11.99249,17.96951 -1.95945,6.77722 -4.81671,8.90209 -9.30295,6.91838 -4.32906,-1.91424 -4.91454,-5.28308 -2.186,-12.5782 6.18644,-16.54028 18.43242,-25.70342 34.35108,-25.70342 20.30321,0 33.17687,11.68391 38.4704,34.91506 2.48707,10.91474 2.69479,32.49552 0.45282,47.04703 -1.90227,12.34672 -7.95788,31.50156 -14.20668,43.73078 -2.52918,4.94965 -16.25665,27.25122 -15.8825,26.15137 z"
       id="path4160"
       inkscape:connector-curvature="0"
       sodipodi:nodetypes="csssssssssssc" />
    <path
       style="fill:#000000"
       d="m 391.9233,963.48562 c 0,-0.20915 4.86049,-1.93817 10.80108,-3.84232 5.94059,-1.90418 13.32489,-4.79558 16.40956,-6.42535 3.08468,-1.62978 5.95512,-2.96324 6.37878,-2.96324 0.42364,0 7.89312,-4.30932 16.59884,-9.57627 13.23079,-8.00463 17.43779,-11.24319 25.63371,-19.73291 5.39285,-5.58614 11.78731,-13.10972 14.20994,-16.71906 11.42785,-17.02568 12.85585,-37.65425 3.24142,-46.82477 -4.64503,-4.43058 -1.47669,-11.84813 5.06081,-11.84813 3.00607,0 7.76034,4.65233 10.69955,10.47011 2.94728,5.83376 3.94295,19.22138 2.04035,27.43376 -3.06118,13.21318 -14.6633,29.84729 -29.27108,41.96635 -8.13786,6.75142 -30.07786,20.47532 -39.70793,24.83812 -11.82851,5.35878 -42.09503,14.86668 -42.09503,13.22371 z"
       id="path4188"
       inkscape:connector-curvature="0" />
    <path
       style="fill:#000000"
       d="m 453.84963,964.81894 c -6.88926,-1.01426 -18.83883,-4.82376 -25.88678,-8.25262 -20.3288,-9.89004 -48.61077,-39.15219 -62.67458,-63.15226 -2.61079,-4.45532 2.94863,2.18548 8.77534,10.23392 11.21942,15.49737 29.70295,32.55878 47.08937,42.68474 18.95368,11.03873 46.96304,13.14557 63.48539,4.7753 9.42096,-4.77269 13.22976,-12.24668 10.13998,-19.89758 -2.07263,-5.13224 -2.00756,-6.42041 0.45295,-8.96609 4.6749,-4.83673 10.39008,-1.03029 12.30202,8.19342 3.29227,15.88269 -9.18125,30.07161 -30.03266,34.16289 -4.96945,0.97503 -17.71209,1.09267 -23.65103,0.21828 z"
       id="path4216"
       inkscape:connector-curvature="0"
       sodipodi:nodetypes="sssssssssss" />
    <circle
       style="color:#000000;clip-rule:nonzero;display:inline;overflow:visible;visibility:visible;opacity:1;isolation:auto;mix-blend-mode:normal;color-interpolation:sRGB;color-interpolation-filters:linearRGB;solid-color:#000000;solid-opacity:1;fill:#000000;fill-opacity:1;fill-rule:nonzero;stroke:none;stroke-width:0.2;stroke-linecap:butt;stroke-linejoin:miter;stroke-miterlimit:4;stroke-dasharray:none;stroke-dashoffset:0;stroke-opacity:1;color-rendering:auto;image-rendering:auto;shape-rendering:auto;text-rendering:auto;enable-background:accumulate"
       id="path4218"
       cx="420.67731"
       cy="907.81946"
       r="9.2397566" />
    <circle
       style="color:#000000;clip-rule:nonzero;display:inline;overflow:visible;visibility:visible;opacity:1;isolation:auto;mix-blend-mode:normal;color-interpolation:sRGB;color-interpolation-filters:linearRGB;solid-color:#000000;solid-opacity:1;fill:#000000;fill-opacity:1;fill-rule:nonzero;stroke:none;stroke-width:0.2;stroke-linecap:butt;stroke-linejoin:miter;stroke-miterlimit:4;stroke-dasharray:none;stroke-dashoffset:0;stroke-opacity:1;color-rendering:auto;image-rendering:auto;shape-rendering:auto;text-rendering:auto;enable-background:accumulate"
       id="path4218-7"
       cx="442.95187"
       cy="907.53156"
       r="9.2397566" />
    <circle
       style="color:#000000;clip-rule:nonzero;display:inline;overflow:visible;visibility:visible;opacity:1;isolation:auto;mix-blend-mode:normal;color-interpolation:sRGB;color-interpolation-filters:linearRGB;solid-color:#000000;solid-opacity:1;fill:#000000;fill-opacity:1;fill-rule:nonzero;stroke:none;stroke-width:0.2;stroke-linecap:butt;stroke-linejoin:miter;stroke-miterlimit:4;stroke-dasharray:none;stroke-dashoffset:0;stroke-opacity:1;color-rendering:auto;image-rendering:auto;shape-rendering:auto;text-rendering:auto;enable-background:accumulate"
       id="path4218-5"
       cx="431.65079"
       cy="926.97699"
       r="9.2397566" />
  </g>
</svg>
