<?xml version="1.0" encoding="utf-8"?>
<!-- Generator: Adobe Illustrator 21.1.0, SVG Export Plug-In . SVG Version: 6.00 Build 0)  -->
<svg version="1.1" id="Layer_1" xmlns="http://www.w3.org/2000/svg" xmlns:xlink="http://www.w3.org/1999/xlink" x="0px" y="0px"
	 viewBox="0 0 436 275.4" style="enable-background:new 0 0 436 275.4;" xml:space="preserve">
<style type="text/css">
	.st0{opacity:0.18;fill:#FFC107;enable-background:new    ;}
	.st1{fill:#FFFFFF;}
	.st2{fill:#FFC107;}
	.st3{fill:url(#SVGID_1_);}
	.st4{fill:url(#SVGID_2_);}
	.st5{fill:url(#SVGID_3_);}
	.st6{fill:url(#SVGID_4_);}
	.st7{fill:url(#SVGID_5_);}
	.st8{fill:url(#SVGID_6_);}
	.st9{fill:#3E3E54;}
	.st10{fill:url(#SVGID_7_);}
	.st11{fill:url(#SVGID_8_);}
	.st12{fill:none;}
	.st13{font-family:'MyriadPro-Bold';}
	.st14{font-size:34px;}
	.st15{fill:url(#SVGID_9_);}
</style>
<title>Waiting the process</title>
<path class="st0" d="M2.5,141c-1.3,39.6,29.6,77.9,68.6,85c25.3,4.6,53.1-2.2,76,9.4c14.1,7.2,24.2,20.4,37.7,28.7
	c17.1,10.4,38,12,58,11.1c21.2-0.9,43.7-5,59.1-19.5c18.4-17.2,22.6-45,38.5-64.6c13.2-16.4,34.5-27,41.7-46.8
	c6.6-18.2-1.4-39.2-15.1-53s-32-21.6-50.1-28.6s-36.5-13.4-52.1-25.2c-11.2-8.5-20.4-20.5-33.2-26.7c-29.5-14.3-77.1-15.2-105.3,1.6
	C89.5,34.3,77,85.3,39,104.8c-12.3,6.3-27.7,9.9-33.7,22.3C3.3,131.4,2.7,136.2,2.5,141"/>
<path class="st1" d="M433.8,169.4c0,17-13.8,30.8-30.8,30.8c0,0,0,0,0,0H33c-17,0-30.8-13.8-30.8-30.8l0,0"/>
<path class="st1" d="M2.2,169.4c0-17,13.8-30.8,30.8-30.8l0,0h370c17,0,30.8,13.8,30.8,30.8"/>
<path class="st2" d="M436,169.4c0,18.2-14.8,33-33,33H33c-18.2,0-33-14.8-33-33"/>
<path class="st2" d="M0,169.4c0-18.2,14.8-33,33-33l0,0h370c18.2,0,33,14.8,33,33"/>
<path class="st1" d="M431.6,169.4c0-15.8-12.8-28.5-28.5-28.5H33c-15.8-0.3-28.8,12.2-29.1,28c-0.3,15.8,12.2,28.8,28,29.1
	c0.4,0,0.7,0,1.1,0h370C418.8,197.9,431.6,185.2,431.6,169.4"/>
<linearGradient id="SVGID_1_" gradientUnits="userSpaceOnUse" x1="270.9201" y1="50.0276" x2="366.7301" y2="205.5876" gradientTransform="matrix(1 0 0 -1 -10.33 229.71)">
	<stop  offset="0" style="stop-color:#000000;stop-opacity:0"/>
	<stop  offset="0.99" style="stop-color:#000000"/>
</linearGradient>
<path class="st3" d="M354.2,141.4c-0.4,0.5-0.8,0.8-1.4,1.1c-4,2.3-8.1,4.7-12.6,5.9c-3.4,0.8-6.8,1.3-10.3,1.4
	c-7.6,0.3-15.2,0.2-22.8-0.4c-14.4-1.1-28.6-3.9-43-5c-14.2-1-28.6-0.3-42.8-1.2c-1.8-0.1-4-0.4-4.9-2c-0.5-1.1-0.5-2.5,0.1-3.6
	c1.9-4,7.2-4.6,11.6-4.8c30.9-0.8,61.9-1.7,92.8-0.6c5.4,0.2,10.9,0.4,16.2,1.8c3.9,1,7.9,1.7,11.9,2.2
	C351.1,136.4,356.3,138.4,354.2,141.4z"/>
<path class="st2" d="M32.3,145.6H316c13,0,23.6,10.6,23.6,23.6l0,0c0,13-10.6,23.6-23.6,23.6H32.3c-13,0-23.6-10.6-23.6-23.6l0,0
	C8.7,156.2,19.3,145.6,32.3,145.6z"/>
<path class="st1" d="M268.6,80.7c4.6-2.1,9.6-4.4,14.6-3.4c3.8,0.8,6.9,3.3,9.9,5.8c3.5,3,6.9,6.1,10.3,9.2c3,2.8,6.2,6.1,6.3,10.2
	c0.1,3.5,4.4,34.6,1,34.8c-7.5,0.5-56.3,0.4-94.6,0.9c-3.9,0.1-2.9,1-5.9-1.5c-8.4-7-8.3-33.5,2.1-39.1c7.6-4.1,18.6-4.1,26.8-6.3
	C249.2,88.5,258.6,84,268.6,80.7z"/>
<linearGradient id="SVGID_2_" gradientUnits="userSpaceOnUse" x1="305.4176" y1="163.5017" x2="194.0176" y2="7.9217" gradientTransform="matrix(1 0 0 -1 -10.33 229.71)">
	<stop  offset="0" style="stop-color:#000000;stop-opacity:0"/>
	<stop  offset="0.99" style="stop-color:#000000"/>
</linearGradient>
<path class="st4" d="M254.2,86c-6.6,6.8-13.8,15.6-15.9,24.8c-0.7,3.2,4,11.9,49.7,3.3c1.3-0.3,8.5-9.2,7.9-11.6s-16.6-1.1-19.1-1.5
	c-1.1-0.2-2.3,0.1-3.4-0.1s-8.5,2.7-8.5,1.6c0-1.4,7.8-5.8,9.2-6.3c6.7-2.2,26.3-3.8,10-15C274.9,74.9,260.7,79.3,254.2,86z"/>
<path class="st1" d="M288.2,124.6c-0.3,1.6-0.2,3.4,0.4,4.9c0.9,1.6,2.2,2.8,3.8,3.6c10.5,6.2,23.5,5.8,35.7,5.2
	c2.6-0.1,17.6,0.1,20-1c4.4-2,8.5-8.4,3.9-18.4c-2.4-5.2-15.1-23.3-16.6-28.9c-3.8-1.3-8.4-0.6-9.3,3.4s11.7,24.6,9.3,27.7
	c-5.2,6.4-16.4-10-27.2-22.3C302.1,91.8,289.1,116.9,288.2,124.6z"/>
<linearGradient id="SVGID_3_" gradientUnits="userSpaceOnUse" x1="318.8197" y1="135.8181" x2="307.8097" y2="121.7981" gradientTransform="matrix(1 0 0 -1 -10.33 229.71)">
	<stop  offset="0" style="stop-color:#E5C5D5"/>
	<stop  offset="0.42" style="stop-color:#EAD4D1"/>
	<stop  offset="1" style="stop-color:#F0E9CB"/>
</linearGradient>
<path class="st5" d="M298.2,95.3c-1.2,1-2.2,2.2-3,3.6c-0.8,1.4-0.8,3.1-0.1,4.5c1.1,1.9,0.7,6.2,13.8,2.2c1.1-0.4,5.1-9.2,5.1-10.4
	c0.1-2.2-0.6-4.3-1.9-6C307.1,83.5,301.5,92.1,298.2,95.3z"/>
<linearGradient id="SVGID_4_" gradientUnits="userSpaceOnUse" x1="307.9073" y1="116.131" x2="319.0973" y2="147.181" gradientTransform="matrix(1 0 0 -1 -10.33 229.71)">
	<stop  offset="0" style="stop-color:#000000;stop-opacity:0"/>
	<stop  offset="0.99" style="stop-color:#000000"/>
</linearGradient>
<path class="st6" d="M294.8,104.2l4-2.4c0.1-0.1,0.2-0.1,0.3-0.1c0.2,0,0.4,0,0.5,0.1c3.3,1.7,7.3,1.2,10.2-1.1
	c-1.6-0.2-2.9-1.3-4.2-2.2c-1.5-1.1-3.1-2.1-4.8-3c-0.4-0.2-0.8-0.4-1.2-0.4c-0.7,0.1-1.4,0.4-1.8,1c-1.5,1.5-2.7,3.4-3.5,5.4"/>
<path class="st1" d="M253.9,80.2C247.3,87,240.1,95.8,238,105c-0.7,3.2-3.8,15,42,6.3c1.3-0.2,1.1-2.5,1.3-3.8
	c0.5-2.4,0.6-4.9,0.1-7.4c-0.6-2.4-2.4-4.7-4.8-5.1c-1.1-0.2-2.3,0.1-3.4-0.1s-8.4,2.7-8.4,1.6c0-1.4,7.8-5.8,9.2-6.3
	c6.7-2.2,26.3-3.8,10-15C274.7,69.1,260.4,73.6,253.9,80.2z"/>
<path class="st1" d="M253.9,80.2C247.3,87,240.1,95.8,238,105c-0.7,3.2-3.8,15,42,6.3c1.3-0.2,1.1-2.5,1.3-3.8
	c0.5-2.4,0.6-4.9,0.1-7.4c-0.6-2.4-2.4-4.7-4.8-5.1c-1.1-0.2-2.3,0.1-3.4-0.1s-8.4,2.7-8.4,1.6c0-1.4,7.8-5.8,9.2-6.3
	c6.7-2.2,26.3-3.8,10-15C274.7,69.1,260.4,73.6,253.9,80.2z"/>
<linearGradient id="SVGID_5_" gradientUnits="userSpaceOnUse" x1="334.3154" y1="146.0038" x2="344.4951" y2="146.0038" gradientTransform="matrix(1 0 0 -1 -10.33 229.71)">
	<stop  offset="0" style="stop-color:#E5C5D5"/>
	<stop  offset="0.42" style="stop-color:#EAD4D1"/>
	<stop  offset="1" style="stop-color:#F0E9CB"/>
</linearGradient>
<path class="st7" d="M330.5,73.6c1.6,0.1,2.6,1.9,2.6,3.5s-0.5,3.2-0.4,4.8c0.1,1.3,0.4,2.7,0.8,3.9c0.7,2.4,1.3,5.6-1,7.4
	c-1.4,0.9-3.2,1-4.8,0.3c-4.9-2-4.4-6.5-2-10.2C326.3,82.3,330.5,73.6,330.5,73.6z"/>
<linearGradient id="SVGID_6_" gradientUnits="userSpaceOnUse" x1="310.9815" y1="149.6297" x2="327.7515" y2="146.9997" gradientTransform="matrix(1 0 0 -1 -10.33 229.71)">
	<stop  offset="0" style="stop-color:#E5C5D5"/>
	<stop  offset="0.42" style="stop-color:#EAD4D1"/>
	<stop  offset="1" style="stop-color:#F0E9CB"/>
</linearGradient>
<path class="st8" d="M296.7,86.5c-0.2,3.9,0.2,7.9,2.4,11.1s6.5,5.5,10.5,4.5c2.6-0.6,4.6-2.5,6.5-4.3c6.2-6.2,11.5-13.6,12.4-22
	c0.4-2.5,0-5.1-1.2-7.4c-1.4-2.4-3.9-4-6.4-5.2c-2.7-1.4-5.7-2.3-8.7-2.5c-2.7-0.1-5.4,0.7-7.6,2.2c-2,1.4-2.5,3.5-3.3,5.7
	C298.9,74.4,297,80.3,296.7,86.5z"/>
<path class="st9" d="M287.5,89l7.3-10.7c0.8-1.1,2.3-1.4,3.5-0.7c0.1,0,0.1,0.1,0.2,0.1l7,5.7c1,0.8,1.2,2.3,0.5,3.3l-14,21.1
	c-0.8,1.2-2.3,1.5-3.5,0.7c-0.1-0.1-0.2-0.1-0.3-0.2l-4-3.6c-0.7-0.6-1-1.6-0.7-2.6l3.7-12.6C287.2,89.5,287.3,89.2,287.5,89z"/>
<path class="st9" d="M286,89l7.3-10.7c0.8-1.1,2.3-1.4,3.5-0.7c0.1,0,0.1,0.1,0.2,0.1l7,5.7c1,0.8,1.2,2.3,0.5,3.3l-14,21.1
	c-0.8,1.2-2.3,1.5-3.5,0.7c-0.1-0.1-0.2-0.1-0.3-0.2l-4-3.6c-0.7-0.6-1-1.6-0.7-2.6l3.7-12.6C285.8,89.5,285.9,89.2,286,89z"/>
<linearGradient id="SVGID_7_" gradientUnits="userSpaceOnUse" x1="284.92" y1="131.9658" x2="304.68" y2="131.9658" gradientTransform="matrix(1 0 0 -1 -10.33 229.71)">
	<stop  offset="0" style="stop-color:#E5C5D5"/>
	<stop  offset="0.42" style="stop-color:#EAD4D1"/>
	<stop  offset="1" style="stop-color:#F0E9CB"/>
</linearGradient>
<path class="st10" d="M278.2,95.3c1.5-2.4,3.1-4.8,4.9-7c0.5-0.7,1.2-1.3,2-1.7c0.8-0.4,1.7-0.4,2.5,0.1c0.1,0.1,0.2,0.1,0.2,0.2
	c0,0.1,0,0.2-0.1,0.4c-0.3,0.7-0.7,1.4-1.2,2c-0.4,0.4-0.7,0.7-0.9,1.1c-0.3,0.4-0.3,1-0.1,1.4c0.2,0.2,0.4,0.4,0.6,0.6l2.6,2.1
	c0.7,0.6,1.5,1.1,2.3,1.6c1,0.5,2.2,0.8,2.9,1.8c1.1,1.5,0.1,3-0.2,4.5c-0.1,1.4-1,2.7-2.3,3.3c-2.5,1.5-5.2,2.5-8,3.1
	c-2.1,0.4-4.4,0.5-6.1-0.6c-1.4-0.8-2.3-2.2-2.6-3.8c0-0.7,0.1-1.3,0.2-1.9c-0.1-0.8,0-1.7,0.2-2.5c0.5-0.9,1-1.7,1.7-2.5
	C277.2,96.8,277.7,96.1,278.2,95.3z"/>
<path class="st9" d="M299.2,61.9c-1.6,2-2.4,4.6-2.1,7.2c0,0.2,0.1,0.5,0.2,0.7c0.3,0.2,0.6,0.4,0.9,0.4c3.5,0.5,7.1,0.7,10.6,0.7
	c-0.4,1.1,0.4,2.3,1.4,2.9s2.2,0.8,3.2,1.3c1.4,0.7,2.4,2,2.8,3.5c0.2,0.8,0.2,1.7,0.4,2.6c0.1,0.9,0.7,1.6,1.5,2
	c0.5,0.2,1,0.2,1.3,0.6c0.1,0.3,0.1,0.5,0.1,0.8c-0.2,2-0.7,4-1.4,5.9c2.1-1.2,1.6-5,3.9-5.9c1.2,0.9,1.6,2.5,1.1,3.9
	c-0.5,1.4-1.5,2.5-2.6,3.4c3.2-2.8,5.1-6.7,7-10.5c0.9-1.9,1.9-4.2,0.8-6c-0.3-0.4-0.6-0.9-0.8-1.4c-0.1-0.5-0.1-0.9,0-1.4
	c0.4-1.9,0.3-3.8-0.3-5.6c-0.5-1.3-1.2-2.5-2.1-3.6c-3.2-3.6-7.8-5.7-12.6-5.8c-2.4-0.1-4.5,0.7-6.9,0.9
	C303.2,58.7,300.8,59.9,299.2,61.9z"/>
<linearGradient id="SVGID_8_" gradientUnits="userSpaceOnUse" x1="274.6282" y1="117.02" x2="276.3682" y2="25.91" gradientTransform="matrix(1 0 0 -1 -10.33 229.71)">
	<stop  offset="0" style="stop-color:#000000;stop-opacity:0"/>
	<stop  offset="0.99" style="stop-color:#000000"/>
</linearGradient>
<path class="st11" d="M207.4,133.8c0,0,87.8-6.7,93.8-6c6,0.7,20.9,10.5,20.9,10.5l-110.5,0.8C210.1,137.5,208.7,135.7,207.4,133.8z
	"/>
<rect x="8.7" y="157.9" class="st12" width="422.3" height="39.5"/>
<text transform="matrix(1 0 0 1 105.7234 182.0617)" class="st1 st13 st14" style="font-family: sans-serif;">PLEASE WAIT...</text>
<linearGradient id="SVGID_9_" gradientUnits="userSpaceOnUse" x1="245.3481" y1="26.8145" x2="144.5281" y2="104.2645" gradientTransform="matrix(1 0 0 -1 -10.33 229.71)">
	<stop  offset="0" style="stop-color:#000000;stop-opacity:0"/>
	<stop  offset="0.99" style="stop-color:#000000"/>
</linearGradient>
<path class="st15" d="M183.7,150.5c-1.9,0-3.7,0.4-5.4,1.3c-2,1.4-3.3,3.7-3.5,6.2c-0.2,2.5-0.1,4.9,0.1,7.4
	c0.3,7.2-1.6,14.2-3.5,21.1c-1.5,5.7-3.3,11.8-8.1,15.2c-0.8,0.7-1.9,1-3,0.7c-1-0.4-1.3-1.6-1.5-2.7c-3.1-17.4,3.2-35.1,3.2-52.8
	c0-3.5,0-7.5,2.8-9.7c1.7-1.3,4-1.5,6.1-1.6l32.8-1.6c5.1-0.2,11.8-1,16.7,1.1c6.1,2.7-2.6,6.6-5.8,8.2
	C205.1,148.1,194.2,149.6,183.7,150.5z"/>
<path class="st9" d="M220.9,126.8c-0.6,4.2-1.8,8.5-4.9,11.3c-2.4,2.1-5.6,3.1-8.7,3.8c-11,2.6-22.4,3.2-33.6,1.8
	c-1.6-0.2-3.6-0.3-4.5,1c-0.4,0.7-0.5,1.5-0.5,2.2c-0.9,17-2.6,33.9-5.2,50.7c-0.4,2.8-0.9,5.7-2.5,8c-3.7,5.3-11.4,5.4-17.8,4.9
	c-0.8,0-1.6-0.2-2.2-0.7c-1.2-1.3,0.3-3.1,1.5-4.3c5.1-5,7.3-12.4,7.8-19.5c0.5-7.1-0.6-14.3-1.2-21.4c-1.2-14.3-0.4-28.6,2.4-42.7
	c0.6-3,1.3-6.1,3.4-8.4c0.9-1,21.6-2.3,22.8-2.8c-1.1-1-15.2-9.2-16.3-10.3c-4.9,8.6-18.1,28.4-21.6,37.6c-10.7,0.8-21.4,0.6-32-0.7
	c-1.2-3,13-8.5,16.1-8.3c5.9-16.8,14-36.3,24.6-50.7c3.7-5,8-10.1,14.1-11.4c7.9-1.8,15.6,3.4,22.1,8.4
	C202.9,89.4,224.8,100.5,220.9,126.8z"/>
</svg>
