<?xml version="1.0" encoding="utf-8"?>
<!-- Svg Vector Icons : http://www.onlinewebfonts.com/icon -->
<!DOCTYPE svg PUBLIC "-//W3C//DTD SVG 1.1//EN" "http://www.w3.org/Graphics/SVG/1.1/DTD/svg11.dtd">
<svg version="1.1" xmlns="http://www.w3.org/2000/svg" xmlns:xlink="http://www.w3.org/1999/xlink" x="0px" y="0px" viewBox="0 0 1000 1000" enable-background="new 0 0 1000 1000" xml:space="preserve">
<metadata> Svg Vector Icons : http://www.onlinewebfonts.com/icon </metadata>
<g><g transform="translate(0.000000,511.000000) scale(0.100000,-0.100000)"><path d="M185.4,1685.5c-46.6-21.3-85.4-93.1-85.4-155.2c0-21.3,56.3-131.9,124.2-246.4c67.9-112.6,242.6-415.3,390-671.4c446.3-780.1,710.2-1158.5,1030.4-1470.9c481.2-469.6,892.6-621,1696-622.9c428.9,0,525.9,15.5,1086.7,176.6c310.5,89.3,327.9,93.1,572.5,91.2c244.5,0,263.9-3.9,601.6-99c192.1-54.3,423-114.5,514.2-132c366.8-71.8,923.7-54.3,1290.4,38.8c366.8,93.1,609.3,230.9,908.2,512.3c359,341.5,622.9,723.8,1187.6,1719.3c116.4,203.8,252.3,436.6,304.6,518.1c120.3,194.1,124.2,279.4,13.6,335.7c-46.6,25.2-227.1,29.1-1156.6,29.1c-1113.8,0-1437.9-13.6-1703.8-67.9c-492.9-102.8-937.3-335.7-1408.8-741.3c-461.9-397.8-504.5-421.1-642.3-359c-46.6,21.3-203.8,141.7-351.2,267.8c-343.5,295-555,446.3-809.2,578.3c-349.3,180.5-671.4,269.7-1094.5,302.7C2327.7,1714.6,237.8,1712.7,185.4,1685.5z M2849.7,554.2c425-56.3,603.5-114.5,840.2-273.6c178.5-118.4,485.1-415.3,485.1-469.6c0-50.5-97-132-192.1-161.1c-124.2-36.9-774.3-11.7-956.7,36.9c-273.6,73.7-492.9,217.3-669.5,436.6c-213.5,265.9-236.7,328-151.4,411.4c42.7,44.6,62.1,48.5,230.9,48.5C2537.3,583.3,2723.6,569.7,2849.7,554.2z M7953.3,540.6c66-62.1,56.3-135.8-36.9-273.6C7805.8,104,7681.6-26,7540-126.9c-246.4-174.6-425-221.2-910.1-234.8c-392-11.6-489,2-580.2,73.7c-91.2,71.8-71.8,126.1,120.3,310.5c194.1,188.2,312.4,279.4,481.3,362.9c223.2,112.6,650.1,192.1,1044,196C7889.3,583.3,7912.5,579.4,7953.3,540.6z"/></g></g>
</svg>