<svg xmlns="http://www.w3.org/2000/svg" xmlns:xlink="http://www.w3.org/1999/xlink" viewBox="0 0 512 512"><defs><style>.cls-1{fill:#093854;}.cls-2{fill:#c5e6f4;}.cls-3{fill:#38454b;}.cls-4{opacity:0.5;}.cls-5{opacity:0.1;fill:url(#Unbenannter_Verlauf_2);}.cls-6{opacity:0.6;fill:url(#Unbenannter_Verlauf_2-2);}</style><linearGradient id="Unbenannter_Verlauf_2" x1="256" y1="-5202" x2="256" y2="-5714" gradientTransform="translate(512 -5202) rotate(180)" gradientUnits="userSpaceOnUse"><stop offset="0" stop-color="#fff" stop-opacity="0"/><stop offset="1" stop-color="#ffbe32"/></linearGradient><linearGradient id="Unbenannter_Verlauf_2-2" x1="256" y1="512" x2="256" y2="83.5" gradientTransform="matrix(1, 0, 0, 1, 0, 0)" xlink:href="#Unbenannter_Verlauf_2"/></defs><title>Damavand</title><g id="bg"><path class="cls-1" d="M512,256q0,8.38-.53,16.64a254.07,254.07,0,0,1-7.12,45.64c-.72,2.93-1.51,5.83-2.34,8.72a251.5,251.5,0,0,1-13.7,36.68q-5.18,11.16-11.38,21.72c-.65,1.12-1.31,2.22-2,3.32q-2.56,4.22-5.28,8.33a257.24,257.24,0,0,1-80.24,77.46q-1.95,1.2-3.93,2.35a254,254,0,0,1-116.3,34.8q-6.55.35-13.2.34-12.2,0-24.1-1.12-6.06-.57-12.05-1.42a253.74,253.74,0,0,1-48.08-11.65l-1-.35c-1.05-.36-2.1-.74-3.14-1.13a255.3,255.3,0,0,1-62.93-33.81q-3.31-2.42-6.54-5l-.32-.25-.52-.41a4.47,4.47,0,0,1-.43-.33q-3.62-2.87-7.12-5.86l-.16-.14q-1.77-1.52-3.51-3.06c-1-.91-2-1.82-3-2.74l-1-.88c-.77-.71-1.54-1.43-2.3-2.16l-1.21-1.15-.18-.17-2.77-2.71A258.19,258.19,0,0,1,56.17,416q-2.52-3.14-4.94-6.36-3.9-5.17-7.53-10.56a254.89,254.89,0,0,1-25.29-47.62q-2.4-5.94-4.49-12c-.25-.71-.49-1.42-.73-2.14q-3.36-10-5.9-20.43c-.68-2.79-1.32-5.61-1.9-8.44-.13-.62-.26-1.25-.38-1.88-.25-1.2-.49-2.4-.71-3.61A257.62,257.62,0,0,1,0,256C0,114.62,114.62,0,256,0,389.63,0,499.36,102.41,511,233c.25,2.79.45,5.57.6,8.38v0Q512,248.67,512,256Z"/></g><g id="schnee"><path class="cls-2" d="M512,256q0,8.38-.53,16.64-.3,4.6-.76,9.15a252.24,252.24,0,0,1-6.36,36.49c-.72,2.93-1.51,5.83-2.34,8.72a249.13,249.13,0,0,1-10.12,28.6q-1.73,4.08-3.58,8.08-5.18,11.16-11.38,21.72c-.65,1.12-1.31,2.22-2,3.32q-2.57,4.22-5.28,8.33A258.52,258.52,0,0,1,425.1,448.2q-3.49,3.08-7.1,6h0c-1.14.94-2.28,1.85-3.44,2.77l-2,1.55h0a255.64,255.64,0,0,1-23.12,15.95c-1.3.8-2.61,1.58-3.93,2.35a254,254,0,0,1-116.3,34.8q-6.55.35-13.2.34-12.2,0-24.1-1.12-6.06-.57-12.05-1.42a253.74,253.74,0,0,1-48.08-11.65l-1-.35c-1.05-.36-2.1-.74-3.14-1.13a255.3,255.3,0,0,1-62.93-33.81q-3.32-2.42-6.54-5l-.32-.25-.52-.41a4.49,4.49,0,0,1-.43-.33q-3.48-2.76-6.86-5.64l-.26-.22-.16-.14q-1.77-1.52-3.51-3.06l-1.35-1.2-1.7-1.54-1-.88c-.77-.71-1.54-1.43-2.3-2.16l-1.21-1.15-.18-.17c-.93-.9-1.85-1.8-2.77-2.71A258.22,258.22,0,0,1,56.17,416q-2.52-3.14-4.94-6.36c-.12-.16-.25-.32-.36-.49q-1.61-2.11-3.13-4.28c-1.38-1.91-2.72-3.84-4-5.79-.88-1.3-1.74-2.59-2.58-3.91a0,0,0,0,0,0,0q-4.86-7.48-9.21-15.33a254.2,254.2,0,0,1-13.49-28.37q-2.4-5.94-4.49-12c-.25-.71-.49-1.42-.73-2.14Q10.73,330,8.72,322.47c-.5-1.85-1-3.71-1.43-5.58-.68-2.79-1.32-5.61-1.9-8.44-.13-.62-.26-1.25-.38-1.88-.25-1.2-.49-2.4-.71-3.61A257.63,257.63,0,0,1,0,256c0-2.78,0-5.56.14-8.32.08-2.61.2-5.2.36-7.79h0q.46-7.44,1.35-14.75.65-5.41,1.53-10.74c0-.36.11-.71.17-1.06l.3-.2C7.24,210.87,10,209,10,209s8-5,10-5,18.5-1,18.5-1L77,184l39.5-19.5,41-22.5,26-18.5,21.5-13L227.5,95,242,84.5l.37,0c1.65-.19,8.32-1,9.63-1,1.5,0,9,1,10.5,1s22,10.5,22,10.5l20.5,7.5,6.2,2.6,9.3,3.9,6,6.5L337,114l8.5,6h7l28,17.5L411,157l17.5,7.5,27.39,18,7.61,5s28,16,30.5,16.5c1.07.21,7.17,2.71,13.79,5.5q2,11,3.08,22.23L511,233c.2,2.27.37,4.53.5,6.81,0,.52.07,1,.1,1.57v0Q512,248.67,512,256Z"/></g><g id="fels_vorne" data-name="fels vorne"><path class="cls-3" d="M457,195l-12.5-7-13-9.5-2,5-13-11.5-20-9S427,191,428,192.5s-16-11.5-17.5-12-11.5-7-13-7-8-5-8-5l-20-16-13-16,7,14-30-21.5-17-10-12-11.5s3.15-1.18,6.7-2.4l9.3,3.9,6,6.5L337,114l8.5,6h7l28,17.5L411,157l17.5,7.5,27.39,18-.39.5L444,179Z"/><path class="cls-3" d="M312.5,189.5l16,13,10.5,10s-15.5-10-15-8.5,21,17.5,19,17.5-24.5-12-24.5-12l-10-7.5-1.5-9Z"/><polygon class="cls-3" points="316.5 163.5 324 178.5 337.5 192.5 344.5 205.5 329 187.5 316.5 175 316.5 163.5"/><path class="cls-3" d="M318,128l7.5,25,17,12.5-8.5-14,3.5-5s-8.5-15-10-15S318,128,318,128Z"/><path class="cls-3" d="M342.5,158.5c2,1,19.5,14,19.5,14l8,12.5,24,18.5S364.5,184,362.5,184,347,170,347,170Z"/><path class="cls-3" d="M511.49,239.83a8.62,8.62,0,0,1-3-.33c-2-1-26.5-16.5-28.5-17.5s-23.5-8.5-23.5-8.5-5.5-12-7-13-9-11-9-11l38.5,21-13-3L487,219l23.87,12.73L511,233C511.19,235.29,511.36,237.55,511.49,239.83Z"/><polygon class="cls-3" points="333.5 134 365 153.5 389 174.5 408.5 198.5 425.5 210.5 400 197.5 372.5 170 348.5 150.5 333.5 134"/><path class="cls-3" d="M397.5,178l40,30-24-13.5s11.5,8,10,8.5-16-8.5-16-8.5Z"/><polygon class="cls-3" points="339.5 175.5 358 198.5 347.5 197.5 338.5 184.5 339.5 175.5"/><polygon class="cls-3" points="288 108.5 290.5 121.5 310 142.5 302.5 124.5 303 117 297.5 111.5 293.5 115.5 288 108.5"/><polygon class="cls-3" points="295 132 302 146 306 153 307.5 160 312 165 312 174.5 301.5 169.5 294 153 291.5 138 295 132"/><path class="cls-3" d="M359,186l13.5,10.5s20.5,11,19,12,16,12.5,16,12.5-8.5,17-10,15.5-10-15-10-15l-3.5-12-6.5,6,10,20L395,247l-9,9.5-12-19-6.5-23L360,205l10.5,5L363,200Z"/><path class="cls-3" d="M400,203.5s26,15,23,15.5-20-7-20-7Z"/><path class="cls-3" d="M412.5,224l12.5,4.5s8-4.5,9.5-4,15.5,1.5,19,1.5,10,5.5,10,5.5l-13,4-5,22.5-5,5.5,3,21s-9,19-9,17.5,5.5-20,5.5-20l-2-21,5-6,3.5-23.5-6.5,5-8.5-5.5,2.5,19.5-11.5,17L435,282l-8.5,8s5.5-9.5,4-9.5-12.5-15-12.5-15l9.5-15.5L424,230.5l-10.5,5s8,16.5,6.5,16.5-10,7-10,7l-1-18Z"/><path class="cls-3" d="M338.5,235l12,17.5S334,242,334,243.5s-1.5,13-1.5,13L326,244l-2,12s-1.5-16-2.5-14.5-10.5,8-10.5,8l-8.5-7.5-9-3,8-13.5s-12,1-10,0,12-10,12-10L304,203l-16,18.5L299.5,197s-2,2,11,12l13,10,7.5,13.5-1,7Z"/><path class="cls-3" d="M275.5,128l3.5,19,5,9.5s-7.5-.5-7.5,1-5.5,11-5.5,11-1-21.5-2-19.5-7.5,15.5-7.5,14,4-17.5,4-17.5-6.5.5-6.5-1v-18l6.5-6.5s0,20,1.5,20S275.5,128,275.5,128Z"/><polygon class="cls-3" points="251.5 138 256 150.5 251.5 162 256.5 174.5 245 156.5 248.5 150 251.5 138"/><path class="cls-3" d="M510.71,281.79a252.24,252.24,0,0,1-6.36,36.49c-.72,2.93-1.51,5.83-2.34,8.72a249.13,249.13,0,0,1-10.12,28.6L475,350.5l-28.5-2L414,349l-19.5,8L375,363l-23.5,5.5-10.5,10-15,2-42-1H265.5l-32-5-42,10-10.5-4H164.5L143,375H131l-17.5,8-3-2.5-31-5L68,362.5,51.5,348s13,5.5,14.5,6,42.5,6.5,42.5,6.5-3-12.5-1.5-13S134,358,134,358l1-11.5,14,7,10-16,9,13.5s6.5-6.5,8.5-7.5,15,13,15,13H211l-15.5-11L178,330l-1.5-10.5,7-3,16,6.5,13,13.5s13,9.5,15,10,22,9,22,9l17-3-5-18.5,11.5,8,15.5-14.5,11,15.5,8.5-5.5,11.5,8L345,332s7.5,10,10,10,11-9.5,11-9.5,20,11,22.5,11.5,3.5-12.5,3.5-12.5l5.5,4,24.5,7-10.5-11-14-9.5-15-13L373,298l-10.5-20.5L375,286l13.5,5s17-12,20-13,4.5,10,4.5,10l22.5,3.5,1.54.67,2.28,1L459.5,302l19-18.5,19-13.5Z"/><path class="cls-3" d="M412.55,458.56a255.64,255.64,0,0,1-23.12,15.95c-1.3.8-2.61,1.58-3.93,2.35a254,254,0,0,1-116.3,34.8q-6.55.35-13.2.34-12.2,0-24.1-1.12-6.06-.57-12.05-1.42a253.74,253.74,0,0,1-48.08-11.65l-1-.35c-1.05-.36-2.1-.74-3.14-1.13a255.3,255.3,0,0,1-62.93-33.81q-3.32-2.42-6.54-5l-.32-.25-.52-.41a4.49,4.49,0,0,1-.43-.33q-3.48-2.76-6.86-5.64l-.26-.22-.16-.14q-1.77-1.52-3.51-3.06l-1.35-1.2-1.7-1.54-1-.88c-.77-.71-1.54-1.43-2.3-2.16l-1.21-1.15-.18-.17c-.93-.9-1.85-1.8-2.77-2.71A258.22,258.22,0,0,1,56.17,416q-2.52-3.14-4.94-6.36c-.12-.16-.25-.32-.36-.49L83.5,410l-10,16L92,418s3.5-9.5,5.5-9,16,.5,16,.5-15,18.5-17,19.5-9.5,11-8,10,20-8.5,20-8.5L121,423l13-1.5L131.5,432,120,448.5l7,4.5,14.5-9.5,17-14.5,16-9.5,11-4.5s24.5,0,23,.5-16,33-16,33l11.5-4,8.5-17.5,10-8,7-3,20.5-4.5L234,432l-13.5,16-5,7.5-4.5,11,22-18,6.5-5,10-4,14.5-4-14.5,15-7,5,21-1,20.5.5-10.5,14.5c-.5,4,18.5-1,18.5-1l16-9s5-3.5,8-4.5,25-2,25-2,32.5,1,34,1,14.5,3.5,14.5,3.5l15,.5Z"/></g><g id="schatten"><path class="cls-4" d="M239,95.5,212,113s2.5,7.5,1,7.5-9,3-9,3l-6.5,12-23,23L148,172l26-21,20-20-17,7-25.5,14.5s-14,8.5-16.5,8.5-33.5,18-33.5,18-55,27-57,27S25,212.5,25,212.5l1.5-7s-13,7.5-13.5,9c-.33,1-6.81,6.82-11.15,10.63q.65-5.41,1.53-10.74l.47-1.26C7.24,210.87,10,209,10,209s8-5,10-5,18.5-1,18.5-1L77,184l39.5-19.5,41-22.5,26-18.5,21.5-13L227.5,95,242,84.5l.37,0Z"/><path class="cls-4" d="M114,200l-8.5,3.5s-2.5,11-4,11.5S60,238,60,238l27.5-21.5,12-13.5Z"/><path class="cls-4" d="M104,196.51c-.49.3-16,10-18,11S61.5,223,61.5,223L52,225,34,236.5,12.5,243,.14,247.68c.08-2.61.2-5.2.36-7.79h0L3,236s32-13.5,34-13.5,32-14,32-14Z"/><path class="cls-4" d="M33.5,261,33,278.5,17,291l6.5,11s19,8.5,20.5,9,12.5,9,12.5,9-26.5-3.5-25-3S50,322.5,50,322.5l2.5,12L41,336s2-12.5.5-13S28,319,28,319l-5.5-8.5s-17-5.5-17-7S4,294,4,294l7.5-6,8-5.5,6-8.5Z"/><path class="cls-4" d="M224.5,116.5l-10,7.5L211,134.5l-9,3.5-10,16.5L176.5,168,156,178l-1,9-5.5,10.5-10.5,8-3.5,5V221l-8.5,6.5-4.5,7-10,6.5-6,7.5L96,256l-10,9.5,1,5,11-12,14.5-10s8-4,9-6,13.5-10,13.5-10l12.5-7.5-4.5,8.5-2.5,11s-8,10-9.5,10.5-10.5,9.5-10.5,9.5l-7,8.5L98,278.5,90,290l2.5,10.5,5.5,4,3-21.5s12.5-3.5,14-4.5,15.5-9,15.5-9l10-4.5L152,250.5l7.5-6s17-17,15-16.5-16.5,10-18,10.5-11.5,7-11.5,7l7.5-12L155,222l15-8,17-13,8.5-16.5-11,14.5L169,207.5l-19.5,10,11-16L176,182l11-8,19.5-16,9.5-6,5,19-2.5-17,4-20,2-12.5Z"/><polygon class="cls-4" points="134.5 284.5 150 279.5 160.5 269.5 165.5 256.5 155 268 134.5 284.5"/><path class="cls-4" d="M111.5,312.5,119,318l-2,7.5s4,9,5.5,8.5,10,6.5,10,6.5l-12-1.5-10-10.5L112,321Z"/><polygon class="cls-4" points="217.5 185.5 225 198.5 221.5 216.5 214.5 227 203.5 240 204 244 214.5 235.5 213.5 242 202.5 256.5 193 270.5 186.5 281 194 281.5 191.5 301.5 182 311 195 318 198.5 328 213 341 227 355.5 211 356.5 191.5 342 182.5 334.5 176 327 170 313 175.5 313 175.5 299 175.5 292.5 181 288.5 179.5 278.5 188 265.5 193 257.5 195 245.5 200 232.5 210 221.5 214.5 210 215.5 200 215 185.5 217.5 185.5"/><polygon class="cls-4" points="227.5 280.5 222 297.5 220.5 315 229.5 324 212.5 313 215 297.5 227.5 280.5"/><polygon class="cls-4" points="266 193.5 264.5 210 260 216.5 258.5 206 266 193.5"/><polygon class="cls-4" points="249.5 99.5 243 109 230 119 240 108.5 249.5 99.5"/><path class="cls-4" d="M258.5,103c0,1.5-6,18-6,18l-5,14s-.5,10.5-1,13,0,17.5,0,17.5l4.5,15,2,7.5-9.5-20s-2.5-20-2-21.5.5-10.5.5-13,1.5-10.5,1.5-10.5l3-4Z"/><polygon class="cls-4" points="237 132.5 230.5 141 234 148.5 239 155.5 239 164 235.5 170.5 235 175 240 183 231.5 173 234.5 162 232 154 227 142.5 229.5 134.5 237 132.5"/><path class="cls-4" d="M287.5,161.5l-13,10-4,16.5,1.5,11.5,9.5,16s-.5-10-.5-11.5,4.5-11,4.5-11L283,182.5l4-6.5Z"/><path class="cls-4" d="M312,174.5,297,187l-8.5,15.5L286,212l-1.5,10.5,8,.5,4.5,8.5-3.5,7.5,1.5,8.5,2,5.5.5,11-5.5,9.5-11,10L277,294l-1,10,7.5,4.5,1,7L281,324l-5.5,5-1,7.5,6,11,9.5,4,9.5,2,3-11-5-12.5L295,319l3.5-9.5-1.5-7s-9-1-9-2.5,4-8.5,4-8.5l7-10.5,4.5-10,2-10,10.5-9.5,3.5-6,2-12.5-7.5-5-8,11,8.5-17-4-13-5-9.5,3.5-11,3-4S310.5,174.5,312,174.5Z"/><path class="cls-4" d="M337.5,262.5s9,3.5,7.5,4.5-3.5,11-3.5,11l4.5,18,.5,17,2,10.5L359,332l-7.5,11.5L325,349l-5.5-3.5L324,334l2.5-11.5,2-20.5h-8l1-11.5,5-5.5,1-10,2.5-7.5Z"/><path class="cls-4" d="M400.5,260c-1.5,0-11,12-12.5,12s-13,14-13,14l-1,10,6.5,8.5L390,311l17.5,8.5L413,326l9,16.5,13.5,2H445l-4-7.5-18.5-12.5-11-9.5L400,307l-8-9.5-1.5-7L395,283l3.5-6.5,8.5-8Z"/><polygon class="cls-4" points="418.5 285 416 303.5 413 308.5 426.5 320.5 437.5 327.5 446 332 433 312.5 428.5 296.5 430.5 289.5 426.5 278.5 422.5 270 426 258.5 427.5 250 427.5 235.5 422.5 255 414.5 262 412.5 270.5 417 279.5 418.5 285"/><path class="cls-4" d="M501.5,242l-11,11S479,265.5,481,265.5s3.5,11.5,3.5,11.5L481,287.5s-5.5,6-8,8,.5-11,.5-11L471,273l-4,18.5L461.5,305l5,18,6,13,3.5,6.5,10-1,2.5-21.5-1-13.5,4-11,3-10.5V275l11-9Z"/><path class="cls-4" d="M333.5,134l23,12s11.5,12.5,13,13.5,7,15,7,15l6,9,14.5,13-15-7L370,176l-8-12.5-10-10-12-10Z"/><path class="cls-4" d="M83.5,410,87,398l10-8-8.5,14s17.5-12.5,15-11S91,411.5,91,411.5L85,421l-16.5,4Z"/><path class="cls-4" d="M59,389.5l-9.5,12-1.76,3.39c-1.38-1.91-2.72-3.84-4-5.79-.88-1.3-1.74-2.59-2.58-3.91a0,0,0,0,0,0,0C43.76,394,47,392.5,47,392.5Z"/><path class="cls-4" d="M147,389l-16.5,19.5-10,10.5-5,6.5-14,18L90,450.92l-.26-.22-.16-.14q-1.77-1.52-3.51-3.06l-1.35-1.2L85,439l10.5-12,18-17.5.73-1,15.27-20,8-.5s-9.5,9-11,10-8.5,12-8.5,12l15-12Z"/><path class="cls-4" d="M183.5,394.5c-1,1.5-11,22.5-11,22.5l-14,12-17,14.5,1-7,18-12.5,6.5-8.5,8-17.5Z"/><polygon class="cls-4" points="158 477.5 164.5 467 188.5 454.5 168.5 472.5 161 482 158 477.5"/><path class="cls-4" d="M195,489l24,1.5,12-5,19.5-1,27-8.5,17.5-3,5.5-9.5L264,473s-26.5,4-28,4.5-19,5.5-16.5,4,11-12,11-12l7.5-10-19,7L215.5,477l-1,5Z"/><path class="cls-4" d="M477,357l-17,18-9,11.5L436.5,413,430,438.5l-12,15.73h0c-1.14.94-2.28,1.85-3.44,2.77L395,447l-10.5,7L369,450s16-10,18-10,2.5-12.5,2.5-12.5l-7-4.5s-15,10-17.5,11-16,11-21.5,15l-15,4-8.5,1-5-3.5,5-6.5,7-7a39.8,39.8,0,0,0,4-6l2-8.5-5.5-7L315,410l-5.5-7s11.5-8,14.5-8.5,2.5-11,2.5-11l14.5-5,10.5-10,35-8.5,2,5L383,375l-15,16.5,16.5-12L399,371c-.54.51-19,18-16.49,17s10.5-8.5,10.5-8.5,8-7.5,9.5-8.5,12.5-9,12.5-9l-4,9-17,17.5L404.5,378s22-14,23.5-15,13.5-13.5,13.5-13.5L457,349l-10,11.5L427.5,375,409,390.5,404.5,401,418,390.5l21-20L461,357l14-6.5Z"/><path class="cls-4" d="M75,374.5c-3,0-21.5.5-21.5.5L40,376l-8.1,3.85a254.2,254.2,0,0,1-13.49-28.37q-2.4-5.94-4.49-12c-.25-.71-.49-1.42-.73-2.14Q10.73,330,8.72,322.47l11.78,2,10,3.5,6,11.5-2,5.5L30,350.5,28.5,356l5,6,3.5,3.5,11.5-.5,23,7.5S78,374.5,75,374.5Z"/></g><g id="grading"><path class="cls-5" d="M0,256a255.76,255.76,0,0,1,13-80.88,250.54,250.54,0,0,1,10.22-25.88A256.26,256.26,0,0,1,212.07,3.77,252.9,252.9,0,0,1,244.22.27C248.13.08,252,0,256,0a254.36,254.36,0,0,1,64.08,8.12h0a253.45,253.45,0,0,1,73,31.62A256.52,256.52,0,0,1,498.3,173.22v0a253.47,253.47,0,0,1,12.9,62.4q.79,10.07.8,20.35c0,141.39-114.62,256-256,256C146.7,512,53.4,443.49,16.68,347.07c-1.09-2.84-2.12-5.7-3.09-8.61-.29-.82-.57-1.66-.84-2.5q-.28-.79-.5-1.58c-.9-2.8-1.75-5.62-2.57-8.46A255.78,255.78,0,0,1,.27,267.5C.08,263.69,0,259.84,0,256Z"/></g><g id="mountain_grading" data-name="mountain grading"><path class="cls-6" d="M512,256q0,8.38-.53,16.64-.3,4.6-.76,9.15a252.24,252.24,0,0,1-6.36,36.49c-.72,2.93-1.51,5.83-2.34,8.72a249.13,249.13,0,0,1-10.12,28.6q-1.73,4.08-3.58,8.08-5.18,11.16-11.38,21.72c-.65,1.12-1.31,2.22-2,3.32q-2.57,4.22-5.28,8.33A258.52,258.52,0,0,1,425.1,448.2q-3.49,3.08-7.1,6h0c-1.14.94-2.28,1.85-3.44,2.77l-2,1.55h0a255.64,255.64,0,0,1-23.12,15.95c-1.3.8-2.61,1.58-3.93,2.35a254,254,0,0,1-116.3,34.8q-6.55.35-13.2.34-12.2,0-24.1-1.12-6.06-.57-12.05-1.42a253.74,253.74,0,0,1-48.08-11.65l-1-.35c-1.05-.36-2.1-.74-3.14-1.13a255.3,255.3,0,0,1-62.93-33.81q-3.32-2.42-6.54-5l-.32-.25-.52-.41a4.49,4.49,0,0,1-.43-.33q-3.48-2.76-6.86-5.64l-.26-.22-.16-.14q-1.77-1.52-3.51-3.06l-1.35-1.2-1.7-1.54-1-.88c-.77-.71-1.54-1.43-2.3-2.16l-1.21-1.15-.18-.17c-.93-.9-1.85-1.8-2.77-2.71A258.22,258.22,0,0,1,56.17,416q-2.52-3.14-4.94-6.36c-.12-.16-.25-.32-.36-.49q-1.61-2.11-3.13-4.28c-1.38-1.91-2.72-3.84-4-5.79-.88-1.3-1.74-2.59-2.58-3.91a0,0,0,0,0,0,0q-4.86-7.48-9.21-15.33a254.2,254.2,0,0,1-13.49-28.37q-2.4-5.94-4.49-12c-.25-.71-.49-1.42-.73-2.14Q10.73,330,8.72,322.47c-.5-1.85-1-3.71-1.43-5.58-.68-2.79-1.32-5.61-1.9-8.44-.13-.62-.26-1.25-.38-1.88-.25-1.2-.49-2.4-.71-3.61A257.63,257.63,0,0,1,0,256c0-2.78,0-5.56.14-8.32.08-2.61.2-5.2.36-7.79h0q.46-7.44,1.35-14.75.65-5.41,1.53-10.74c0-.36.11-.71.17-1.06l.3-.2C7.24,210.87,10,209,10,209s8-5,10-5,18.5-1,18.5-1L77,184l39.5-19.5,41-22.5,26-18.5,21.5-13L227.5,95,242,84.5l.37,0c1.65-.19,8.32-1,9.63-1,1.5,0,9,1,10.5,1s22,10.5,22,10.5l20.5,7.5,6.2,2.6,9.3,3.9,6,6.5L337,114l8.5,6h7l28,17.5L411,157l17.5,7.5,27.39,18,7.61,5s28,16,30.5,16.5c1.07.21,7.17,2.71,13.79,5.5q2,11,3.08,22.23L511,233c.2,2.27.37,4.53.5,6.81,0,.52.07,1,.1,1.57v0Q512,248.67,512,256Z"/></g></svg>