<?xml version="1.0" encoding="utf-8"?>
<svg id="master-artboard" viewBox="0 0 1564.4498291015625 1114.2947998046875" version="1.1" xmlns="http://www.w3.org/2000/svg" x="0px" y="0px" style="enable-background:new 0 0 504 360;" width="1564.4498291015625px" height="1114.2947998046875px"><rect id="ee-background" x="0" y="0" width="1564.4498291015625" height="1114.2947998046875" style="fill: white; fill-opacity: 1; pointer-events: none;"/>

<path d="M 0 -0.1 H 168 V 179.9 H 0 V -0.1 Z" class="st0" style="fill: rgb(226, 226, 226);" transform="matrix(3.1039229028191, 0, 0, 3.1039229028191, 0, 0.21039229341699944)"/>
<path d="M 0 180 H 168 V 360 H 0 V 180 Z" class="st1" style="fill: rgb(255, 255, 255);" transform="matrix(3.1039229028191, 0, 0, 3.1039229028191, 0, 0.21039229341699944)"/>
<path d="M 168 180 H 336 V 360 H 168 V 180 Z" class="st2" style="fill: rgb(242, 242, 242);" transform="matrix(3.1039229028191, 0, 0, 3.1039229028191, 0, 0.21039229341699944)"/>
<path d="M 336 179.899994 H 504 V 359.899994 H 336 V 179.899994 Z" class="st0" style="fill: rgb(226, 226, 226);" transform="matrix(3.1039229028191, 0, 0, 3.1039229028191, 0, 0.21039229341699944)"/>
<path d="M 168 -0.1 H 336 V 179.9 H 168 V -0.1 Z" class="st1" style="fill: rgb(255, 255, 255);" transform="matrix(3.1039229028191, 0, 0, 3.1039229028191, 0, 0.21039229341699944)"/>
<path d="M 336 -0.1 H 504 V 179.9 H 336 V -0.1 Z" class="st2" style="fill: rgb(242, 242, 242);" transform="matrix(3.1039229028191, 0, 0, 3.1039229028191, 0, 0.21039229341699944)"/>
<path class="st3" d="M491.4,85.8c-0.4-0.7-1.8-0.8-1.8-0.8s0.7-1.2,0-2.4c-0.7-1.2-1.8-1-1.8-1s0.4-1.7-0.2-2.3&#10;&#9;c-0.7-0.6-2.5-0.5-2.5-0.5s2-1.2,1.8-1.7c-0.1-0.5-1.1-0.8-1.1-0.8s2.8-1,2.7-1.9c-0.1-0.8-0.6-1.2-0.6-1.2s1.6-1.2,0.9-2.4&#10;&#9;c-0.6-1.3-2.7-0.3-2.7-0.3s0.2-2-1-2.4c-1.1-0.4-2.2,0.6-2.2,0.6s-0.3-1.1-1.2-1.3c-1-0.2-1.5,0.9-1.5,0.9s0-1.7-1.2-1.9&#10;&#9;s-1.6,0.4-1.6,0.4s0.4-0.7,0-1.4c-0.4-0.6-1.2-0.3-1.2-0.3s0.2-0.2,0.9-0.9c0.6-0.7,0-1.6,0-1.6s1.3-1,0.7-2&#10;&#9;c-0.6-1.1-2.2-0.7-2.2-0.7s0.6-1,0.3-2.2c-0.4-1.3-2.4-1.1-2.4-1.1s0.7-1.2,0-2c-0.7-0.8-2.5-0.3-2.5-0.3s0.2-0.8-0.2-1.8&#10;&#9;c-0.4-1.1-2.1-0.6-2.1-0.6s0.3-0.8-0.2-1.8c-0.5-1.1-2.4-0.6-2.4-0.6s0.9-0.5,0-1.6c-0.9-1.1-2.2-0.6-2.2-0.6s1.1-1.3,0.2-2&#10;&#9;c-0.8-0.8-1.8-0.2-1.8-0.2s0.4-0.8-0.2-1.6c-0.6-0.8-2-0.1-2-0.1s0.8-0.9-0.6-1.8c-1.5-0.9-2.7,0.8-2.7,0.8s0.8-1.6-0.8-2.4&#10;&#9;c-1.6-0.8-2.6,0.2-2.6,0.2c-0.2-1.1-0.6-2.3-2-2.4c-1.4-0.1-1.4,1-1.4,1s-0.3-2.2-2-2.2c-1.7,0-1.4,3.2-1.4,3.2s-0.5-1.5-1.6-1.6&#10;&#9;c-1.1-0.1-1.6,1.6-1.6,1.6s-0.1-1.9-1.4-1.8c-1.4,0.1-1.2,1.8-1.2,1.8s-0.5-1.7-2.1-1.5c-1.6,0.2-1.6,1.9-1.6,1.9s-0.1-1.3-1.2-1.2&#10;&#9;c-1.2,0.1-1,1.8-1,1.8s-0.8-2.3-2-2.3c-1.2,0-1.2,1.5-1.2,1.5s0-2-2.2-1.8c-2.2,0.2-2.2,3-2.2,3s-0.3-1-1.4-1&#10;&#9;c-1.1,0-1.5,1.4-1.5,1.4s-0.7-1.3-1.8-1.5c-1.1-0.2-1.6,1-1.6,1s0.2-0.8-0.8-1.2c-1-0.3-1.9,0.2-1.9,0.2s-0.9-1.6-2.2-1.7&#10;&#9;c-1.3-0.1-1.7,1.2-1.7,1.2c-0.2-0.6-1.2-1.8-2.1-1.8c-0.8,0-1.1,0.2-1.8,0.8c-0.7,0.6-1.4,0-1.4,0s-0.4-0.9-1.6-0.8&#10;&#9;c-1.1,0.1-1.4,0.6-1.4,0.6s-0.4-1.7-1.8-1.6c-1.4,0.1-1.6,1.9-1.6,1.9s-0.9-0.2-2.2,0c-1.3,0.2-1.2,1.9-1.2,1.9&#10;&#9;c-2.3,0.3-2,2.4-2,2.4c-1,0.2-1.2,1.8-1.2,1.8s-0.9,0.4-1.5,1.1c-0.6,0.8-0.3,2.5-0.3,2.5s-0.1-1.1-1.5-0.7c-1,0.3-1.1,1.2-1.1,1.7&#10;&#9;c-0.1-0.2-0.4-0.5-1.2-0.4c-1.4,0.3-1.3,2.5-1.3,2.5s-0.2-1.8-1.6-1.5c-1.4,0.3-1,1.7-1,1.7s-0.6-1.3-1.8-1.2c-1.3,0-1.8,1-1.8,1&#10;&#9;s0.1-1.8-1.4-1.5c-1.5,0.3-1.7,1.7-1.7,1.7s-0.2-1.1-1.5-0.8c-1.2,0.3-1.2,1.5-1.2,1.5s-0.9-1.2-1.9-0.7c-1,0.5-0.4,1.7-0.4,1.7&#10;&#9;s-1.8-1.2-2.6-0.7c-0.8,0.5-0.2,2.2-0.2,2.2c-0.7-1-2.1-1.3-3.1-0.9c-1,0.4-0.4,2.5-0.4,2.5c-0.1-0.2-1.4-0.6-2.1-0.4&#10;&#9;c-0.8,0.2-0.6,1.7-0.6,1.7c-0.4-0.4-1.5-0.3-1.4,0.6c0.1,0.9-0.5,1-1,0.7c-0.5-0.3-1,0.2-1,0.7c0,0.5,0,1-0.7,0.8&#10;&#9;c-0.7-0.2-1.7,0.1-2,0.9c-0.3,0.8,0.4,1.9,0.8,2.2c0.4,0.3,0.1,0.7,0.1,0.7s-0.8-0.1-1,1.1c-0.1,1.2,1.1,0.9,1.8,1.7&#10;&#9;c0.7,0.8-0.4,1.1-0.4,1.1c-0.8,0.1-0.7,1.1-0.7,1.1s-0.8-0.1-1.6,0c-0.8,0.1-0.8,1.7-1.7,1.2c-0.9-0.5-1.9,0.6-2.4,0.5&#10;&#9;c-0.5-0.1-1.6-0.6-1.7,0.9c-0.1,1.5-0.8,1.2-1.6,1.7c-0.8,0.5,0,1.7-0.8,1.9s-1,0.8-1,1.7c0,0.9,1.2,0.7,1.3,1.2&#10;&#9;c0.1,0.4-0.4,0.7-1,0.8c-0.7,0.1-0.9,0.6-0.9,1.2c0,0.7,1,0.9,1.2,1.3c0.2,0.4-0.1,0.9-0.6,0.9c-0.5,0-0.3,1.1,0.2,1&#10;&#9;c0.5-0.1,0.7,0.3,0.3,0.6c-0.4,0.3-0.8,0.3-0.6,1c0.2,0.7,1.6,1,1.7,1.4c0.1,0.4-0.8,1.3-1.5,1.6c-0.7,0.3-0.7,1,0,1&#10;&#9;c0.7,0,1,0.8-0.1,1.1c-1,0.4-1.6,0.8-1.6,1.5c-0.1,0.7,1,2.2,1.9,1.8c0.9-0.4,1,0.1,0.9,0.5c-0.1,0.4-1,0.3-0.9,1&#10;&#9;c0.1,0.7,0.7,1.2,1.3,1c0.6-0.2,1.3-0.1,0.7,1.4c-0.5,1.5,0.4,2,1.6,1.9c1.3-0.2,1,0.5,0.7,1.8c-0.3,1.3,1.7,1.8,2.3,1.6&#10;&#9;c0.6-0.2,1.8-0.4,1.5,0.4c-0.3,0.7,0.2,1.5,1,1c0.8-0.5,1.6,1.1,0.8,1.7c-0.8,0.5-0.4,2.3,1.3,2c1.6-0.3,1.3,1.1,2.5,1.2&#10;&#9;c1.2,0.1,2-1.2,2-1.2c0.4,2.2,1.6,1.3,1.6,2.1c-0.1,0.8-0.1,1.5,1.5,1.7c1.6,0.2,1.9-0.8,1.9-0.8c1,1.6,2.6,1,2.6,1&#10;&#9;c0.2,1,0.7,1.2,1.4,1.3c0.7,0.1,0.9-0.7,0.9-0.7c2.1,1.2,2.9-0.6,2.9-0.6c2.9,2.6,3.2,2.9,9.1,0.6s6.4,2.6,6.7,5.1&#10;&#9;c0.4,2.6,1.5,2.8,6,2.5c4.5-0.3,8.2,0.7,12.5,1.6c4.4,0.8,2.4,7.8,1.6,10c-0.8,2.2-5.1,7.9-6.9,9.4c-1.8,1.6-2.7,0.5-5,0.4&#10;&#9;c-2.3-0.1-5.6,2-10.5,3.7c-5,1.7-4.8,3-4,3.2c0.8,0.2,1.7-0.6,1.7-0.6c2.1-0.3,7.8-0.7,10.3-0.3c2.5,0.4,3.8,0.1,6-0.4&#10;&#9;c2.2-0.4,4.5-0.6,5.7-0.2c1.2,0.4,0.2,2-1.4,2.3c-1.6,0.4-4.5,1.9-6,2.7c-1.5,0.8-4,3.1-1.3,3.1c2.7,0,3.6-1.4,6.2-2&#10;&#9;c2.6-0.5,6-0.4,8-1c2-0.6,5-3.2,6.5-4.2c1.5-1,2.1,0.2,3.5,0.3c1.4,0.1,2.3,0.5,3.5,0.6c1.2,0.1,5.1-0.1,6.2-0.2&#10;&#9;c1.1-0.1,3.6-0.4,5.3-0.5c1.7-0.1,2.4,0.8,3.8,0.7c1.4-0.1,2.9-0.3,3.5-0.8c0.7-0.5,1.7-0.3,2.6-0.4c1-0.1,1.9,0.5,2.8,0.8&#10;&#9;c1,0.2,2.6,0,2.1-1c-0.5-1-6.3-3.3-7.8-3.6c-1.4-0.3-3.2,1.3-4,1c-0.8-0.3-2.2,0-3.4,0c-1.3,0-1.7-0.8-2.3-1.4&#10;&#9;c-0.6-0.6-3.9-2.7-4.2-3.5c-0.3-0.8-0.3-5.7-0.1-7c0.2-1.3,0-5.1,0.1-6c0.1-0.8,0-3,0-3c3.2-0.7,2.7-3.6,2.8-4.5&#10;&#9;c0.1-1,2.6-1.7,4.1-1.9c1.5-0.1,3.5-0.1,6.9-0.4c3.3-0.4,4-2.6,4-2.6c3,0.2,5.9-0.2,7.8-1.1c1.9-0.9,2.3-3,2.3-3s1.4,0.2,2.2-0.1&#10;&#9;c0.8-0.2,0.8-1.1,0.8-1.1s1.3,0.2,2.1,0c0.8-0.2,0.6-1.9,0.6-1.9s0.7,0.5,1.1-0.2c0.4-0.7,0.4-1.7,0.4-1.7c3.8-0.9,2.9-3.9,2.9-3.9&#10;&#9;s0.2,0.6,1.2,0c1-0.6,0.5-1.7,0.5-1.7c2.1,0.5,2.9-1.1,2.9-1.1s-0.2,1.3,1.6,0.8c1.7-0.4,2-1.6,2-1.6s0.8,0.8,1.9,0.3&#10;&#9;c1.1-0.5,0.9-1.4,0.9-1.4s1.3,0.4,2-0.3c0.8-0.7,0.3-1.9,0.3-1.9c3.8-0.2,2.6-3.2,2.6-3.2s1.3-0.1,1.5-1.4c0.2-1.3-0.6-1.9-0.6-1.9&#10;&#9;C492.2,88.6,491.8,86.5,491.4,85.8z M406.8,114.6c-0.8-0.5-5.7,0.1-6.5,0c-0.8-0.1-1-0.4-0.6-1.3c0.4-0.9,1.2-0.8,1.2-0.8&#10;&#9;c0.2,0.8,1.4,0.4,2.1,0.5s1.2,0.5,1.4,0.8c0.2,0.4,2.6,0.4,2.7-0.3c0.1-0.7,0.8-0.8,1.3-0.7c0.5,0.1,1.4-0.3,1.4-0.3&#10;&#9;c0.5-0.7,1.6-0.5,1.4,0c-0.2,0.5,0.8,1.6,0.8,2.2C412,115.2,407.7,115.1,406.8,114.6z M444.2,113.7c-0.5,0.5-3,0.6-3.9,0.5&#10;&#9;c-0.9-0.1-1.6,0.1-2.2,0.4c-0.6,0.3-2.6,0.7-2.9,0.4c-0.2-0.3-1-0.4-1.7-0.4c-0.7-0.1-0.7-0.2-0.7-0.8c0-0.7-0.6-2.4-0.6-2.4&#10;&#9;s0.5,0.8,1.9,0.7c1.4-0.1,1-0.7,1.6-0.8c0.5-0.1,0.8,1,1.7,0.8c0.9-0.2,1.1-1,1.1-1s0.4,0.5,1,0.5c0.6,0,1.1-0.2,1.2-0.5&#10;&#9;c0.1-0.2,0.4-0.5,0.4-0.5c0.8-0.6,1.6,0.3,2,0c0.5-0.2,0.8,0.5,1.4,0.8C445.1,111.6,444.7,113.3,444.2,113.7z" style="fill: rgb(40, 40, 40);" transform="matrix(3.1039229028191, 0, 0, 3.1039229028191, 0, 0.21039229341699944)"/>
<path class="st3" d="M322.2,294.7c0.1-0.7-0.5-0.8-0.5-0.8c0.4-0.5-0.1-0.7-0.1-0.7c0.6-0.6,0.1-1,0.1-1c0.8-0.4,0.3-0.9,0.3-0.9&#10;&#9;c0.6-0.7-0.1-1-0.1-1s0.3-0.3,0-0.8c-0.3-0.5-0.5-0.3-0.5-0.3s0.5-0.7,0.2-1.3c-0.2-0.6-0.7-0.4-0.7-0.4s0.5-0.4,0.2-0.8&#10;&#9;c-0.3-0.4-0.8-0.3-0.8-0.3s0.2-0.5-0.3-0.6c-0.4-0.1-0.7,0.3-0.8,0.5c0.1-0.1,0.3-0.5,0-0.7c-0.4-0.2-0.6,0.2-0.6,0.2&#10;&#9;s0.2-0.5-0.2-0.5c-0.4-0.1-0.5,0.4-0.5,0.4s0.1-0.3-0.4-0.3c-0.4,0-0.4,0.2-0.4,0.3c0-0.1,0-0.4-0.5-0.5c-0.2,0-0.3,0-0.4,0.1&#10;&#9;c0.1-0.2,0.1-0.4,0.1-0.5c-0.1-0.2-0.4-0.1-0.4-0.1s0.2-0.3,0-0.5c-0.2-0.2-0.5-0.1-0.5-0.1s0.5-0.3,0.5-0.6&#10;&#9;c-0.1-0.3-0.3-0.3-0.3-0.3s0.8-0.4,0.8-0.7c0-0.3-0.4-0.2-0.4-0.2s0.1-0.5-0.2-0.6c-0.2-0.1-0.3,0-0.4,0.1c0.1-0.1,0.2-0.3-0.1-0.4&#10;&#9;c-0.3-0.1-0.7,0.2-0.7,0.2s0.5-0.7,0.2-0.8c-0.3-0.2-0.5,0-0.5,0s0.5-0.6,0.2-0.9c-0.2-0.3-0.7-0.1-0.7-0.1s0.4-0.4,0-0.6&#10;&#9;c-0.3-0.2-0.4-0.1-0.5-0.1c0.2-0.2,0.7-0.6,0.6-0.9c-0.2-0.3-0.6-0.1-0.6-0.1s0.9-0.5,0.8-0.8c-0.1-0.4-0.8-0.2-0.8-0.2&#10;&#9;s0.9-0.2,0.8-0.6c0-0.4-0.3-0.6-0.3-0.6s0.5-0.1,0.5-0.6c0-0.5-0.5-0.6-0.5-0.6s0.4-0.4,0.2-0.8c-0.1-0.3-0.2-0.3-0.2-0.3&#10;&#9;c0.1-0.1,0.2-0.4,0.2-0.6c0-0.2-0.4-0.4-0.4-0.4s0.2-0.2,0.1-0.5c-0.1-0.3-0.4-0.3-0.4-0.3s0.8,0,0.8-0.6c-0.1-0.6-0.5-0.5-0.5-0.5&#10;&#9;s0.6-0.4,0.5-0.7c0-0.3-0.5-0.5-0.5-0.5s0.6-0.4,0.5-0.8c-0.1-0.4-0.6-0.3-0.6-0.3s0.1-0.3,0-0.6c-0.1-0.4-0.6-0.4-0.6-0.4&#10;&#9;s0.5-0.6,0.3-0.9c-0.2-0.3-0.6-0.2-0.6-0.2s0.4-0.4,0-0.6c-0.4-0.2-0.8,0-0.8,0s0.6-0.4,0.5-0.7c-0.1-0.3-0.6-0.5-0.6-0.5&#10;&#9;s0.7-0.3,0.6-0.8c-0.1-0.5-0.5-0.4-0.5-0.4s0.6-0.7,0.2-1.1c-0.2-0.2-0.3-0.1-0.4,0c0.1-0.2,0.3-0.6,0.1-0.8&#10;&#9;c-0.3-0.2-0.6,0.1-0.6,0.1s0.1-0.5-0.2-0.5c-0.4,0-0.7,0.4-0.7,0.4s0.3-0.7,0-0.9c-0.3-0.2-0.6,0.1-0.6,0.1s0.4-0.5,0.2-0.8&#10;&#9;c-0.1-0.3-0.4-0.4-0.4-0.4s0.2-0.7,0-0.9c-0.2-0.2-0.8,0.2-0.8,0.2s0.3-0.5,0-0.8c-0.3-0.2-0.6,0-0.6,0s-0.1-0.4-0.6-0.5&#10;&#9;c-0.3,0-0.4,0.1-0.5,0.3c0-0.2,0.1-0.4,0-0.6c-0.2-0.2-0.4-0.1-0.4-0.1s0-0.5-0.4-0.6c-0.4-0.1-0.5,0.2-0.5,0.2s0-0.4-0.2-0.5&#10;&#9;c-0.2-0.2-0.4-0.1-0.4-0.1s0.2-0.3,0-0.6c-0.2-0.3-0.5-0.3-0.5-0.3s0-0.3-0.3-0.6c-0.3-0.3-0.6-0.2-0.6-0.2s0.2-0.3,0-0.6&#10;&#9;c-0.2-0.3-0.7-0.4-0.7-0.4s0.1-0.3-0.4-0.4c-0.5-0.1-0.7,0.1-0.7,0.1s0-0.4-0.4-0.4c-0.4,0-0.6,0.4-0.6,0.4s0.3-0.4-0.2-0.5&#10;&#9;c-0.2,0-0.4,0-0.5,0.1c0.1-0.1,0.1-0.3,0.1-0.4c-0.2-0.4-0.6-0.1-0.6-0.1s0.2-0.5,0-0.7c-0.2-0.2-0.6,0.1-0.6,0.1s0.3-0.5,0-0.6&#10;&#9;c-0.3-0.1-0.5,0.3-0.5,0.3s-0.1-0.4-0.5-0.4c-0.4,0-0.4,0.5-0.4,0.5s-0.2-0.1-0.5-0.4c-0.1-0.1-0.2-0.1-0.4-0.1c0,0,0,0,0-0.1&#10;&#9;c0-0.2-0.2-0.4-0.2-0.4s0.7,0.2,0.7-0.1c0-0.4-0.2-0.4-0.2-0.4s0.5-0.2,0.4-0.5c-0.2-0.3-0.5-0.3-0.5-0.3s0.8,0,0.7-0.4&#10;&#9;c-0.1-0.4-0.5-0.3-0.5-0.3s0.4,0,0.3-0.5c-0.1-0.4-0.5-0.5-0.5-0.5s0.4-0.4,0-0.8c-0.3-0.3-0.5-0.1-0.5,0c0.1-0.1,0.2-0.4,0-0.5&#10;&#9;c-0.2-0.1-0.5,0.1-0.5,0.1s0-0.3-0.2-0.3c-0.2,0-0.4,0.2-0.4,0.2s-0.1-0.2-0.4-0.1c-0.2,0-0.3,0.2-0.3,0.3c0-0.1,0.1-0.3,0-0.4&#10;&#9;c-0.1-0.1-0.4,0.1-0.4,0.1s0.1-0.3-0.2-0.4c-0.2,0-0.3,0.1-0.4,0.2c0-0.1,0-0.1,0-0.2c-0.1-0.1-0.2-0.1-0.2-0.1s0.3-0.2,0.2-0.5&#10;&#9;c-0.1-0.3-0.4-0.2-0.4-0.2s0.2-0.2,0.2-0.4c0-0.2-0.2-0.2-0.2-0.2s0.2-0.5,0.1-0.6c-0.1-0.1-0.4,0-0.4,0s0.2-0.3-0.1-0.4&#10;&#9;c-0.1,0-0.2,0-0.3,0.1c0.1-0.1,0.2-0.3,0.2-0.4c-0.1-0.1-0.2-0.2-0.2-0.2s0.4-0.1,0.4-0.4c0-0.3-0.4-0.4-0.4-0.4s0.2-0.3,0-0.4&#10;&#9;c-0.2-0.2-0.4,0-0.4,0s0-0.2-0.3-0.2c-0.3,0-0.3,0.2-0.3,0.2s0-0.2-0.3-0.2c-0.2,0-0.3,0.2-0.3,0.2s0.1-0.3-0.2-0.3&#10;&#9;c-0.1,0-0.2,0-0.3,0.1c0-0.1,0.1-0.2-0.1-0.3c-0.2-0.1-0.4,0-0.4,0s0.2-0.2,0-0.4c-0.2-0.1-0.4-0.1-0.4-0.1s0.2-0.1,0-0.4&#10;&#9;c-0.2-0.2-0.3-0.2-0.3-0.2s0.1-0.3,0-0.5c-0.1-0.2-0.4-0.1-0.4-0.1s0.2-0.3,0-0.4c-0.2-0.1-0.4,0-0.4,0s0.1-0.3-0.1-0.4&#10;&#9;c-0.2-0.1-0.5,0.2-0.5,0.2s0.2-0.3-0.1-0.4c-0.3-0.1-0.4,0.2-0.4,0.2s0-0.4-0.3-0.4c-0.3,0-0.3,0.4-0.3,0.4s-0.1-0.2-0.4-0.1&#10;&#9;c-0.3,0.1-0.2,0.4-0.2,0.4s-0.1-0.3-0.4-0.3c-0.2,0-0.3,0.3-0.3,0.3s-0.1-0.4-0.3-0.4c-0.2,0-0.3,0.2-0.3,0.2s-0.1-0.4-0.4-0.4&#10;&#9;c-0.3,0-0.4,0.4-0.4,0.4s0-0.4-0.4-0.2c-0.3,0.1-0.3,0.5-0.3,0.5s-0.1-0.3-0.3-0.2c-0.2,0.1-0.3,0.4-0.3,0.4s0-0.4-0.2-0.4&#10;&#9;c-0.2,0-0.2,0.2-0.2,0.3c0-0.1,0.1-0.4-0.2-0.4c-0.3,0-0.4,0.4-0.4,0.4s-0.1-0.4-0.4-0.4c-0.3,0-0.2,0.3-0.2,0.3s-0.2-0.3-0.4-0.2&#10;&#9;c-0.2,0.1-0.2,0.4-0.2,0.4s-0.3-0.2-0.5-0.1c-0.2,0.2-0.1,0.5-0.1,0.5s-0.1-0.2-0.4-0.1c-0.3,0.1-0.3,0.5-0.3,0.5s0-0.4-0.4-0.4&#10;&#9;c-0.4,0.1-0.4,0.4-0.4,0.4s-0.1-0.3-0.4-0.3c-0.3,0-0.4,0.3-0.4,0.3s0-0.4-0.3-0.4c-0.2,0-0.4,0.2-0.4,0.3c0.1-0.2,0.2-0.6,0-0.6&#10;&#9;c-0.3,0-0.5,0.3-0.5,0.3s0.1-0.4-0.1-0.5c-0.1-0.1-0.4,0-0.5,0.1c0.1-0.1,0.3-0.2,0.3-0.4c0-0.3-0.5-0.1-0.5-0.1s0.5-0.4,0.5-0.7&#10;&#9;c-0.1-0.3-0.3-0.1-0.3-0.1s0.3-0.6,0-0.8c-0.3-0.2-0.5,0-0.5,0s0.2-0.3-0.1-0.6c-0.2-0.3-0.8-0.2-0.8-0.2c0.1,0,0.7-0.1,0.7-0.4&#10;&#9;c0-0.3-0.2-0.4-0.2-0.4s0.7,0.1,0.8-0.3c0.1-0.4-0.2-0.8-0.2-0.8s0.5-0.4,0.4-0.7c-0.1-0.3-0.5-0.5-0.5-0.5s0.2-0.5,0-0.7&#10;&#9;c-0.2-0.2-0.6-0.1-0.6-0.1s0.4-0.6,0-1.1c-0.4-0.5-0.8-0.2-0.8-0.2s-0.1-0.4-0.6-0.4c-0.5-0.1-0.8,0.6-0.8,0.6s0.1-0.4-0.3-0.5&#10;&#9;c-0.4-0.1-0.7,0.3-0.7,0.3s0.5-1.5,0-1.9c-0.5-0.4-1.5,0.3-1.5,0.3s0.2-0.5-0.3-0.7c-0.5-0.2-1,0.3-1,0.3s0.1-0.6-0.2-0.7&#10;&#9;c-0.3-0.1-0.9,0-0.9,0s0.2-0.8-0.2-1.1c-0.5-0.3-1.5,0.5-1.5,0.5s0.1-1-0.1-1.3c-0.3-0.4-1-0.5-1-0.5s0.1-1.3-0.6-1.5&#10;&#9;c-0.7-0.3-1.3,0.6-1.3,0.6s0.2-1-0.3-1c-0.5-0.1-0.9,0.5-0.9,0.5s0.2-1-0.3-1.2c-0.4-0.3-0.7,0.4-0.7,0.4s-0.5-1-1.3-0.8&#10;&#9;c-0.8,0.1-1.2,1.1-1.2,1.1s-0.3-0.7-1-0.4c-0.7,0.3,0,1.3,0,1.3s-0.8-0.8-1.2-0.5c-0.4,0.3-0.3,1.1-0.3,1.1s-0.6-0.6-1-0.6&#10;&#9;c-0.4,0-0.8,0.6-0.8,0.6s0-0.8-0.7-0.9c-0.7-0.1-0.9,0.3-0.9,0.3s0.3-1-0.4-1.2c-0.7-0.2-1,0.5-1,0.5s0.2-0.8-0.4-1.1&#10;&#9;c-0.6-0.2-1,0.3-1,0.3s0.3-0.8-0.7-0.8c-1,0-1,0.6-1,0.6s-0.5-0.7-1.2-0.7c-0.7,0.1-0.9,0.9-0.9,0.9s-0.4-0.5-1.2-0.5&#10;&#9;c-0.7,0-0.7,0.6-0.7,0.7c0-0.1-0.1-0.7-0.8-0.5c-0.8,0.3-0.9,1-0.9,1s0-0.8-0.8-0.7c-0.5,0.1-0.7,0.5-0.8,0.8c0-0.4,0.1-1.3-0.5-1.5&#10;&#9;c-0.7-0.2-0.9,0.9-0.9,0.9s-0.2-1.1-0.7-1.1c-0.6,0.1-0.6,0.9-0.6,0.9s0-1.1-0.6-1.1c-0.6-0.1-0.8,0.4-0.8,0.4s-0.2-0.7-1-0.5&#10;&#9;c-0.7,0.2-0.9,1-0.9,1s0-1.7-1.3-1.1c-1.3,0.6-0.5,1.8-0.5,1.8s-0.6-0.8-0.9-0.5c-0.3,0.3-0.1,1-0.1,1s-0.3-0.7-0.9-0.3&#10;&#9;c-0.6,0.4-0.2,1.1-0.2,1.1s-0.2-0.3-0.7,0c-0.6,0.3-0.4,1.1-0.4,1.1s-0.5-0.8-1.2-0.3c-0.6,0.4-0.6,0.8-0.6,1c0-0.2-0.2-0.7-0.6-0.7&#10;&#9;c-0.6,0-0.7,0.8-0.7,0.8s-0.1-0.5-0.6-0.4c-0.5,0.2-0.6,0.9-0.6,0.9s-0.1-0.7-0.5-0.6c-0.4,0.1-0.6,0.6-0.6,0.6s0-0.5-0.6,0&#10;&#9;c-0.4,0.3-0.5,0.6-0.5,0.9c0-0.2-0.2-0.4-0.4-0.3c-0.5,0.1-0.6,0.3-0.6,0.3s-0.2-0.5-0.7-0.5c-0.5,0.1-0.5,0.6-0.5,0.6&#10;&#9;s-0.1-0.6-0.5-0.6c-0.4,0.1-0.5,0.6-0.5,0.6s-0.1-0.8-0.5-1c-0.4-0.2-0.7,0.6-0.7,0.6s-0.1-0.6-0.5-0.6c-0.5,0-0.7,0.4-0.7,0.4&#10;&#9;s-0.1-0.3-1,0c-0.8,0.3-0.7,1.4-0.7,1.4s-0.7-0.2-1.2,0c-0.5,0.2-0.2,1.1-0.2,1.3c-0.1-0.2-0.3-0.9-0.9-0.5&#10;&#9;c-0.7,0.5,0.1,1.6,0.1,1.6s-0.7-0.1-1,0.7c-0.1,0.5,0.4,0.8,0.8,1c-0.1,0-0.3,0-0.4,0.2c-0.3,0.3-0.2,0.7-0.1,0.9&#10;&#9;c-0.1-0.1-0.2-0.2-0.5,0c-0.1,0.1-0.2,0.2-0.3,0.4c0-0.3-0.1-0.8-0.3-0.8c-0.5-0.1-0.7,0.5-0.7,0.5s-0.3-0.6-0.8-0.4&#10;&#9;c-0.5,0.2-0.5,1.1-0.5,1.1s-0.2-0.7-0.8-0.3c-0.6,0.4-0.2,1.5-0.2,1.5s-0.3-0.5-0.7,0.4c-0.5,0.9,0.4,2,0.4,2s-0.7-0.7-1.3,0&#10;&#9;c-0.6,0.7,0.1,1.3,0.1,1.3s-0.7-0.4-0.9,0.9c-0.2,1.3,0.8,1.5,0.8,1.5c-0.9,0.7,0.3,1.6,0.3,1.6s-0.8-0.4-1.4,0&#10;&#9;c-0.6,0.4-0.2,1.5-0.2,1.5s-0.4-0.3-1.2,0c-0.7,0.3-0.7,1.5-0.7,1.5s-0.1-0.6-0.6-0.5c-0.5,0.1-0.7,0.6-0.7,0.6s-0.2-0.4-0.9-0.3&#10;&#9;c-0.7,0.1-0.8,0.6-0.8,0.6s-0.4-0.6-1.2-0.3c-0.6,0.2-0.6,0.7-0.6,1c-0.1-0.1-0.3-0.3-0.8-0.2c-1,0.1-0.9,0.5-0.9,0.5&#10;&#9;s-0.3-0.4-1.1,0c-0.5,0.2-0.5,0.7-0.5,0.9c-0.1-0.2-0.3-0.3-0.8,0c-0.8,0.4-0.6,1.3-0.6,1.4c-0.1-0.2-0.4-1.3-1.1-0.5&#10;&#9;c-0.7,0.9,0.2,1.4,0.2,1.4s-1.4-0.5-1.1,0.4c0.4,0.9,1.8,0.3,1.8,0.3c-0.7,0.4-0.2,0.8-0.2,0.8c-0.7,1,0.3,1.7,0.3,1.7&#10;&#9;c-0.7,1.1,0.4,1.7,0.4,1.7c-0.5,0.3-0.4,0.8-0.3,1c-0.1-0.1-0.3-0.3-0.8,0.1c-0.7,0.5-0.3,1.4-0.3,1.4s-0.5-1.2-0.9-0.9&#10;&#9;c-0.4,0.3-0.2,1.2-0.2,1.2s-0.5-0.7-1-0.5c-0.5,0.3,0.1,0.8,0.1,0.8s-1.5-0.5-1.9,0c-0.4,0.5,0.4,1.5,0.4,1.5c-1.1,0.1-1,1.4-1,1.4&#10;&#9;c-1.2,1-0.4,2.3-0.4,2.3s-0.6-1-1.1-0.3c-0.4,0.6,0,1.2,0.1,1.4c-0.1-0.1-0.3-0.2-0.6,0.5c-0.4,1,0.5,1.5,0.5,1.5&#10;&#9;c-0.4,0-0.3,0.4-0.3,0.7c-0.1-0.3-0.3-0.8-0.9-0.6c-0.6,0.2-0.7,0.7-0.7,0.8c0-0.1,0.1-0.8-0.6-0.8c-0.8,0-0.7,0.5-0.7,0.5&#10;&#9;s-0.9-0.4-1.3,0c-0.4,0.4,0.1,1.5,0.1,1.5s-1-0.2-1.3,0.7c-0.3,0.8,0.6,1.1,0.6,1.1s-0.8,1.6-0.1,1.9c0.7,0.2,1-0.8,1-0.8&#10;&#9;c0.3,0.6,0.8,0.3,1,0.1c-0.2,0.2-0.5,0.7,0.1,1.2c0.7,0.7,1.3-0.5,1.3-0.5c1.5,1,0.2,1.3,0.2,1.3c-1.4-0.1-1.5,1.3-1.5,1.3&#10;&#9;c-1-0.2-1,1-1,1c-1.3-0.6-1.9,0.6-1.9,0.6c-0.7,0.9,0.3,1.4,0.3,1.4c0.2,1.3,1.3,0.6,1.3,0.6c-0.7,0.5,0.4,1,0.4,1&#10;&#9;c-1.3-0.3-1.1,0.7-1.1,0.7c-1.1,0.5-0.5,1.6-0.5,1.6c-0.5,1.8,0.8,2,0.8,2c-0.2,1.5,1.5,0.9,1.5,0.9c-0.7,1.1,0.6,1.2,0.6,1.2&#10;&#9;c-0.6,1.9,1.5,1.5,1.5,1.5c-0.1,0.9,0.5,1.1,0.9,1.1c-0.2,0.1-0.5,0.3-0.8,0.8c-0.6,1.1,0.2,1.4,0.2,1.4c-1.1,0.7-0.6,1.6-0.6,1.6&#10;&#9;c0.4,0.8,1.2-0.3,1.2-0.3c-0.2,1.1,0.9,0.4,0.9,0.4c-0.7,1.9,0.8,1.8,0.8,1.8c-1,0.7-0.3,1.2-0.3,1.2c-0.7,0.1-1,0.7-1,0.7&#10;&#9;s-1.2-0.9-1.8-0.6c-0.6,0.3-0.3,0.8-0.3,0.8s-1.4,0.1-0.6,1.1c0.8,1,2.3,0.1,2.3,0.1c0.2,1.4,1.6,0.6,1.6,0.6c-1.2,1,0,1.4,0,1.4&#10;&#9;c0,1.4,1.6,0.4,1.6,0.4c1.3,0.4,1.4-1.2,1.4-1.2c1.1,1.1,1.9,0,1.9,0c1.1,0,0.4-1.3,0.4-1.3c1,0.2,1.2-0.6,1.3-0.8&#10;&#9;c-0.5,1.5,1,1.2,1,1.2c-0.9,1.1,1,1.4,1,1.4c0.7,0.7,1.8,0.2,1.8,0.2c0.3,0.7,1.9,0.2,1.9,0.2c1.1,1.1,2.5,0,2.5,0&#10;&#9;c1.6,0.5,2.2-0.6,2.2-0.6c1.1,0.6,1.7-0.3,1.7-0.3c0.3,1.3,2.5,0.4,2.5,0.4c0.8,1.5,2.9,0.3,2.9,0.3c1.4,0.9,2.5,0,2.5,0&#10;&#9;c1.1,1,1.4-0.2,1.4-0.2c0.9,0.2,2-0.3,2-0.3c8.6,4,13.8,0,17.2-0.8c3.3-0.8,4.6,0.4,6,7.3c1.4,6.9-5.2,10.7-5.2,10.7&#10;&#9;c-1.7,0.7,6.6,0.3,7.7,0.2c1.1-0.1,7.4,0.4,8.5,0.3c1.1,0,3.9,0.2,3.3-0.2c-0.6-0.4-1.6-1.8-2-4.1c-0.4-2.3,0.8-4.4,1.6-5.4&#10;&#9;c0.8-1,1.7-3.3,1.6-4.1c-0.1-0.8,0.2-2.3,0.2-2.3c0,0.9,0.7,0.3,0.7,0.3c0,1,1.1,0.2,1.1,0.2c0.5,0.9,1.3-0.1,1.3-0.1&#10;&#9;c0.8,0.6,1.3-0.4,1.3-0.4c0.6,0.5,0.9-0.3,0.9-0.3c0.6,0.7,1.3-0.2,1.3-0.2c0.7,0.6,1.1-0.1,1.1-0.1c-0.2,0.9,1.1,0.4,1.1,0.4&#10;&#9;c-0.2,0.9,0.8,0.5,0.8,0.5c0.6,0.7,1.2-0.2,1.2-0.2c1.1,0.3,1.2-0.7,1.2-0.7c1.1,0.5,1.3-0.9,1.3-0.9c1.2,0.2,1.4-0.8,1.4-0.8&#10;&#9;c1.2,0.3,1.2-0.7,1.2-0.7c1.2-0.2,0.6-1.1,0.6-1.1c0.9,0.2,1-0.7,1-0.7c0.7,0.9,1.6-0.2,1.6-0.2c0.5,0.9,1.6,0.1,1.6,0.1&#10;&#9;c0.2,1,1.7,0.2,1.7,0.2c1,0.8,1.7-0.1,1.7-0.1c0.6,0.6,1.6-0.2,1.6-0.2c1,0.9,2.1-0.1,2.1-0.1c0.8,0.6,1.5-0.5,1.5-0.5&#10;&#9;c0.5,1.2,1.6,0.1,1.6,0.1c0.7,1.1,1.7,0.1,1.7,0.1c0.5,0.5,1.1,0.2,1.3,0c0,0.1-0.1,0.3,0,0.6c0.2,0.7,1,0.4,1,0.4&#10;&#9;c-0.4,0.5-0.1,1.5,0.6,1.4c0.7-0.1,1.6-1.2,1.6-1.2s-0.2,0.6,0.4,0.8c0.7,0.2,1.5-0.9,1.5-0.9s-0.2,0.6,0.4,1&#10;&#9;c0.7,0.4,1.1-0.4,1.1-0.4c0.1,0.9,0.7,0.4,0.7,0.4s-0.3,1,0.4,1.2c0.7,0.2,1.4-0.6,1.4-0.6s-0.5,0.8,0.4,0.7&#10;&#9;c0.8-0.1,1.4-1.1,1.4-1.1c0,0.9,1,0.6,1,0.6c0.5,0.7,1.3,0.3,1.3,0.3s-0.8,0.5-1.3,0.9c-0.5,0.4-0.8,0.9-0.1,1.1&#10;&#9;c0.6,0.2,1.3-0.2,1.3-0.2c0.4,0.8,1.4-0.1,1.4-0.1c0,1.1,0.8,0.5,0.8,0.5c0.2,0.8,0.8,0.4,0.8,0.4c0.6,0.5,1-0.2,1-0.2&#10;&#9;c0.5,0.7,1.2-0.1,1.2-0.1c0.4,0.5,1,0.1,1,0.1c0.5,0.8,1,0.2,1,0.2c0.6,0.8,1.1-0.2,1.1-0.2c0.6,1.2,0.8,0,0.8,0&#10;&#9;c0.5,0.3,0.9-0.2,0.9-0.2c0.6,0.5,1.2,0,1.2,0c0.7,0.4,0.9-0.2,0.9-0.2c0.9,0.1,1-0.5,1-0.5c0.6,0.2,0.6-0.5,0.6-0.5&#10;&#9;c0.7,0.5,1-0.2,1-0.2c0.6-0.1,0.2-0.8,0.2-0.8c0.7-0.1,0.4-0.5,0.4-0.5c1-0.1,0.7-1.1,0.7-1.1c0.3-0.7-0.2-1-0.2-1&#10;&#9;c0.2-0.4-0.1-0.5-0.1-0.5c0.8-0.1,0.6-0.7,0.6-0.7C322.6,295.6,322.2,294.7,322.2,294.7z M249.2,305.9c-0.5-1.8-4-7.8-4-7.8&#10;&#9;c0.6,0.7,1.1,0.3,1.1,0.3c0.4,1,1.4,0.3,1.4,0.3c0.5,0.7,1.1,0,1.1,0c0.5,0.8,1.4,0.4,1.4,0.4C249.6,300.9,249.8,307.6,249.2,305.9z&#10;&#9;" style="fill: rgb(40, 40, 40);" transform="matrix(3.1039229028191, 0, 0, 3.1039229028191, 0, 0.21039229341699944)"/>
<path class="st4" d="M383.6,320.5c0.4-0.2,5.2-1.7,7.3-3.4c2.1-1.8,6-3.7,8.5-4.1c2.5-0.4,7.2-1.7,8.9-1.8c1.7-0.1,2.5-0.8,3.3-1.7&#10;&#9;c0.8-0.9,0.6-1.1,2.1-2.2c1.5-1.1,3.2-2,3.5-4.5c0.3-2.5,0.1-5.1,2-6.4c1.9-1.3,3.5-4.2,2.4-6.6c-1.1-2.4-2.3-1.5-3.5-1.8&#10;&#9;c-1.2-0.2-3.5-1.2-5.3-4.7c-1.8-3.5-5.1-8.9-8.6-8.9c0,0-5.5,4.8-11.5,5.3c-5.9,0.6-23.8,0.7-24.2-9c-0.4-9.7,14.3-12.8,14.3-12.8&#10;&#9;s-6.9-8.4,7.7-13.6c0,0-6-8.4,8.2-17.9c14.2-9.5,22.3-4.9,22.3-4.9s-2.7-9.8,14.4-9.8c17,0,21.5,9,21.5,9s8.9,0.9,10,5.5&#10;&#9;c1.1,4.6-3.2,5.3-3.2,5.3s14.2,1,18.1,6.3c4,5.3,3.2,10.6-0.9,12.5c0,0,14.4,1.3,18,10.6c3.7,9.3-11.3,18.3-22.8,15.5&#10;&#9;c0,0-9.3,6.9-20.5,2.4c0,0-2.1,2.8-4.5,2.8c-2.4,0-4.2,0.3-5.8,2.4c-1.5,2.1-2.8,2.1-2,5.3c0.8,3.2,1.3,4.6-0.7,7.3&#10;&#9;c-2,2.7-3.9,5.1-3.8,8.6c0.1,3.5-1.4,5.6,3,7c4.4,1.3,9.5,2.7,12.3,5c2.8,2.3,5.3,4.2,4.4,4.9c-0.9,0.7-8.5-2.2-10.3-2.7&#10;&#9;c-1.8-0.4-10.7-3.4-12.9-3.2c0,0,3.5,4.1,5.8,6c2.2,1.9,3.5,4,4.5,5.2c1,1.2-0.6,1.7-3.3,0c-2.8-1.7-3.4-1.5-6.2-2.5&#10;&#9;c-2.8-1-8.6-3.9-11.5-4.9c-2.9-1-5.8,1.2-7.6,2.7c-1.9,1.4-6.1,2.3-8.9,2.8c-2.8,0.4-11.6,2.3-12.2,1.5c-0.6-0.8,3.7-1.8,5.6-2.3&#10;&#9;c2-0.6,4.8-3.1,6.6-3.7c1.9-0.6,4.9-2.2,5.2-3c0,0-2.8-0.2-4.9,0.8c-2.1,1-5.5,1.1-6.3-0.3c-0.8-1.4-2.3-0.3-4.9,0.3&#10;&#9;c-2.5,0.7-9.1,2.3-11.9,2.2C382.7,320.8,381.6,321.8,383.6,320.5z" style="fill: rgb(30, 30, 30);" transform="matrix(3.1039228439331055, 0, 0, 3.1039228439331055, -40, 0.21039229631423953)"/>
<path class="st5" d="M14.1,260.4c0.3-1.1,1.4-1.6,2.4-1.5c-0.2-0.4-0.2-0.8-0.1-1.4c0.2-0.9,0.6-1.3,1.2-1.9&#10;&#9;c0.7-0.6,0.3-1.6,0.9-2.3c0.6-0.7,1.3-0.8,2.1-1.1c-0.2-0.4-0.8-0.6-0.6-1.1c0.1-0.4,0.6-0.7,1.1-0.8c-0.2-0.1-0.4-0.2-0.5-0.2&#10;&#9;c-0.6-0.2-1.1-0.1-1.7-0.1c-0.8-0.1-1.6-0.8-1.3-1.6c0.2-0.5,0.5-0.9-0.1-1.4c-0.3-0.2-0.5-0.4-0.6-0.8c-0.1-0.6,0.3-1.8,1-1.8&#10;&#9;c0.4,0,0.7,0.2,1,0.3c0.1,0.1,0.8,0.2,0.8-0.1c0-0.2,0-0.4-0.1-0.6c0-0.9,0.8-1.5,1.6-1.4c0.4,0.1,0.9,0.1,1.3,0.3&#10;&#9;c0.6,0.3,0.6-0.7,1-1c0.5-0.4,1.2-0.4,1.7,0c0.3-1,1.8-1.2,3.1-1c0-0.2,0-0.3-0.1-0.5c-0.1-0.6-0.5-0.7-0.8-1.1&#10;&#9;c-0.6-0.6,0.5-1.1,0.3-1.7c-0.1-0.4-0.5-0.6-0.7-0.9c-0.2-0.3-0.2-0.5-0.2-0.8c0-0.5,0.4-0.8,0.9-0.9c0.3-0.1,0.7-0.1,0.7-0.5&#10;&#9;c0-0.4-0.2-0.8-0.2-1.2c0-0.6,0.2-1.1,0.8-1.2c0.4-0.1,0.7-0.3,0.6-0.8c0-0.1,0-0.2,0.1-0.3c0.5-0.5,1.6-0.2,2.3-0.2&#10;&#9;c-0.3-0.8-0.7-1.6,0.2-2.1c0.2-0.2,0.6-0.1,0.8-0.1c0.2,0,0.4,0.1,0.6,0.1c0.2,0,0.4,0,0.5,0c0-0.1-0.1-0.2-0.1-0.3&#10;&#9;c-0.2-0.4-0.4-1.2,0.1-1.5c0.8-0.4,1.6-0.1,2.4,0c-0.2-0.5-0.2-1.1,0.1-1.6c0.3-0.4,0.8-0.6,1.3-0.7c0.2,0,0.4,0,0.7,0&#10;&#9;c0.9,0,0.4-1,0.3-1.4c0-0.3,0.2-0.8,0.5-0.9c0.2-0.1,0.3-0.1,0.5-0.1c0.8-0.1,0.4-0.8,0.4-1.2c0-0.9,0.9-1.3,1.6-1&#10;&#9;c0-0.4,0-0.9,0.3-1.4c0.3-0.6,1.2-0.9,1.8-0.6c0-0.4,0.1-0.7,0.4-1c0.5-0.6,1.4-0.9,2.1-0.8c0.3,0,0.8,0.1,1.2,0.3&#10;&#9;c0-0.3,0.1-0.7,0.4-1c0.3-0.4,0.7-0.6,1.1-0.7c0.5-0.2,1,0.1,1.5,0.2c-0.1-0.6,0.1-1.1,0.7-1.5c0.5-0.3,1.1-0.5,1.7-0.5&#10;&#9;c0.6,0,1,0.4,1.5,0.5c0,0,0-0.1,0-0.1c0.1-0.5,0.4-1.1,0.9-1.3c0.6-0.2,1.2,0.1,1.6,0.5c0.2,0.2,0.3,0.5,0.4,0.8&#10;&#9;c0.1,0.2,0.1,0.3,0.1,0.5c0.1-0.2,0.3-0.4,0.7-0.6c1.1-0.4,1.7,0.5,2.4,1.1c0.2-0.5,0.6-0.9,1.2-0.9c1-0.1,0.9,0.6,1.4,1.2&#10;&#9;c0.2-0.3,0.4-0.7,0.7-1c0.3-0.3,0.9-0.3,1.3-0.3c0.9,0,1.7,0.7,1.7,1.5c1-0.4,1.8-0.4,2.5,0.4c0.1-0.4,0.4-0.9,0.7-1.1&#10;&#9;c0.3-0.2,0.7-0.3,1.1-0.1c0.3,0.1,0.5,0.4,0.8,0.5c0.3-0.6,0.9-1.1,1.6-1.2c0.5-0.1,0.9,0.1,1.2,0.4c0.5,0.4,0.5,1,0.5,1.6&#10;&#9;c0.8-0.3,1.9-0.2,2.5-0.1c0.4,0.1,0.5,0.7,0.9,0.9c0.4,0.2,0.3-0.3,0.4-0.6c0.3-0.5,0.9-0.8,1.4-0.6c0.5,0.2,0.4,1.4,1.2,0.8&#10;&#9;c0.3-0.2,0.3-0.7,0.6-1c0.4-0.3,0.8-0.3,1.3-0.2c0.5,0.1,1,0.2,1.5,0c0.4-0.3,0.7-0.7,1.1-1c0.7-0.5,1.6,0,2.3,0.3&#10;&#9;c0.1-0.2,0.2-0.4,0.4-0.6c0.4-0.5,0.9-0.5,1.4-0.3c0.6,0.2,1.2,0.5,1.6,0.9c0.7,0.7,1.4-0.6,2-0.9c0.3-0.1,0.6-0.2,0.8-0.1&#10;&#9;c0.5,0.1,0.9,0.4,1.4,0.2c0.2-0.1,0.4-0.4,0.7-0.6c0.3-0.2,0.6-0.3,0.9-0.3c1.1,0,2.2,0.8,2.5,1.8c0.5-0.3,1.1-0.4,1.6-0.2&#10;&#9;c0.3,0.1,0.6,0.3,0.8,0.5c0.2,0.4,0.1,0.8,0.3,1.2c1.9,0,1.5,3,3,3.9c0,0,0,0,0,0c0.4,0.1,0.8,0.2,1.2,0.4c0.8,0.4,0.7,1.2,0.7,2&#10;&#9;c0.2-0.1,0.3-0.1,0.5,0c0.3,0.1,0.3,0.6,0.3,0.9c0.1-0.1,0.1-0.2,0.2-0.3c0-0.1,0.1-0.1,0.2-0.1c1.4,0.1,1.7,1.2,1.7,2.3&#10;&#9;c0.5-0.4,0.9-0.8,1.7-0.3c0.7,0.4,0.7,1,0.5,1.6c0.7-0.1,1.1-0.9,1.9-0.7c0.3,0.1,0.7,0.3,0.8,0.6c0.1,0.3,0.5,1,0.8,0.5&#10;&#9;c0.1-0.2,0.2-0.3,0.3-0.4c0.7-0.8,2,1.1,2.5,0.2c0.3-0.6,1.3-1.2,1.9-0.7c0.2,0.2,1,1.2,1.3,1c0.4-0.2,0.8-0.5,1.3-0.5&#10;&#9;c0.3,0,0.8,0.3,0.9,0.6c0.1,0.1,0.1,0.2,0,0.4c-0.1,0.4,0.5,0.1,0.7-0.1c0.7-0.5,1.4-0.1,1.8,0.6c0.3,0.6,0.7,0.8,1.4,0.6&#10;&#9;c0.5-0.2,0.9-0.2,1.4,0c0.1,0,0.1,0.1,0.1,0.2c0,0.3-0.1,0.5-0.1,0.8c0.7-0.6,1.5-1.2,2.3-0.8c1,0.5,0.6,1.8,1.1,2.6&#10;&#9;c0.2,0.4,0.5,0,0.8-0.1c0.2-0.2,0.5-0.2,0.7-0.1c0.9,0.4,0.6,1.2,0.5,1.9c0.5-0.2,1.1-0.2,1.5,0.1c0.5,0.4,0.2,1,0.1,1.6&#10;&#9;c0.9-0.1,2-0.7,2.4,0.5c0.1,0.2,0,0.7,0.1,0.9c0.3,0.4,1.2,0.2,1.7,0.4c0.7,0.2,0.4,1.5,0.3,2c-0.1,0.8-0.5,1.1-1,1.4&#10;&#9;c1.2,0.4,0.4,1.6-0.3,2.6c0.2,0.1,0.3,0.4,0.4,0.7c0.2,0.5,0.3,1,0.8,1.3c0.4,0.2,1,0.1,1.4,0.2c0.1,0,0.2,0.2,0.1,0.3&#10;&#9;c-0.2,0.3-0.2,0.5-0.2,0.8c0.2-0.2,0.5-0.2,0.9-0.1c0.3,0.1,0.5,0.1,0.7,0.2c0.4,0.3,0.8-0.2,1.2-0.3c0.8-0.1,1.5,0,1.8,0.7&#10;&#9;c1-0.1,1.3,0.9,1,1.7c0.8,0,1.6-0.1,2.2,0.6c0.6,0.8,0.1,1.2-0.3,1.9c0.8,0.2,2.1,0,1.8,1.2c-0.1,0.6-0.7,1.7-1.3,2.1&#10;&#9;c0.5,0.3,1.1,0.3,1.2,1c0,0.3-0.1,0.5-0.2,0.8c-0.3,0.5-0.4,0.9-0.4,1.5c0.1,0.9-0.9,1.9,0.2,2.4c0.5,0.2,0.7,0.5,0.6,1&#10;&#9;c-0.1,0.6-0.7,0.6-1.2,0.5c-0.3-0.1-1,0.1-0.6,0.5c0.2,0.2,0.4,0.3,0.6,0.4c0.4,0.2,0.7,0.4,1,0.7c0.1,0.1,0.1,0.3,0.1,0.4&#10;&#9;c-0.1,0.4-0.1,0.3,0.2,0.7c0.1,0.1,0.1,0.2,0,0.3c-0.4,0.2-0.7,0.2-1.1,0.2c0,0.1,0,0.2,0,0.3c0.8,0.4,3.1,0.9,2.2,2.1&#10;&#9;c-0.2,0.3-0.5,0.5-0.9,0.5c-0.8,0.1-0.6,1-0.8,1.5c-0.2,0.6-0.6,0.7-1.1,0.5c0.1,0.4,0.1,0.9-0.2,1.1c-0.4,0.2-0.7,0.1-0.8,0.6&#10;&#9;c-0.1,0.3-0.1,0.6-0.1,0.9c0,0.4,0,0.7-0.3,1c-0.1,0.1-0.3,0.2-0.4,0.2c0.3,0.5,0.7,1.2,0.2,1.7c-0.5,0.5-1.2-0.5-1.7,0.1&#10;&#9;c-0.4,0.5-0.3,1.2-0.7,1.7c-0.2,0.3-0.6,0.3-0.9,0.2c-0.2,0.3-0.2,0.7-0.4,1c-0.2,0.3-0.6,0.3-0.9,0.3c-0.4,0-1.1-0.4-1.4,0&#10;&#9;c-0.2,0.3-0.4,0.4-0.7,0.4c-1.2,0.1-0.6,1.2-0.3,1.9c0.3,0.6-0.2,0.8-0.8,0.9c-0.6,0.1-1.3,0-1.8,0.4c-0.2,0.2-0.2,0.7-0.5,0.8&#10;&#9;c-0.5,0.3-0.8,0-1.1-0.3c-0.7,0.5-1.3,0.4-1.9-0.2c-0.2,0.7-0.7,1.2-1,1.8c-0.4,0.7-0.1,1.5-0.7,2c-0.4,0.4-0.7,0.3-1-0.1&#10;&#9;c-0.4-0.4-0.9-0.4-1.5-0.4c-0.4,0-0.7-0.1-1.1-0.3c-0.1,0.1-0.1,0.2-0.2,0.2c-0.4,0.3-0.8,0.1-1.1-0.2c-0.3,0.4-0.6,0.7-1,1.1&#10;&#9;c-0.3,0.3-0.2,0.7-0.4,1c-0.2,0.3-0.7,0.3-0.9,0.2c-0.3-0.1-0.6-0.4-0.7-0.7c0,0,0,0,0,0c0,0,0,0,0,0c-0.4,0.1-0.6,0.5-1.1,0.4&#10;&#9;c-0.4-0.1-0.7-0.4-1.2-0.5c-0.7-0.2-1.6,0.4-2.3,0.1c-0.4,0.6-0.6,1.3-1.4,1.6c-0.7,0.3-1.4-0.1-2-0.4c-1.2-0.6-2.5-0.7-3.8-1&#10;&#9;c-1.3-0.2-2.5-0.8-3.8-1c-0.3,0.2-0.6,0.4-0.9,0.7c-0.6,0.6-0.9,1.5-1.1,2.3c-0.3,1.4-0.5,2.6-1.4,3.8c-1.4,1.8-3.8,1.2-5.7,0.8&#10;&#9;c-1.2-0.2-2.7-0.5-3.8,0.1c-0.6,0.4-1,0.7-1.7,0.7c-0.4,0-0.8-0.1-1.1-0.2c-0.4,0-0.8,0-1.3,0c-1.7,0.1-3.6,0.8-4.6,2.3&#10;&#9;c-0.1,0.2-0.3,0.4-0.4,0.5c-0.3,1.9-0.7,3.8-0.5,5.8c0.1,1.1,0.6,2.1,1.2,3c0.5,0.9,0.9,1.9,1.6,2.6c0.5,0.6,1.4,0.9,2,1.5&#10;&#9;c0.8,0.7,1.2,1.7,1.9,2.4c0.6,0.6,0.9,1.2,1.3,1.9c0.4,0.7,1.6,0.7,2.4,0.7c1,0,2-0.2,3.1-0.2c1,0,2,0.2,2.9,0.6&#10;&#9;c1.3,0.5,2.5,1,3.8,1.4c1.2,0.4,2.4,0.8,3.6,1.3c0.9,0.4,2,1,2.5,1.8c0.1,0.1,0.2,0.3,0.2,0.5c0.1-0.1,0.3,0,0.2,0.2&#10;&#9;c-0.1,0.5-0.7,0.6-1.1,0.7c-1,0.1-2-0.1-3-0.2c-1.2-0.2-2.4-0.4-3.5-0.6c-0.8-0.1-1.6-0.3-2.4-0.2c-0.7,0.1-1.3,0.6-2,0.7&#10;&#9;c-1.1,0.1-2.3,0-3.4-0.1c-2-0.1-3.9-0.8-5.8-1.1c-0.7-0.1-1.3-0.2-2-0.2c-0.6,0-0.9,0.5-0.6,1c0.2,0.4,0.7,0.7,1.1,0.9&#10;&#9;c1.7,1,3.5,1.7,5.2,2.7c0.9,0.5,1.7,1.1,2.4,1.7c0.5,0.4,1.3,1.2,1,2c-0.4,1-1.6,0.7-2.4,0.3c-0.6-0.3-1.2-0.7-1.8-1&#10;&#9;c-1-0.5-2.1-0.9-3.1-1.3c-1-0.4-1.9-0.7-2.9-1c-1.1-0.3-2,0.1-3.1,0.2c-1.7,0.2-3.4-0.6-4.7-1.5c-1.5-1-2.4-2.5-4.1-3.1c0,0,0,0,0,0&#10;&#9;c0,0,0,0,0,0c-2.1,0.3-4.1,0.7-6.1,1.1c-2,0.4-4.1,0-6-0.3c-2.2-0.3-4.4-0.5-6.5,0c-1.6,0.3-3,1.3-4.6,0.5c-0.8-0.4-1.4-1.1-2.3-1.3&#10;&#9;c-0.8-0.2-1.5,0.1-2.3,0.2c-0.8,0.1-1.5,0.3-2.3,0.4c-0.8,0.1-1.7,0.3-2.5,0c-0.6-0.2-0.1-0.8,0.2-1.1c0.1-0.1,0.2,0,0.3,0.1&#10;&#9;c0.4-0.3,0.8-0.6,1.3-0.8c0.9-0.4,1.8-0.6,2.8-0.9c0.8-0.2,1.7-0.1,2.4-0.6c0.6-0.4,1-0.8,1.7-0.9c1.3-0.2,2.7,0.3,4,0.7&#10;&#9;c0.7,0.2,1.4,0.4,2.1,0.4c0.9,0,1.7-0.7,2.3-1.3c0.5-0.5,1-1.1,1.6-1.5c0.6-0.5,1.4-0.8,1.9-1.4c1.3-1.3,1-3.3,0.9-5&#10;&#9;c-0.1-1.7-0.1-3.5-0.1-5.2c0-1.8,0.2-3.6,0.8-5.3c-0.9-0.5-1.5-1.2-1.9-2.1c-0.6-1.2-0.8-2.5-1.7-3.5c-1.5-1.7-3.6-1.3-5.5-0.9&#10;&#9;c-1.7,0.3-3.3,0.1-4.9-0.6c-1.8-0.8-3.2-2.3-5.3-2.4c-1.8-0.1-3.8,0.1-5.3-1.1c-1-0.8-1.5-1.9-2-3.1c0,0,0,0,0,0&#10;&#9;c-0.8,0.3-1.7,0.4-2.4-0.2c-0.2-0.2-0.3-0.4-0.4-0.6c-1.3,1.3-3.5-0.4-3.7-2c-1.2-0.2-2.1-1-2.1-2.1c-0.8-0.1-1-0.7-1.2-1.5&#10;&#9;c-0.1-0.5-0.2-1.1-0.8-1.2c-0.4-0.1-0.7-0.3-1-0.5c-0.7-0.6-0.2-2-1.2-2.3c-0.5-0.2-1,0-1.5,0c-0.4,0-0.8-0.2-1.1-0.4&#10;&#9;c-0.8,1-1.7,0.6-2.2-0.3c-0.3,0.1-0.7,0.2-1.1,0.2c-0.4-0.1-1-0.3-1.2-0.7c-0.2-0.3-0.2-0.8-0.3-1.2c-1.2,0.7-3.2,0.3-2.4-1.4&#10;&#9;c0.2-0.3,0.1-0.8-0.4-0.7c-0.2,0-0.4,0.1-0.6,0.1c-0.3,0-0.7,0-0.9-0.3c-0.7-0.8-0.4-1.4-0.1-2.2c-0.8-0.3-1.5-0.8-2-1.5&#10;&#9;c-0.6-0.9,0.4-1.7,0.6-2.5C14.9,262.3,13.7,261.8,14.1,260.4z" style="fill: rgb(48, 48, 48);" transform="matrix(3.1039229028191, 0, 0, 3.1039229028191, 0, 0.21039229341699944)"/>
<path class="st4" d="M139.6,105.5c-0.2,0-0.4,0-0.6,0c-0.1-0.9-0.9-1.6-1.9-1.5c-0.4,0-0.7,0.1-1,0.4c-0.1-0.2-0.3-0.3-0.4-0.4&#10;&#9;c0.7-0.4,1.2-1,0.9-1.9c-0.1-0.3-0.4-0.6-0.7-0.8c0.1-0.2,0-0.4-0.1-0.6c-0.1-0.2-0.2-0.3-0.4-0.4c0.2-0.3,0.2-0.8,0-1.2&#10;&#9;c1.1,0,2.2-0.5,2.3-1.7c0.5,0.1,1.1,0.1,1.6-0.3c0.4-0.3,0.7-0.8,0.6-1.3c0-0.3-0.1-0.7-0.4-0.9c0.2-0.2,0.3-0.4,0.3-0.7&#10;&#9;c0-0.5-0.5-0.9-0.9-1.2c-0.3-0.2-0.7-0.3-1-0.3c0-0.7-0.3-1.3-1-1.6c0.2-0.3,0.4-0.7,0.3-1.1c-0.1-0.5-0.5-0.9-1-1&#10;&#9;c-0.4-0.1-0.8-0.2-1.1-0.1c0,0,0,0,0,0c-0.2-0.2-0.4-0.4-0.7-0.4c0.1-0.2,0.2-0.4,0.3-0.6c0.1-0.3,0-0.6-0.1-0.8&#10;&#9;c0.7-0.2,1.3-0.7,1.2-1.5c0.4-0.1,0.7-0.3,0.9-0.7c0.3-0.5,0.1-1.1-0.2-1.6c-0.4-0.5-0.9-0.8-1.5-0.9c-0.2,0-0.4,0-0.6,0.1&#10;&#9;c-0.1-0.4-0.5-0.8-0.9-1c0.8-0.6,1.3-1.4,0.6-2.3c-0.3-0.4-0.8-0.6-1.3-0.6c0.2-0.3,0.3-0.7,0.3-1.1c-0.1-0.5-0.4-0.9-0.9-1.1&#10;&#9;c-0.2-0.1-0.3-0.1-0.5-0.1c0-0.3,0-0.7-0.2-1c-0.3-0.4-0.8-0.6-1.3-0.7c-0.6-0.1-1.1,0.2-1.4,0.6c-0.1-0.2-0.4-0.4-0.7-0.4&#10;&#9;c-0.5,0-0.9,0.3-1.3,0.6c0,0-0.1,0.1-0.1,0.1c-0.6,0-1.1,0.2-1.6,0.6c-0.1-0.2-0.2-0.4-0.3-0.5c0.3-0.1,0.5-0.3,0.7-0.5&#10;&#9;c0.2-0.3,0.3-0.7,0.2-1.1c0.7-0.4,1.3-1,1.4-1.8c0,0,0,0,0,0c0.4-0.2,0.7-0.6,0.8-1c0.1-0.7-0.2-1.3-0.7-1.8c0,0-0.1-0.1-0.1-0.1&#10;&#9;c0.3-0.2,0.6-0.4,0.8-0.8c0.2-0.5-0.1-1-0.5-1.4c-0.4-0.3-0.9-0.6-1.4-0.6c0,0,0,0,0,0c0-0.8-0.8-1.3-1.6-1.2c0,0-0.1,0-0.1,0&#10;&#9;c0-0.3,0-0.6-0.1-0.8c1-0.5,1.7-1.5,1.5-2.7c-0.1-0.5-0.5-1-0.9-1.1c-0.3-0.1-0.6-0.1-0.9,0c0.2-0.9-0.4-1.6-1.4-1.7&#10;&#9;c-0.8-0.1-1.7,0.1-2.3,0.7c0-0.4-0.2-0.7-0.5-1c0.6-0.6,1.1-1.4,0.8-2.3c-0.3-0.7-0.9-1-1.4-0.8c0-0.3,0-0.5-0.2-0.8&#10;&#9;c-0.3-0.4-0.7-0.6-1.2-0.6c-0.4,0-0.9,0.1-1.2,0.5c-0.1,0.2-0.2,0.4-0.2,0.6c-0.3,0-0.5,0.2-0.8,0.4c-0.4,0.4-0.6,0.9-0.4,1.4&#10;&#9;c-0.2,0.1-0.3,0.2-0.4,0.4c-0.2-0.2-0.5-0.4-0.8-0.5c0.4-0.7,0.2-1.5-0.5-1.9c-0.3-0.2-0.6-0.3-0.9-0.3c-0.3-0.8-1.2-1-2.1-0.8&#10;&#9;c0.1-0.7-0.2-1.4-0.9-1.8c-0.5-0.3-1-0.3-1.4-0.1c0-0.6-0.5-1.1-1.2-1.3c-0.2-0.1-0.5-0.1-0.8-0.1c0.2-0.6,0.2-1.3-0.4-1.8&#10;&#9;c-0.6-0.4-1.2-0.2-1.6,0.2c-0.1-0.2-0.2-0.4-0.3-0.6c-0.2-0.2-0.4-0.3-0.7-0.4c0.2-0.3,0.4-0.6,0.4-1c0-0.5-0.4-1-0.9-1.2&#10;&#9;c-0.4-0.2-0.9-0.3-1.4-0.1c0,0,0-0.1,0-0.1c-0.2-0.5-0.9-0.6-1.4-0.7c-0.1,0-0.2,0-0.3,0c0-0.7-0.5-1.4-1.2-1.8&#10;&#9;c-0.5-0.3-1.2-0.3-1.7,0.1c-0.1,0.1-0.2,0.2-0.3,0.3c-0.5-0.9-1.5-1.3-2.5-1c0.1-0.3,0.1-0.6,0-1c-0.2-0.6-0.7-1.1-1.3-1.3&#10;&#9;c-0.4-0.2-1-0.2-1.4,0.1c-0.1-0.4-0.3-0.7-0.7-0.9c-0.4-0.3-1.1-0.4-1.6-0.2c-0.3,0.1-0.6,0.3-0.8,0.5c-0.1-0.4-0.3-0.8-0.6-1.1&#10;&#9;c-0.4-0.3-1.1-0.3-1.6-0.2c-0.3,0.1-0.5,0.2-0.7,0.4c-0.5-0.6-1.3-1-2.1-0.4c-0.1,0.1-0.3,0.2-0.4,0.4c-0.7-0.5-1.9-0.2-2.6,0.3&#10;&#9;c-0.3,0.2-0.6,0.5-0.8,0.9C79,38.9,77.7,39,77,39.4c-0.3,0.2-0.5,0.4-0.7,0.6c-0.7-0.6-1.8-0.3-2.4,0.4c-0.2,0.2-0.4,0.5-0.5,0.9&#10;&#9;c-0.7-0.3-1.4-0.1-1.9,0.5c-0.1,0.2-0.2,0.4-0.2,0.6c-0.5-0.1-1.2,0.1-1.6,0.5c0,0-0.1,0.1-0.1,0.1c-0.6-0.7-1.7-0.7-2.5-0.1&#10;&#9;c-0.2,0.1-0.3,0.3-0.4,0.4c-0.1-0.4-0.4-0.8-0.8-1c-0.5-0.3-1.2-0.3-1.8,0c-0.5,0.2-1,0.6-1.1,1.2c-0.1,0.4,0.2,0.8,0.4,1&#10;&#9;c-0.2,0.2-0.3,0.5-0.4,0.7c-0.2,0.5-0.1,0.9,0.1,1.3c-0.6,0.1-1.2,0.5-1.6,1c-0.5-0.6-1.3-0.9-2.1-0.4c-0.1,0.1-0.3,0.2-0.4,0.3&#10;&#9;c-0.6-0.8-1.6-1.1-2.5-0.5c-0.8,0.5-1,1.4-0.7,2.2c-0.1,0.1-0.2,0.1-0.3,0.2c-0.8-1-2.1-1.7-3.2-0.8c-0.2,0.2-0.4,0.4-0.5,0.7&#10;&#9;c-0.6-0.2-1.2-0.1-1.7,0.3c-0.7-0.8-1.8-0.8-2.6,0c-0.8,0.8-0.8,2,0.1,2.7c-0.1,0.1-0.2,0.2-0.3,0.3c-0.2,0.3-0.3,0.7-0.3,1.1&#10;&#9;c-0.6-0.6-1.8-0.2-2.4,0.3c-0.4,0.3-0.5,0.8-0.3,1.3c0.2,0.4,0.6,0.6,1.1,0.8c-0.1,0.2-0.2,0.5-0.2,0.8c0,0.1,0,0.2,0,0.3&#10;&#9;c-0.6,0-1.1,0.3-1.5,0.9c-0.3,0.4-0.3,1-0.1,1.4c0.2,0.4,0.6,0.7,1,0.8c-0.1,0.2-0.2,0.4-0.3,0.7c0,0.1,0,0.1,0,0.2&#10;&#9;c-0.6-0.1-1.2,0.1-1.6,0.7c-0.2,0.4-0.3,0.8-0.1,1.2c0.1,0.1,0.1,0.2,0.2,0.3c-0.2,0.2-0.3,0.4-0.4,0.6c0,0,0,0,0,0&#10;&#9;c-0.4-0.2-0.8-0.2-1.2-0.1c0.2-0.4,0.2-0.9-0.1-1.3c-0.3-0.4-0.7-0.5-1.1-0.5c-0.3,0-0.7,0.1-1,0.3c-0.1-0.4-0.2-0.8-0.7-1&#10;&#9;c-0.5-0.2-1-0.1-1.4,0.2c-0.4,0.3-0.8,0.7-0.8,1.2c-0.5,0.2-0.9,0.6-1.2,1.1c-0.2,0.4-0.3,1,0,1.4c0.1,0.2,0.3,0.3,0.4,0.4&#10;&#9;c-0.1,0.1-0.1,0.3-0.2,0.5c-0.2,0.9,0.2,1.5,0.9,1.7c-0.1,0.1-0.1,0.2-0.1,0.4c-0.7-0.7-1.8-0.7-2.7-0.3c-0.7-0.9-2.1-1.1-3.1-0.4&#10;&#9;c-0.5,0.3-0.9,0.8-0.9,1.3c0,0.5,0.2,0.9,0.5,1.2c-0.4,0.2-0.7,0.7-0.7,1.2c0.1,1,1,1.4,1.9,1.5c0,0,0,0,0,0&#10;&#9;c-0.2,0.9,0.5,1.4,1.2,1.6c-0.2,0.2-0.2,0.5-0.2,0.8c-0.6-0.1-1.2,0-1.7,0.4c-0.7-0.8-2-0.6-2.8,0c-0.3,0.2-0.5,0.5-0.6,0.9&#10;&#9;c-0.3-0.1-0.6-0.1-1,0c-0.4,0.2-0.7,0.5-0.7,0.9c-0.3-0.1-0.6-0.1-0.9,0c-0.6,0.2-1.1,0.7-1.4,1.3c-0.2,0.6-0.2,1.2,0.1,1.8&#10;&#9;c0.5,0.7,1.5,0.8,2.3,0.7c0,0,0,0,0,0c0,0,0,0,0,0c0,1,0.8,1.5,1.7,1.6c-0.2,0.5-0.2,1,0.1,1.4c0.4,0.8,1.3,0.9,2,0.6&#10;&#9;c0,0,0,0.1,0,0.1c0.4,0.6,1.1,0.9,1.9,1c0,0.1,0,0.2,0.1,0.3c0.3,1.1,1.5,1.4,2.5,1.2c0.1,0.4,0.3,0.7,0.6,0.9&#10;&#9;c-0.2,0.3-0.4,0.6-0.5,1c-0.8-0.4-1.8-0.9-2.5-0.4c-0.3-0.4-0.7-0.8-1.3-0.9c-0.5-0.1-1.1,0.1-1.5,0.5c0,0-0.1,0.1-0.1,0.1&#10;&#9;c-0.2-0.4-0.4-0.6-0.9-0.8c-0.6-0.2-1.3-0.1-1.8,0.2c-0.5,0.3-0.9,0.8-0.9,1.4c0.1,0.8,0.8,1.4,1.5,1.7c-0.1,0.2-0.2,0.4-0.2,0.5&#10;&#9;c-0.1,0.4,0,0.8,0.2,1.1c-0.7,0.9-0.7,2.5,0.7,2.8c0.1,0,0.2,0,0.3,0c0,0.3,0,0.6,0.1,0.9c0.5,1.1,1.7,1.2,2.8,0.8&#10;&#9;c0.1,0.1,0.1,0.1,0.2,0.2c0.6,0.4,1.6,0.5,2.3,0.2c0.1,0.1,0.1,0.2,0.2,0.2c0.5,0.5,1.1,0.7,1.8,0.6c0,0.1,0,0.2,0,0.3&#10;&#9;c0,0,0,0.1,0,0.1c-1-0.3-2.1-0.2-2.6,0.8c0,0,0,0.1,0,0.1c-0.5-0.7-1.5-0.6-2.2-0.1c-0.3,0.2-0.5,0.5-0.6,0.8c-0.1,0-0.2,0-0.3,0&#10;&#9;c-0.6,0.1-1.1,0.5-1.6,0.9c-0.2,0.2-0.4,0.4-0.5,0.6c-0.3-0.1-0.6-0.2-0.8-0.2c-0.6,0-1.3,0.2-1.7,0.7c-0.3,0.4-0.4,0.9-0.2,1.4&#10;&#9;c-0.4,0.2-0.7,0.7-0.8,1.2c-0.1,0.5,0.2,0.9,0.5,1.2c0.5,0.4,1.4,0.3,2,0.2c0.1,0.2,0.2,0.5,0.5,0.6c0.9,0.6,2,0,2.5-0.8&#10;&#9;c0-0.1,0.1-0.2,0.1-0.2c0.3,0.1,0.7,0.1,1-0.1c0.3-0.1,0.5-0.2,0.6-0.4c0.5,0.4,1.4,0.3,2,0c0.2-0.1,0.4-0.3,0.6-0.4&#10;&#9;c0.9,0.9,2.4,1,3.2-0.1c0.3,0.6,0.9,1.1,1.7,0.9c0.3-0.1,0.5-0.2,0.8-0.3c0,0,0,0,0,0c0.2,0.3,0.4,0.5,0.7,0.6c0,0.1,0,0.2-0.1,0.4&#10;&#9;c0,0,0,0.1,0,0.1c-0.5,0-1,0.3-1.3,0.6c-0.1,0.1-0.2,0.2-0.3,0.3c-0.3-0.2-0.6-0.4-1-0.4c-0.5,0-1.1,0.2-1.5,0.6&#10;&#9;c-0.1,0.1-0.2,0.2-0.3,0.4c-0.9-0.2-1.8,0.3-2.2,1.1c-0.2,0.4-0.2,0.9,0,1.3c-0.6,0.3-1.1,0.8-1.2,1.4c-0.1,0.4,0.1,0.8,0.5,1.1&#10;&#9;c0.3,0.2,0.6,0.2,0.9,0.2c-0.2,0.4-0.3,1,0,1.5c0.2,0.3,0.5,0.5,0.8,0.6c-0.1,0.2-0.1,0.4-0.1,0.5c0,0.5,0.2,0.9,0.6,1.2&#10;&#9;c0.4,0.2,0.8,0.2,1.3,0c0.1,0.6,0.3,1.1,0.8,1.4c0.5,0.4,1.1,0.2,1.6-0.1c0,0.2,0.1,0.4,0.3,0.6c0.4,0.5,1.1,0.5,1.6,0.4&#10;&#9;c0.4-0.1,0.7-0.2,1-0.4c0.4,0.4,1,0.2,1.5-0.2c0.4-0.4,0.7-1,0.8-1.5c0.2,0,0.5,0,0.8-0.1c0.6-0.3,1.2-0.9,1.6-1.6&#10;&#9;c0.1,0.1,0.1,0.1,0.2,0.2c0.3,0.2,0.5,0.3,0.8,0.3c-0.1,0.3,0,0.7,0.2,0.9c-0.5,0.3-0.9,0.8-1.1,1.3c-0.1,0.3-0.1,0.5,0.1,0.7&#10;&#9;c-0.5,0.2-0.9,0.9-1.1,1.4c-0.1,0.5,0,1,0.3,1.3c0.3,0.3,0.8,0.3,1.2,0.3c-0.2,0.8-0.2,1.6,0.4,2.3c0.5,0.6,1.3,0.6,1.9,0.3h0&#10;&#9;c0.8,0.6,1.8,0.7,2.5-0.2c0.4-0.5,0.5-1.2,0.4-1.8c0.4-0.1,0.7-0.3,1-0.7c0.3-0.5,0.3-1.1,0.2-1.7c0.8,0,1.3-0.5,1.6-1.2&#10;&#9;c0.6,0,1.3-0.1,1.8-0.6c0.1-0.1,0.1-0.1,0.2-0.2c0.9,0.6,2.1,0.3,2.7-0.6c0,0,0,0,0-0.1c0.5,0.4,1.1,0.4,1.7,0.2&#10;&#9;c0.4,0.8,1.1,1.4,1.9,1.6c1.2,0.3,1.9-0.6,2.2-1.6c0-0.1,0-0.2-0.1-0.3c0.6-0.1,1.2,0.1,1.7,0.3c0.7,0.2,1.4,0.2,2.1,0.3&#10;&#9;c2.2,0.2,3.7,0.6,5,2.4c2,2.8,2.5,7,1.5,10.3c-1.1,3.4-3.8,5.9-7.1,7.2c-2.7,1.1-5.7,1.5-8.5,2.4c-0.4,0.1-0.3,0.6-0.1,0.7&#10;&#9;c0,0.1,0.1,0.1,0.2,0.2c1.5,0.7,3.2,0.3,4.7,0c2.8-0.6,5-1,7.7,0.2c1.8,0.8,3.1,1.5,5.1,0.9c1.2-0.3,2.3-1,3.5-1.4&#10;&#9;c0.3-0.1,0.6-0.2,1-0.3c0,0,0,0,0,0c0.1,0.1,0.3,0.1,0.4,0c1.5-0.8,3.7,0.6,5.3,0.8c2.3,0.2,4.7-0.2,7.1-0.2c0,0,0,0,0.1,0&#10;&#9;c0.5,0,1-0.2,1.5-0.4c1.3-0.6,2.7-0.5,4.1-0.6c1.1-0.1,2.3-0.1,3.4-0.5c0.5-0.2,0.9-0.9,0.3-1.2c-0.7-0.4-1.6-0.4-2.4-0.3&#10;&#9;c-1.9-0.2-3.8-0.4-5.6-0.6c-1.8-0.3-3.7-0.5-5.2-1.5c-1.6-1-2.8-2.6-3.5-4.3c-0.6-1.6-0.6-3.7-0.8-5.5c-0.2-2.1-0.1-3.9,1-5.8&#10;&#9;c0.9-1.5,1.9-3.1,3.3-4.1c1.2-0.9,2.9-0.8,4.3-0.8c0.2,0,0.3,0,0.5,0c0.1,0.2,0.2,0.5,0.4,0.6c0.4,0.4,0.9,0.5,1.4,0.5&#10;&#9;c0,0.5,0.4,0.8,0.8,1c0.6,0.2,1.4,0.1,1.9-0.2c0.3,0.4,1,0.7,1.4,0.8c0.5,0.1,1.1,0,1.5-0.3c0.1-0.1,0.1-0.1,0.2-0.2&#10;&#9;c0.3,0.2,0.7,0.3,1.1,0.3c0,0.4,0.1,0.8,0.5,1.1c0.6,0.5,1.5,0.3,2.1,0c0.1,0.1,0.2,0.2,0.3,0.3c0.3,0.2,0.6,0.3,0.9,0.3&#10;&#9;c-0.1,0.5,0.3,1,0.7,1.3c0.8,0.6,1.7,0.6,2.4,0.1c0.1,0.2,0.2,0.3,0.4,0.4c0.6,0.3,1.3,0.1,1.9-0.2c0.6-0.3,1.1-0.8,1.2-1.5&#10;&#9;c0-0.2,0-0.3-0.1-0.5c0.5-0.1,0.9-0.5,1.1-1.1c0.3,0.1,0.6,0.1,0.8,0c0.4-0.1,0.7-0.2,1-0.4c0.1,0.3,0.2,0.5,0.5,0.7&#10;&#9;c0.4,0.3,0.8,0.4,1.1,0.3c-0.1,0.4,0.1,0.7,0.4,1c0.3,0.3,0.8,0.3,1.2,0.3c0,0.3,0,0.5,0.2,0.8c0.3,0.6,0.9,0.8,1.5,0.7&#10;&#9;c0,0.4,0.2,0.8,0.4,1.1c0.4,0.4,1.1,0.5,1.7,0.4c0,0.4,0.1,0.7,0.4,0.9c0.5,0.3,1.2,0.1,1.7-0.1c0.6-0.2,1.1-0.7,1.3-1.2&#10;&#9;c0.2-0.5,0-0.9-0.3-1.2c0.6-0.3,0.9-1,0.8-1.7c0.9-0.2,1.7-0.9,1.7-2c0-0.4-0.1-0.8-0.4-1c0.1-1-0.6-1.7-1.6-1.7&#10;&#9;c-0.1,0-0.3,0-0.4,0.1c-0.4-0.8-1.6-1.2-2.4-0.9c-0.3-0.5-1-0.8-1.6-0.8c-0.4,0-0.9,0-1.2,0.2c-0.1-0.2-0.3-0.4-0.6-0.5&#10;&#9;c-0.4-0.2-1-0.1-1.4,0.1c-0.2,0.1-0.3,0.2-0.4,0.3c-0.5-0.7-1.4-0.8-2.2-0.6c0-0.3,0-0.6-0.3-0.9c0.4,0,0.8,0,1.1-0.3h0&#10;&#9;c0.5,1,1.9,0.5,2.8-0.2c0.5,1.2,2.2,0.8,3.1-0.1c0.3,0.6,1,0.8,1.6,0.6c0,0.2,0.2,0.5,0.4,0.7c0.6,0.5,1.5,0.4,2.3,0.2&#10;&#9;c0.1,0.2,0.3,0.3,0.6,0.4c0.6,0.2,1.3,0,1.8-0.3c0.1,0,0.1,0.1,0.2,0.1c0.6,0.3,1.2,0.1,1.7-0.3c0.3-0.2,0.7-0.5,0.9-0.9&#10;&#9;c0.2,0.2,0.4,0.4,0.8,0.4c0.5,0,0.9-0.3,1.2-0.7c0.1-0.1,0.2-0.2,0.3-0.4c0.9,0.4,2,0.1,2.4-0.9c0.1-0.3,0.2-0.7,0.1-1&#10;&#9;c0.3-0.1,0.6-0.4,0.9-0.6c0.5-0.4,0.9-1,0.9-1.7C140.6,106,140.1,105.6,139.6,105.5z M139.1,95.3C139.1,95.3,139.1,95.3,139.1,95.3&#10;&#9;C139.1,95.3,139.1,95.3,139.1,95.3L139.1,95.3z M139.1,94.2C139.1,94.2,139.1,94.3,139.1,94.2C139.1,94.3,139.1,94.2,139.1,94.2&#10;&#9;L139.1,94.2z M138.8,93.7C138.8,93.7,138.8,93.7,138.8,93.7C138.8,93.7,138.8,93.7,138.8,93.7C138.8,93.7,138.8,93.7,138.8,93.7z&#10;&#9; M125,74.1C125,74.1,125,74.1,125,74.1C125,74.1,125,74.1,125,74.1L125,74.1z M128.3,75.6L128.3,75.6&#10;&#9;C128.3,75.6,128.3,75.6,128.3,75.6C128.3,75.6,128.3,75.6,128.3,75.6z M76.7,109.3c-0.3-0.3-0.7-0.6-1-0.7c0.3-0.3,0.7-0.7,1-0.9&#10;&#9;C76.7,108.2,76.7,108.8,76.7,109.3z M68.2,114.6C68.2,114.6,68.2,114.6,68.2,114.6c-0.1,0.3,0,0.5,0.3,0.6c0.7,0.2,1.4,0.6,2,1&#10;&#9;c0.1,0.1,0.2,0.1,0.3,0.2c-0.3-0.1-0.7-0.1-1-0.2c-1.1-0.3-2-0.7-3-1.1C67.2,114.9,67.7,114.7,68.2,114.6z M73.3,113.9&#10;&#9;c0.3,0.1,0.5,0.1,0.8,0c0.7-0.1,1-0.7,1-1.4c0,0,0,0,0,0c0.2,0,0.4-0.1,0.6-0.2c0.8,1.7,0.6,4,0.5,6.1c-0.3-0.4-0.7-0.8-1-1.2&#10;&#9;c-0.8-0.8-1.9-1.4-2.8-2.1C72.8,114.9,73.1,114.5,73.3,113.9z M85,111.6c0.7-1.5,1.6-2.9,2.3-4.4c0.5,0.3,1,0.6,1.4,1&#10;&#9;C87.6,109.5,86.3,110.5,85,111.6z M83.3,109.1c0-1.1,0.1-2.2,0.1-3.2v0c0.6-0.3,1.3-0.5,1.9-0.1c0.2,0.1,0.3,0.2,0.5,0.3&#10;&#9;C85,107.2,84,108,83.3,109.1z M84.7,118c0-0.4,0-0.8,0.1-1.2c0,0,0-0.1,0-0.1c0.2-0.4,0.4-0.7,0.7-1c1.3-2,3-3.8,4.3-5.8&#10;&#9;c0,0,0.1,0,0.1-0.1c0.2,0.4,0.7,0.5,1.2,0.5c0.4,0,0.8-0.1,1.2-0.2c0.3,0.8,1.5,0.7,2.3,0.2c0.3,0.3,0.7,0.5,1.1,0.5&#10;&#9;c-1.6,1.1-3.5,1.7-5.2,2.6c-1.2,0.6-2.2,1.5-3.2,2.3C86.3,116.5,85.5,117.2,84.7,118z M98.9,111.7c0.1,0.4,0.3,0.7,0.8,0.8&#10;&#9;c0,0.1,0,0.1,0,0.2c-1.6,0.2-3.3,0.4-4.9,0.4c1-0.4,2-0.6,2.7-1.5c0.2,0.2,0.5,0.2,0.9,0.2C98.6,111.8,98.8,111.8,98.9,111.7z&#10;&#9; M100.6,45.8C100.6,45.8,100.6,45.8,100.6,45.8L100.6,45.8L100.6,45.8z M56.1,50.4C56.1,50.4,56.1,50.4,56.1,50.4&#10;&#9;C56.1,50.4,56.1,50.4,56.1,50.4C56.1,50.4,56.1,50.4,56.1,50.4z M56.1,50.4C56.1,50.4,56.1,50.4,56.1,50.4L56.1,50.4L56.1,50.4&#10;&#9;C56.1,50.4,56.1,50.4,56.1,50.4C56.1,50.4,56.1,50.4,56.1,50.4C56.1,50.4,56.1,50.4,56.1,50.4z M129.3,117&#10;&#9;C129.3,117,129.3,117,129.3,117C129.3,117,129.3,117,129.3,117L129.3,117z" style="fill: rgb(30, 30, 30);" transform="matrix(3.1039229028191, 0, 0, 3.1039229028191, 0, 0.21039229341699944)"/>
<path class="st5" d="M323.3,96.6c-0.1-0.1-0.3-0.1-0.4-0.1c0-0.2,0-0.3-0.1-0.5c-0.1-0.2-0.3-0.4-0.5-0.4c0-0.1,0-0.1,0-0.2&#10;&#9;c0-0.4-0.3-0.6-0.6-0.7c0,0,0.1-0.1,0.1-0.1c0.1-0.3,0-0.5-0.2-0.7c0.1-0.1,0.2-0.2,0.2-0.4c0-0.3-0.1-0.6-0.4-0.7&#10;&#9;c0.1-0.1,0.1-0.3,0.1-0.4c-0.1-0.2-0.3-0.3-0.5-0.3c0.1-0.1,0.1-0.2,0.1-0.4c0-0.2-0.2-0.4-0.4-0.5c-0.2-0.1-0.5-0.1-0.7,0&#10;&#9;c0-0.1-0.1-0.2-0.1-0.4c-0.1-0.1-0.2-0.3-0.4-0.3c0-0.1,0-0.3-0.1-0.4c-0.1-0.2-0.2-0.2-0.4-0.2c0.1-0.4,0-0.8-0.4-1&#10;&#9;c-0.3-0.1-0.7,0-1,0.3c-0.1-0.2-0.3-0.3-0.6-0.2c-0.3,0.1-0.6,0.3-0.8,0.6c0-0.1-0.1-0.1-0.1-0.1c-0.1-0.1-0.2-0.1-0.3-0.1&#10;&#9;c-0.1-0.4-0.4-0.6-0.8-0.7c-0.4,0-0.8,0.4-1,0.7c-0.1,0-0.1,0-0.2,0c-0.1,0-0.3,0-0.4,0.1c0-0.1-0.1-0.1-0.1-0.1&#10;&#9;c-0.2-0.2-0.5-0.2-0.7-0.1c-0.1-0.2-0.2-0.3-0.5-0.3c-0.2,0-0.4,0-0.6,0.1c0-0.4-0.2-0.7-0.5-0.7c0,0,0,0,0,0&#10;&#9;c-0.1-0.2-0.2-0.3-0.4-0.4c0.1-0.1,0.1-0.2,0.1-0.4c0-0.1-0.1-0.2-0.2-0.3c0.1-0.2,0.2-0.4,0.3-0.6c0.1-0.4-0.1-0.6-0.4-0.8&#10;&#9;c0.1-0.1,0.2-0.3,0.2-0.4c0.1-0.3,0.1-0.5-0.1-0.7c0.1-0.2,0.2-0.4,0.1-0.6c0-0.1-0.1-0.2-0.1-0.2c0.5-0.3,0.6-1.2,0-1.4&#10;&#9;c0.2-0.2,0.3-0.6,0.1-0.8c0.3-0.2,0.5-0.6,0.4-1c0.6-0.1,1.3-0.5,1.1-1.1c0.3,0,0.7-0.1,0.8-0.4c0.2-0.5-0.3-0.9-0.7-1&#10;&#9;c0.1-0.4,0-0.8-0.3-1.1c-0.3-0.2-0.7-0.1-1,0.1c0,0,0-0.1,0-0.1c-0.1-0.2-0.3-0.3-0.6-0.3c0-0.2-0.1-0.4-0.2-0.5&#10;&#9;c-0.2-0.1-0.4-0.2-0.6-0.1c0,0,0-0.1,0-0.1c-0.1-0.3-0.4-0.5-0.8-0.4c0-0.3-0.1-0.6-0.4-0.7c-0.2-0.1-0.4,0-0.6,0.1&#10;&#9;c0-0.1-0.1-0.2-0.1-0.3c-0.1-0.3-0.4-0.3-0.6-0.3c0.1-0.5,0-1-0.4-1.1c0,0,0-0.1,0-0.1c0.1-0.2,0.1-0.4,0-0.5&#10;&#9;c0.5-0.2,0.9-0.5,0.6-0.9c0.2-0.1,0.3-0.2,0.3-0.4c0.1-0.3-0.1-0.6-0.4-0.7c0.3-0.4-0.2-1-0.6-1.1c0.1-0.2,0.1-0.5,0.1-0.8&#10;&#9;c-0.1-0.2-0.2-0.4-0.4-0.4c0-0.4-0.1-0.9-0.6-0.9c-0.3,0-0.6,0.1-0.8,0.3c0-0.4-0.2-0.7-0.6-0.9c0.2-0.4,0.2-0.9-0.2-1.1&#10;&#9;c0.2-0.4,0-1-0.4-1.1c0.1-0.1,0.2-0.2,0.2-0.3c0.1-0.2,0.1-0.4-0.1-0.6c0.1-0.1,0.2-0.2,0.3-0.3c0.2-0.3,0.1-0.6-0.2-0.8&#10;&#9;c0.1-0.1,0.1-0.2,0.1-0.3c0-0.2-0.2-0.4-0.4-0.4c-0.2-0.1-0.4-0.2-0.6-0.2c-0.1,0-0.1,0-0.2,0.1c-0.1-0.1-0.3-0.2-0.5-0.1&#10;&#9;c-0.5,0.1-0.6,0.4-0.6,0.8c-0.1-0.1-0.2-0.1-0.3-0.2c0.1-0.2,0-0.4-0.1-0.6c-0.2-0.2-0.4-0.3-0.7-0.3c0-0.1,0-0.1,0-0.2&#10;&#9;c0-0.2-0.2-0.4-0.4-0.6c0.2-0.1,0.3-0.2,0.4-0.3c0.2-0.3-0.1-0.8-0.5-1c0.1-0.5-0.3-1-0.8-0.9c0-0.1,0-0.2-0.1-0.4&#10;&#9;c-0.1-0.1-0.1-0.2-0.3-0.2c0.1-0.1,0.2-0.2,0.3-0.3c0.2-0.3,0.1-0.5,0-0.8c0.1-0.1,0.2-0.2,0.3-0.3c0.1-0.3-0.1-0.7-0.4-0.8&#10;&#9;c0.1-0.1,0.1-0.1,0.1-0.2c0.1-0.2,0-0.5-0.2-0.7c0.3-0.4,0.1-1.1-0.3-1.3c-0.5-0.4-1.2,0.2-1.5,0.7c-0.1-0.1-0.3-0.2-0.5-0.2&#10;&#9;c0-0.1,0-0.3-0.1-0.4c-0.1-0.2-0.2-0.3-0.4-0.3c0-0.3-0.1-0.5-0.3-0.7c-0.3-0.3-0.7-0.1-1,0.1c-0.1-0.1-0.2-0.3-0.4-0.3&#10;&#9;c-0.4-0.1-0.7,0.1-0.9,0.4c-0.1-0.1-0.2-0.2-0.4-0.3c0.1-0.1,0.1-0.3,0-0.4c-0.1-0.1-0.3-0.2-0.4-0.2c0,0,0-0.1,0-0.1&#10;&#9;c0-0.2-0.2-0.3-0.4-0.3c0.1-0.2,0.2-0.3,0.1-0.6c0-0.2-0.2-0.4-0.3-0.5c0.1-0.1,0.1-0.3,0.1-0.5c0-0.1-0.1-0.2-0.1-0.3&#10;&#9;c0,0,0.1-0.1,0.1-0.1c0-0.2-0.1-0.4-0.2-0.5c-0.1-0.2-0.3-0.3-0.5-0.3c-0.1,0-0.3,0-0.4,0.1c-0.1-0.3-0.3-0.6-0.6-0.7&#10;&#9;c-0.4-0.1-0.7,0-0.9,0.3c-0.2-0.2-0.6-0.2-0.9,0c-0.1-0.2-0.3-0.4-0.5-0.4c-0.4,0-0.5,0.3-0.6,0.6c-0.1-0.1-0.2-0.1-0.4-0.1&#10;&#9;c0-0.2,0-0.5-0.1-0.7c-0.1-0.2-0.3-0.2-0.5-0.2c-0.2-0.7-1.1-1-1.6-0.4c-0.1-0.1-0.3-0.2-0.4-0.2c-0.3,0-0.4,0.2-0.6,0.4&#10;&#9;c-0.1-0.1-0.2-0.1-0.3-0.2c-0.3-0.1-0.7,0.1-0.9,0.4c-0.1-0.1-0.2-0.1-0.4-0.1c-0.2,0-0.4,0.2-0.5,0.3c-0.1-0.1-0.3-0.2-0.5-0.1&#10;&#9;c-0.1,0.1-0.3,0.2-0.3,0.3c0,0,0,0,0-0.1c-0.2-0.2-0.4-0.2-0.5-0.1c-0.1-0.2-0.2-0.3-0.4-0.4c-0.3-0.1-0.6,0-0.9,0.2&#10;&#9;c-0.2-0.2-0.5-0.3-0.9-0.2c-0.4,0.1-0.5,0.5-0.4,0.8c-0.5,0.2-0.8,0.8-0.7,1.3c-0.1,0-0.1,0-0.2,0c-0.1-0.2-0.3-0.4-0.6-0.3&#10;&#9;c-0.2,0-0.4,0.2-0.5,0.4c-0.1-0.1-0.2-0.2-0.4-0.3c-0.2-0.1-0.4,0-0.6,0.1c-0.1-0.2-0.2-0.4-0.5-0.5c-0.3-0.1-0.5-0.1-0.7,0.1&#10;&#9;c0-0.1-0.1-0.2-0.2-0.3c-0.2-0.2-0.6-0.2-0.9-0.1c0-0.2-0.1-0.4-0.3-0.5c-0.3-0.2-0.6-0.2-0.9,0c0-0.1,0-0.3-0.1-0.4&#10;&#9;c-0.1-0.1-0.2-0.2-0.3-0.2c0.1-0.1,0.1-0.2,0.1-0.4c0-0.1,0-0.1-0.1-0.2c0.1-0.1,0.2-0.1,0.2-0.2c0.1-0.2,0.1-0.5,0-0.7&#10;&#9;c-0.2-0.4-0.6-0.6-1-0.4c0-0.2-0.1-0.4-0.3-0.6c-0.2-0.2-0.4-0.3-0.7-0.3c0-0.2,0-0.4-0.2-0.6c-0.2-0.2-0.5-0.3-0.8-0.3&#10;&#9;c0-0.3-0.3-0.6-0.7-0.6c0.2-0.3,0.2-0.6,0-0.9c-0.2-0.3-0.6-0.4-0.9-0.3c0.1-0.1,0.1-0.3,0.1-0.5c0-0.3-0.3-0.5-0.5-0.6&#10;&#9;c0.1-0.2,0.2-0.4,0.1-0.6c0-0.2-0.2-0.4-0.4-0.5c0.2-0.3,0.2-0.6-0.1-0.8c-0.2-0.2-0.4-0.2-0.6-0.2c0-0.3-0.3-0.6-0.7-0.6&#10;&#9;c-0.4-0.1-0.9,0.1-1.1,0.4c0,0-0.1,0-0.1-0.1c-0.2-0.1-0.4,0-0.5,0.1c-0.2,0.1-0.4,0.4-0.3,0.7c-0.2,0-0.4,0.1-0.5,0.2&#10;&#9;c-0.1-0.3-0.3-0.5-0.7-0.7c-0.3-0.1-0.6,0-0.8,0.2c-0.1-0.3-0.4-0.5-0.8-0.5c-0.2,0-0.5,0.1-0.7,0.2c-0.2-0.2-0.5-0.2-0.7-0.1&#10;&#9;c0-0.2-0.1-0.4-0.3-0.6c-0.1-0.1-0.2-0.1-0.3-0.2c-0.1-0.7-0.8-1.2-1.4-0.9c0-0.2,0-0.3-0.2-0.4c-0.1-0.1-0.3-0.2-0.5-0.1&#10;&#9;c0-0.3-0.1-0.7-0.4-0.8c-0.4-0.2-0.8,0-1.2,0.3c-0.1-0.2-0.3-0.3-0.5-0.4c-0.2-0.1-0.4,0-0.5,0.1c-0.2-0.2-0.4-0.3-0.7-0.2&#10;&#9;c-0.2,0.1-0.5,0.3-0.6,0.5c-0.2-0.1-0.4,0-0.5,0.1c-0.1-0.3-0.2-0.5-0.4-0.6c0,0,0,0,0,0c0.1-0.3,0-0.6-0.4-0.7c-0.1,0-0.2,0-0.3,0&#10;&#9;c-0.1-0.3-0.3-0.7-0.6-0.8c-0.3-0.1-0.6,0-0.9,0.2c-0.3,0.2-0.6,0.7-0.6,1.1c-0.1,0-0.3,0-0.4,0.1c-0.4,0.2-0.6,0.6-0.7,1.1&#10;&#9;c-0.1-0.1-0.3-0.1-0.5-0.1c-0.3,0.1-0.5,0.4-0.5,0.7c-0.3-0.1-0.6-0.1-0.8,0c-0.7-0.7-1.8,0.9-0.9,1.5c0,0.1,0,0.2-0.1,0.2&#10;&#9;c0,0.2,0.1,0.3,0.2,0.4c-0.1,0.1-0.2,0.2-0.3,0.4c-0.4-0.2-0.9,0-1.1,0.4c-0.1-0.1-0.3-0.1-0.5,0c0-0.5-0.3-1-0.9-1&#10;&#9;c-0.7,0-1,0.6-1.3,1.1c-0.3-0.4-0.9-0.5-1.1,0c-0.1-0.5-0.5-0.8-1-0.6c-0.4,0.1-0.7,0.5-0.8,0.9c-0.2-0.2-0.5-0.3-0.8-0.2&#10;&#9;c0-0.1-0.1-0.3-0.2-0.4c-0.1-0.1-0.2-0.2-0.3-0.2c0-0.3-0.2-0.6-0.5-0.8c-0.1-0.1-0.3,0-0.4,0c0,0,0,0,0,0c-0.1-0.4-0.3-1.1-0.9-1.1&#10;&#9;c-0.5,0-1,0.4-1.2,0.9c-0.1,0-0.1,0-0.2,0c-0.2,0-0.4,0.1-0.6,0.2c-0.2-0.2-0.5-0.3-0.9-0.2c-0.2,0.1-0.4,0.2-0.4,0.4&#10;&#9;c-0.2-0.1-0.4-0.1-0.6,0c-0.2-0.5-0.8-0.8-1.2-0.4c-0.3,0.3-0.3,0.8,0,1.2c0,0,0,0-0.1,0c-0.1,0.1-0.3,0.2-0.3,0.3&#10;&#9;c-0.3-0.3-0.9-0.1-1,0.3c-0.4-0.1-0.8,0.1-0.9,0.5c-0.2,0.4,0,0.7,0.4,0.9c0,0,0,0.1,0,0.1c-0.5-0.2-1.2,0.3-1.1,0.8c0,0,0,0,0,0&#10;&#9;c-0.2,0-0.3,0.1-0.4,0.2c-0.2-0.1-0.4-0.2-0.6-0.1c-0.3,0.1-0.4,0.5-0.4,0.8c-0.1,0-0.1,0-0.2,0c-0.1,0-0.3,0-0.4,0.1&#10;&#9;c-0.2-0.1-0.4-0.2-0.6-0.1c-0.2,0.1-0.4,0.2-0.5,0.4c-0.1,0-0.2-0.1-0.3-0.1c-0.2,0-0.4,0.1-0.5,0.2c-0.2-0.4-0.9-0.3-1,0.1&#10;&#9;c-0.2-0.1-0.4-0.1-0.6,0.1c-0.1,0.1-0.2,0.2-0.3,0.4c-0.4-0.1-0.8,0-1,0.4c-0.2,0.3,0.1,0.9,0.4,1.1c-0.1,0.1-0.2,0.2-0.2,0.4&#10;&#9;c-0.2,0.1-0.3,0.3-0.4,0.5c-0.2,0-0.4,0-0.5,0.3c-0.1,0.3,0.1,0.5,0.3,0.7c-0.1,0.1-0.1,0.2-0.2,0.4c-0.2-0.2-0.4-0.2-0.6-0.1&#10;&#9;c-0.2,0.1-0.4,0.4-0.4,0.6c0,0.1,0,0.2,0,0.3c-0.2-0.1-0.4,0-0.6,0.2c-0.2-0.2-0.5-0.4-0.8-0.2c0,0,0,0,0,0&#10;&#9;c-0.2-0.1-0.5,0.1-0.6,0.3c-0.1,0.3,0,0.7,0.3,0.8c0,0,0,0,0,0c0,0.1,0,0.2,0,0.2c0,0.3,0.3,0.5,0.5,0.6c-0.1,0.3-0.1,0.7,0,1&#10;&#9;c0,0-0.1,0-0.1,0c-0.2-0.3-0.6-0.7-1-0.4c-0.2,0.2-0.3,0.6-0.2,0.9c-0.3,0.1-0.5,0.2-0.6,0.5c-0.1,0.3,0.1,0.7,0.4,0.8c0,0,0,0,0,0&#10;&#9;c0,0,0,0,0,0.1c0,0.3,0.2,0.6,0.5,0.7c0,0,0,0,0,0c0,0.2,0.1,0.4,0.3,0.5c-0.2,0.3-0.3,0.7-0.1,1c0,0,0,0,0,0&#10;&#9;c-0.3,0.1-0.4,0.4-0.4,0.7c0,0.3,0.2,0.5,0.4,0.7c0.1,0.1,0.2,0.2,0.3,0.2c-0.2,0.4-0.2,0.8,0.4,1c0,0.2,0.1,0.3,0.2,0.4&#10;&#9;c-0.1,0.1-0.1,0.3-0.2,0.4c-0.1-0.1-0.2-0.2-0.3-0.3c-0.2-0.1-0.4-0.2-0.6-0.1c-0.1-0.2-0.1-0.3-0.3-0.5c-0.2-0.3-0.6-0.3-0.8-0.1&#10;&#9;c0-0.1-0.1-0.1-0.1-0.2c-0.2-0.3-0.5-0.2-0.8,0c-0.1-0.3-0.4-0.5-0.7-0.5c0-0.2,0-0.4-0.2-0.6c-0.2-0.2-0.6-0.5-0.9-0.3&#10;&#9;c-0.1-0.2-0.3-0.4-0.6-0.4c-0.3,0-0.8,0.2-1,0.5c-0.1-0.1-0.1-0.1-0.2-0.2c-0.5-0.2-1,0.3-1.1,0.7c-0.1-0.1-0.2-0.1-0.3-0.1&#10;&#9;c-0.3,0-0.5,0.3-0.6,0.5c-0.3,0-0.5,0.2-0.6,0.5c-0.1,0.2,0,0.4,0.1,0.6c-0.3,0.2-0.6,0.5-0.6,0.8c-0.2-0.2-0.4-0.2-0.7-0.1&#10;&#9;c0-0.2-0.1-0.3-0.3-0.4c-0.2-0.2-0.5-0.1-0.8,0c-0.1-0.1-0.1-0.1-0.2-0.1c-0.2-0.1-0.5,0-0.7,0.1c-0.1-0.1-0.2-0.2-0.4-0.2&#10;&#9;c-0.3,0-0.5,0.3-0.6,0.5c-0.1,0.3-0.1,0.6,0.1,0.8c0,0.1,0.1,0.1,0.1,0.2c0,0.1-0.1,0.1-0.1,0.2c-0.1,0.4,0.2,0.6,0.6,0.6&#10;&#9;c0.1,0.2,0.3,0.4,0.5,0.5c0,0,0.1,0,0.1,0c0,0.3,0.3,0.5,0.6,0.5c0,0.1,0.1,0.2,0.2,0.3c-0.1,0.1-0.1,0.2-0.2,0.3c0,0.1,0,0.2,0,0.3&#10;&#9;c-0.1,0-0.3,0.1-0.4,0.2c0,0-0.1-0.1-0.1-0.1c-0.1-0.1-0.2-0.1-0.3,0c-0.1,0-0.1,0-0.2,0.1c0-0.1-0.1-0.2-0.1-0.2&#10;&#9;c-0.2-0.2-0.4-0.1-0.5,0c-0.1,0.1-0.3,0.3-0.4,0.4c-0.1-0.1-0.3-0.2-0.5-0.2c-0.3,0-0.4,0.2-0.5,0.5c-0.1-0.1-0.2-0.1-0.3-0.1&#10;&#9;c-0.1,0-0.2,0-0.2,0.1c0-0.2,0-0.5-0.2-0.6c-0.2-0.1-0.4,0-0.5,0.1c0,0-0.1,0.1-0.1,0.1c0-0.1-0.1-0.2-0.1-0.3&#10;&#9;c-0.2-0.2-0.4-0.2-0.6-0.1c0-0.1-0.1-0.3-0.2-0.3c-0.1-0.1-0.3-0.1-0.4,0c-0.2-0.2-0.4-0.5-0.7-0.3c-0.2,0.1-0.3,0.4-0.3,0.6&#10;&#9;c0,0-0.1,0-0.2,0c-0.1,0.1-0.2,0.2-0.2,0.3c-0.2,0-0.3,0-0.5,0c-0.1,0.1-0.2,0.2-0.3,0.3c-0.1,0.3,0.1,0.5,0.3,0.6&#10;&#9;c-0.1,0.1-0.1,0.3-0.1,0.4c0,0.2,0.2,0.3,0.3,0.3c-0.2,0.1-0.3,0.3-0.4,0.5c-0.1,0.2-0.1,0.4,0,0.5c0.1,0.1,0.4,0.1,0.5,0.1&#10;&#9;c0.1,0.2,0.3,0.3,0.5,0.3c0,0,0,0,0,0c0,0.1,0.1,0.3,0.3,0.3c-0.2,0.1-0.3,0.3-0.4,0.4c-0.2-0.2-0.5-0.2-0.7-0.1&#10;&#9;c-0.1,0.1-0.2,0.2-0.3,0.3c-0.3-0.1-0.6-0.1-0.8,0.2c-0.3,0.3-0.2,0.7,0,1.1c-0.1,0-0.1,0-0.2,0c-0.1-0.3-0.3-0.5-0.7-0.3&#10;&#9;c-0.3,0.2-0.4,0.4-0.4,0.8c-0.4-0.1-0.8,0-1.1,0.3c-0.3,0.4,0.2,0.8,0.6,1c0,0,0,0.1,0,0.2c0,0.3,0.2,0.5,0.5,0.6c0,0,0,0.1,0,0.1&#10;&#9;c0,0.1,0,0.2,0.1,0.3c-0.1,0-0.2,0.1-0.3,0.1c-0.2,0.2-0.1,0.4,0.1,0.6c-0.1,0-0.2,0.1-0.3,0.1c-0.4-0.2-0.8-0.1-1,0.3&#10;&#9;c-0.1,0.2-0.1,0.3,0,0.5c0,0.1,0.1,0.2,0.2,0.2c-0.1,0.1-0.1,0.2-0.1,0.4c0,0.4,0.3,0.6,0.6,0.6c0,0.3,0.3,0.5,0.6,0.5&#10;&#9;c0,0.1,0,0.1,0,0.2c0,0.1,0.1,0.3,0.2,0.4c-0.1,0.1-0.2,0.2-0.3,0.3c0,0,0,0.1,0,0.1c-0.1,0-0.3,0.1-0.4,0.2&#10;&#9;c-0.2,0.2-0.2,0.5-0.2,0.8c0,0-0.1,0-0.1,0c0-0.3-0.1-0.5-0.4-0.6c-0.2-0.1-0.5,0-0.7,0.1c-0.1-0.2-0.2-0.4-0.4-0.5&#10;&#9;c-0.2-0.1-0.3,0-0.4,0.1c-0.1-0.2-0.2-0.4-0.4-0.5c-0.3-0.1-0.6,0.1-0.8,0.3c-0.2-0.2-0.5-0.4-0.7-0.2c0-0.1-0.1-0.2-0.2-0.2&#10;&#9;c-0.1-0.1-0.3,0-0.4,0.1c-0.1,0-0.1,0.1-0.2,0.2c-0.3-0.2-0.7,0-0.9,0.3c-0.1,0.2-0.1,0.4,0,0.6c0.1,0.2,0.2,0.2,0.4,0.3&#10;&#9;c-0.1,0.1-0.1,0.3-0.1,0.4c0,0.2,0.1,0.3,0.3,0.3c-0.2,0.1-0.3,0.3-0.3,0.6c0,0,0,0.1,0,0.1c-0.1-0.1-0.2-0.1-0.3-0.1&#10;&#9;c-0.2,0-0.3,0.2-0.4,0.4c-0.1,0.2-0.1,0.6,0.1,0.8c-0.1,0-0.1,0.1-0.2,0.2c-0.2-0.1-0.3-0.2-0.5-0.2c-0.2,0-0.3,0.2-0.4,0.4&#10;&#9;c0,0.2,0,0.4,0.1,0.6c-0.1,0-0.1,0.1-0.2,0.2c0,0,0,0,0,0c-0.1-0.1-0.2-0.1-0.3-0.1c-0.1-0.3-0.2-0.6-0.5-0.6&#10;&#9;c-0.3,0-0.6,0.1-0.7,0.4c-0.2-0.1-0.3-0.2-0.5,0c-0.4,0.3-0.3,0.7-0.2,1.1c-0.1,0-0.1,0-0.2,0.1c-0.1-0.2-0.3-0.4-0.5-0.5&#10;&#9;c-0.1-0.1-0.2,0-0.3,0c-0.1-0.2-0.3-0.3-0.6-0.3c-0.1,0-0.2,0.1-0.3,0.2c-0.4-0.4-1-0.3-1.3,0.2c-0.1,0.2-0.1,0.5,0,0.7&#10;&#9;c0.1,0.2,0.4,0.3,0.7,0.4c0,0.1,0,0.2,0,0.2c0,0.3,0.2,0.4,0.4,0.4c0,0,0,0.1-0.1,0.1c-0.1-0.1-0.2-0.1-0.4,0&#10;&#9;c-0.2,0.1-0.3,0.2-0.4,0.4c0,0-0.1,0-0.1,0c-0.2,0-0.3,0.1-0.5,0.2c-0.1,0.1-0.1,0.2-0.2,0.3c0,0-0.1,0-0.1,0&#10;&#9;c-0.2,0-0.4,0.1-0.5,0.2c-0.1,0.1-0.3,0.3-0.2,0.5c0,0,0,0.1,0.1,0.1c0,0-0.1,0-0.1,0c-0.2,0.1-0.4,0.3-0.4,0.5&#10;&#9;c0,0.2,0.2,0.3,0.3,0.4c0.1,0,0.2,0,0.3,0c-0.1,0.1-0.1,0.3,0,0.5c0.1,0.1,0.1,0.2,0.2,0.3c-0.3,0.1-0.5,0.3-0.5,0.6&#10;&#9;c0,0.4,0.4,0.6,0.7,0.7c-0.1,0.1-0.2,0.2-0.2,0.3c-0.3-0.1-0.6,0-0.7,0.4c-0.1,0.3,0.1,0.5,0.3,0.6c-0.3,0.1-0.5,0.3-0.6,0.7&#10;&#9;c0,0.2,0.1,0.4,0.2,0.5c0.2,0.1,0.4,0.1,0.6,0.1c0,0,0.1,0.1,0.1,0.1c0.1,0.1,0.2,0.1,0.3,0.2c0,0.1-0.1,0.2-0.1,0.2&#10;&#9;c0,0.3,0.2,0.5,0.4,0.6c0,0,0,0,0,0c-0.1,0.1-0.1,0.3,0,0.5c0.2,0.3,0.7,0.3,1.1,0.1c0.1,0.1,0.1,0.1,0.2,0.2c0.3,0.1,0.8,0,1-0.3&#10;&#9;c0.1,0.1,0.1,0.2,0.3,0.3c0.3,0.2,0.6,0.1,0.8-0.1c0.2,0.2,0.5,0.3,0.8,0.2c0,0,0,0.1,0,0.1c-0.1,0-0.2,0-0.3,0&#10;&#9;c-0.2,0.1-0.4,0.3-0.5,0.5c-0.1,0-0.1,0-0.2-0.1c-0.2,0-0.3,0-0.4,0.2c-0.2-0.2-0.3-0.3-0.6-0.2c0,0-0.1,0-0.2,0.1&#10;&#9;c-0.1-0.2-0.3-0.4-0.6-0.3c-0.2,0.1-0.3,0.2-0.4,0.3c0,0-0.1,0.1-0.1,0.2c-0.3,0-0.6,0.2-0.7,0.5c-0.1,0.2-0.1,0.4,0,0.6&#10;&#9;c0.1,0.1,0.3,0.2,0.5,0.2c0,0.1,0,0.2,0,0.3c0.1,0.3,0.3,0.4,0.6,0.5c0,0.1,0,0.1,0,0.2c0,0.1,0.1,0.1,0.1,0.2&#10;&#9;c-0.3,0-0.7,0.2-0.7,0.6c0,0,0,0,0,0c-0.1,0-0.3,0.1-0.4,0.2c0,0,0,0,0,0.1c-0.4-0.1-1,0.1-1.1,0.6c-0.1,0.2,0,0.4,0.2,0.5&#10;&#9;c-0.3,0.1-0.5,0.4-0.5,0.7c0,0.2,0.1,0.4,0.3,0.5c0.2,0.1,0.4,0.1,0.6,0.1c0,0.2,0.1,0.4,0.2,0.6c0.2,0.2,0.5,0.1,0.7,0&#10;&#9;c0,0,0.1,0.1,0.1,0.1c0.1,0.1,0.2,0.1,0.3,0.1c-0.1,0.2-0.1,0.4,0,0.6c0.1,0.3,0.5,0.4,0.9,0.4c-0.1,0.1-0.1,0.3-0.1,0.5&#10;&#9;c0,0.3,0.3,0.4,0.6,0.4c0,0.1,0,0.2,0,0.3c-0.5-0.1-1.1-0.2-1.4,0.3c-0.2,0.4,0,0.7,0.4,0.9c-0.2,0.2-0.3,0.4-0.3,0.7&#10;&#9;c0.1,0.3,0.5,0.4,0.8,0.3c0,0.1,0.1,0.2,0.2,0.3c0.2,0.2,0.5,0.2,0.7,0.1c0.1,0.2,0.3,0.4,0.6,0.4c0.2,0,0.4-0.1,0.5-0.2&#10;&#9;c0,0.1,0.1,0.2,0.2,0.3c0.3,0.2,0.7,0.1,1,0c0,0,0,0,0,0c0.1,0.1,0.2,0.1,0.3,0.2c0.3,0.1,0.5-0.1,0.7-0.3c0,0,0.1,0.1,0.1,0.1&#10;&#9;c-0.2,0.2-0.3,0.4-0.3,0.6c-0.3,0.2-0.7,0.4-0.7,0.8c0,0.1,0.1,0.2,0.1,0.2c-0.1,0-0.1,0.1-0.2,0.1c-0.1,0.1-0.2,0.4-0.1,0.5&#10;&#9;c0,0.2,0.2,0.3,0.3,0.4c0.1,0,0.3,0,0.4,0c0,0.2,0.1,0.5,0.3,0.6c0.3,0.2,0.6,0,0.9-0.2c0,0,0,0,0,0c0.2,0.1,0.5,0.1,0.7,0&#10;&#9;c0.2-0.1,0.5-0.2,0.5-0.4c0-0.1,0-0.1,0-0.2c0.2,0,0.4-0.2,0.6-0.4c0.4,0.1,0.9-0.3,1-0.7c0,0,0,0,0,0c-0.1,0.3,0,0.5,0.2,0.7&#10;&#9;c0.3,0.2,0.7,0.2,0.9,0c0.1,0.4,0.6,0.8,1,0.4c0.1-0.1,0.2-0.3,0.3-0.5c0.2,0.1,0.4,0,0.5-0.1c0.2-0.2,0.3-0.4,0.4-0.6c0,0,0,0,0,0&#10;&#9;c0.1,0.1,0.2,0.2,0.3,0.2c0,0.2,0,0.3,0.1,0.5c0.2,0.3,0.5,0.3,0.9,0.2c0,0,0,0.1,0.1,0.1c0.1,0.2,0.4,0.2,0.6,0.2&#10;&#9;c0,0.2,0,0.3,0.1,0.5c0,0,0.1,0.1,0.1,0.1c0,0.3,0,0.6,0.4,0.7c0.1,0.1,0.3,0.1,0.4,0.1c0,0.1-0.1,0.1-0.1,0.2c0,0.2,0,0.3,0.2,0.4&#10;&#9;c0,0,0.1,0.1,0.2,0.1c-0.3,0.2-0.5,0.4-0.3,0.8c0.1,0.3,0.5,0.3,0.8,0.2c0,0.3,0.2,0.6,0.6,0.6c0.4,0.1,0.6-0.2,0.7-0.5c0,0,0,0,0,0&#10;&#9;c0.2,0.2,0.4,0.2,0.6,0.1c0,0.1,0,0.2,0,0.3c0,0.1,0.1,0.2,0.1,0.3c0.1,0.2,0.3,0.3,0.5,0.3c0.3,0,0.6-0.2,0.8-0.4&#10;&#9;c0.2,0,0.4,0,0.5-0.1c0.2-0.1,0.3-0.3,0.3-0.5c0-0.2,0-0.3-0.1-0.4c0,0,0.1,0,0.1,0c0.1,0,0.2-0.1,0.3-0.1c0.3,0.3,0.7,0.3,1.1,0.1&#10;&#9;c0.3-0.2,0.4-0.5,0.4-0.8c0.2,0,0.5,0,0.7-0.1c0.2-0.1,0.3-0.2,0.3-0.4c0.1-0.2,0-0.3,0-0.5c0.1,0,0.2,0,0.3,0&#10;&#9;c0.3-0.1,0.5-0.2,0.6-0.5c0.2,0.2,0.4,0.3,0.7,0.2c0.1,0,0.2-0.1,0.3-0.2c0.2,0.1,0.5,0.1,0.7,0c0.1,0.2,0.2,0.3,0.3,0.4&#10;&#9;c0.6,0.4,1.3,0,1.8-0.4c0,0.1,0,0.3,0,0.4c0.1,0.6,0.6,0.7,1,0.5c0,0.2,0,0.5,0.2,0.7c0.1,0.2,0.3,0.2,0.5,0.3&#10;&#9;c-0.1,0.1-0.2,0.1-0.3,0.2c-0.2,0.2-0.3,0.5-0.3,0.8c0,0,0,0.1,0.1,0.1c-0.4,0.1-0.8,0.3-1,0.6c-0.2,0.2-0.3,0.5-0.2,0.8&#10;&#9;c0.1,0.3,0.3,0.4,0.6,0.5c-0.1,0.1-0.2,0.3-0.2,0.5c0,0.2,0,0.4,0.1,0.6c-0.5,0.1-1,0.6-1.2,0.9c-0.2,0.4-0.4,0.8-0.2,1.2&#10;&#9;c0.3,0.5,1.1,0.5,1.6,0.5c-0.1,0.2-0.2,0.5-0.1,0.8c0,0,0,0.1,0.1,0.1c-0.8,0.1-1.3,0.8-1.3,1.7c0,0.4,0.2,0.9,0.6,1.1&#10;&#9;c0.4,0.2,0.8,0.1,1.1-0.1c0.2,0.8,1,1.3,1.8,0.8c0.1,0.1,0.2,0.1,0.3,0.2c0.4,0.1,0.9,0.1,1.2-0.1c0,0,0.1,0.1,0.1,0.1&#10;&#9;c0.2,0.2,0.3,0.3,0.6,0.4c-0.5,0.2-0.9,0.8-0.7,1.4c0.1,0.3,0.3,0.5,0.6,0.6c0.3,0,0.5,0,0.7-0.1c0.1,0.4,0.3,0.8,0.8,0.8&#10;&#9;c0.4,0.1,0.9-0.1,1.2-0.4c0.1,0.8,1,1,1.7,0.6c0.3-0.1,0.5-0.3,0.6-0.5c0.1,0.2,0.3,0.3,0.6,0.4c0.4,0.1,0.8-0.1,1.1-0.4&#10;&#9;c0.3-0.2,0.5-0.6,0.6-1c0.2,0,0.5,0,0.7-0.1c0.1-0.1,0.2-0.2,0.2-0.2c0,0,0.1,0.1,0.1,0.1c0.2,0.1,0.3,0.1,0.5,0&#10;&#9;c0.1,0,0.2-0.1,0.2-0.2c0.2,0.2,0.4,0.3,0.7,0.3c0.3,0,0.5-0.2,0.6-0.4c0.2,0.1,0.4,0.2,0.7,0.2c0.2,0,0.4-0.2,0.5-0.4&#10;&#9;c0.1-0.2,0.1-0.4,0-0.6c-0.1-0.2-0.3-0.3-0.6-0.3c0,0,0.1-0.1,0.1-0.1c0.2-0.3,0.1-0.7-0.1-0.9c0.2,0,0.4-0.2,0.6-0.3&#10;&#9;c0,0.4,0.1,0.7,0.5,0.9c0.4,0.2,0.8,0.1,1.1-0.2c0.5,0.4,1.1,0.5,1.7,0c0.3-0.3,0.6-0.9,0.3-1.2c0.3,0,0.5-0.1,0.7-0.2&#10;&#9;c0.6-0.3,0.4-1,0.1-1.5c1.4,0.5,2.9,0.9,4.4,1.1c2.9,0.5,6.3,0.9,7.9,3.8c0.8,1.4,0.9,3.1,0.8,4.7c-0.1,0.8-0.2,1.6-0.3,2.3&#10;&#9;c-0.1,0.8-0.1,1.6-0.1,2.5c0,1.8,0,3.5-0.8,5.1c-0.6,1.3-1.7,2.4-2.9,3.2c-2.4,1.6-5.3,2.2-8.1,2.6c-3.3,0.5-6.6,0.6-9.9,1&#10;&#9;c-3.2,0.4-6.3,1.2-9.4,1.8c-1.4,0.3-2.7,0.4-4.1,0.5c-0.8,0.1-1.9,0.1-2.5,0.8c0,0.1-0.1,0.1,0,0.2c0,0.1,0,0.2,0.1,0.2&#10;&#9;c15.8,0,31.6,0,47.3,0c12.7,0,25.5,0,38.2,0c0,0,0.1,0.1,0.1,0.1c0.1,0.1,0.3-0.1,0.2-0.2c0.1-0.1,0-0.2-0.1-0.2c0,0-0.1,0-0.1,0&#10;&#9;c-0.4-0.3-0.8-0.6-1.3-0.8c-0.8-0.3-1.6-0.2-2.4-0.4c-0.7-0.2-1.4-0.5-2.2-0.8c-0.8-0.2-1.8-0.3-2.6-0.4c-1.9-0.1-3.7,0-5.6,0&#10;&#9;c-0.9,0-1.9,0-2.8-0.2c-0.9-0.2-1.8-0.5-2.7-0.7c-1.6-0.5-3.3-0.6-4.9-1.2c-0.8-0.3-1.5-0.8-2.2-1.2c-0.7-0.5-1.5-1-2.1-1.6&#10;&#9;c-1.3-1.2-2.2-2.9-3-4.4c-0.7-1.6-1.1-3.3-1.3-5c-0.2-1.8-0.1-3.5,0.2-5.2c0.1-0.8,0.3-1.6,0.3-2.4c0.2,0.1,0.5,0.1,0.8,0&#10;&#9;c-0.1,0.3,0,0.7,0.4,0.8c0.4,0.1,0.8-0.2,1.2-0.5c0,0.1,0,0.3,0.1,0.4c0.1,0.2,0.4,0.2,0.6,0.2c0.2,0,0.3-0.1,0.5-0.2&#10;&#9;c0,0.2,0.1,0.5,0.3,0.6c0.2,0.2,0.5,0.1,0.7,0c0,0.4,0.3,0.7,0.7,0.7c0.2,0,0.5-0.1,0.6-0.2c0.1,0.2,0.3,0.3,0.5,0.4c0,0,0,0,0.1,0&#10;&#9;c-0.2,0.3-0.3,0.7-0.2,1c0.1,0.5,0.7,0.5,1.1,0.3c0,0.2,0,0.5,0.3,0.6c0.3,0.1,0.6,0,0.8-0.2c0.2-0.1,0.5-0.4,0.6-0.6&#10;&#9;c0-0.2,0-0.3-0.1-0.4c0.1-0.1,0.2-0.3,0.2-0.5c0-0.1,0-0.1,0-0.2c0.3,0.1,0.7-0.1,0.9-0.5c0-0.1,0.1-0.1,0.1-0.2&#10;&#9;c0,0,0.1,0.1,0.1,0.1c0.2,0.1,0.4,0.1,0.6,0c0.1,0,0.1-0.1,0.2-0.1c0.1,0.1,0.2,0.3,0.4,0.3c0.2,0,0.5-0.1,0.6-0.3&#10;&#9;c0.3-0.3,0.4-0.6,0.3-1c0.3-0.1,0.5-0.4,0.6-0.8c0.1,0,0.3-0.1,0.4-0.1c0.1,0,0.1-0.1,0.2-0.2c0,0.1,0,0.2,0.2,0.3&#10;&#9;c0.2,0.2,0.6,0.1,0.8,0.1c0.1,0,0.3-0.1,0.4-0.2c0.1,0.3,0.5,0.4,0.8,0.3c0.2,0,0.3-0.1,0.4-0.2c0.1,0.4,0.3,0.6,0.8,0.6&#10;&#9;c0.1,0,0.2,0,0.3-0.1c-0.1,0.3,0,0.6,0.2,0.7c0.2,0.1,0.5,0,0.8-0.1c0.1,0.2,0.2,0.4,0.4,0.5c0.2,0.1,0.5,0,0.7-0.1&#10;&#9;c0.1-0.1,0.3-0.2,0.4-0.4c0.3,0.1,0.6-0.1,0.9-0.4c0.1,0.2,0.2,0.3,0.3,0.4c0.3,0.1,0.6,0,0.8-0.1c0.3-0.2,0.9-0.7,0.5-1.1&#10;&#9;c0.1-0.1,0.2-0.2,0.3-0.3c0.2,0.1,0.6,0,0.8-0.2c0.3-0.2,0.4-0.5,0.4-0.8c0.2,0,0.3,0,0.5,0c-0.2,0.1-0.3,0.3-0.2,0.5&#10;&#9;c0.1,0.1,0.1,0.2,0.2,0.2c0,0-0.1,0.1-0.1,0.1c-0.1,0.1-0.2,0.3-0.2,0.5c0,0,0,0,0,0c-0.4,0.2-0.7,0.5-0.7,0.9&#10;&#9;c0,0.5,0.4,0.6,0.7,0.5c0,0.2,0.1,0.4,0.4,0.5c0.3,0.2,0.6,0.1,0.8-0.1c0.1,0.1,0.2,0.2,0.3,0.2c0.2,0.1,0.4,0.1,0.6,0&#10;&#9;c0,0.3,0.1,0.5,0.4,0.5c0.1,0,0.2,0,0.2,0c-0.1,0.1-0.1,0.2,0,0.4c-0.3,0.1-0.5,0.4-0.5,0.7c-0.1,0.7,0.8,0.8,1.3,0.6&#10;&#9;c0.1,0.2,0.3,0.4,0.6,0.3c0.2,0,0.4-0.1,0.6-0.3c0.1,0.3,0.4,0.5,0.8,0.4c0,0,0,0,0.1,0c0,0.3,0,0.6,0.2,0.8&#10;&#9;c0.3,0.2,0.6,0.1,0.8-0.1c0,0,0,0,0,0c0,0.6,0.6,0.7,1,0.5c0.3-0.1,0.5-0.3,0.6-0.6c0.4,0.1,0.7-0.2,0.8-0.6&#10;&#9;c0.3,0.2,0.7,0.2,1.1-0.1c0.2-0.2,0.3-0.6,0.2-0.9c0.2,0,0.4-0.2,0.5-0.3c0,0,0,0,0,0c0.2,0.2,0.6,0.1,0.8,0.1&#10;&#9;c0.1,0,0.2-0.1,0.3-0.1c0,0.2,0.1,0.3,0.3,0.4c0.2,0.1,0.5,0,0.7-0.1c0.2-0.2,0.4-0.4,0.5-0.7c0-0.1,0-0.2,0-0.3&#10;&#9;c0.4-0.3,0.2-1.4-0.3-1.7c0.2-0.3,0.2-0.8-0.1-1.1c0,0-0.1-0.1-0.1-0.1c0,0,0,0,0.1-0.1c0.2,0.4,0.6,0.7,1.1,0.5&#10;&#9;c0.2-0.1,0.3-0.2,0.4-0.3c0.8,0.4,1.4-0.8,1.1-1.4c0.2-0.1,0.3-0.3,0.3-0.6c0-0.3-0.2-0.5-0.4-0.6c-0.2-0.1-0.6-0.2-0.9-0.2&#10;&#9;c0-0.3-0.2-0.5-0.5-0.5c0.2-0.2,0.1-0.5-0.1-0.8c0,0,0,0,0,0c0.3-0.2,0.5-0.5,0.4-0.9c0.2,0,0.3-0.1,0.4-0.2&#10;&#9;c0.1,0.2,0.3,0.4,0.5,0.5c0.3,0.1,0.7,0.1,0.9-0.1c0.1,0.4,0.4,0.6,0.9,0.5c0.1,0,0.1,0,0.2-0.1c0,0.2,0.1,0.4,0.3,0.5&#10;&#9;c0.1,0.1,0.3,0.1,0.4,0c0,0.7,1.2,0.8,1.7,0.4c0,0,0,0,0,0c0.7,0.4,2.1-0.1,1.8-1.1c0.1,0,0.2,0,0.4,0c0.3,0,0.5-0.1,0.7-0.3&#10;&#9;c0.2-0.2,0.2-0.5,0.1-0.7c0.1,0.1,0.3,0.1,0.5,0.1c0.5,0,0.8-0.5,0.8-1c0.2,0,0.3,0,0.5-0.1c0,0,0.1,0,0.1-0.1&#10;&#9;c0.1,0.1,0.3,0.3,0.4,0.3c0.3,0.2,0.6,0.1,0.9-0.1c0.3-0.2,0.9-0.7,0.8-1.1c0,0,0.1,0,0.1,0c0.6-0.2,0.8-0.7,0.6-1.2&#10;&#9;c0.3,0,0.6-0.1,0.8-0.4c0.2-0.2,0.1-0.5,0-0.7c-0.1-0.2-0.2-0.3-0.4-0.4c0.2-0.1,0.3-0.3,0.4-0.4c0.1,0.1,0.2,0.2,0.3,0.2&#10;&#9;c0.2,0,0.4-0.1,0.6-0.2c0.2-0.2,0.4-0.4,0.3-0.6c0.4,0,0.7-0.1,1-0.2c0.6-0.3,0.5-0.9,0-1.2c0.1-0.1,0.1-0.3,0.1-0.5&#10;&#9;c-0.1-0.3-0.3-0.6-0.6-0.6c0.1-0.1,0.1-0.3,0.1-0.5c-0.1-0.4-0.4-0.7-0.8-0.7c0.4-0.4,0.6-1,0.1-1.3c0,0,0.1-0.1,0.1-0.2&#10;&#9;c0.1-0.3,0-0.5-0.2-0.6c0,0,0.1,0,0.1,0c0.1,0,0.2-0.1,0.3-0.2c0.4,0.1,0.9-0.3,0.9-0.7c0.1,0,0.3,0.1,0.5,0c-0.1,0.2,0,0.5,0.3,0.6&#10;&#9;c0.2,0.1,0.4,0.1,0.6,0c0.2,0.9,1.6,0.4,1.5-0.4c0.2,0,0.5-0.2,0.6-0.4c0.1-0.2,0.2-0.4,0.2-0.6c0-0.1-0.1-0.2-0.2-0.3&#10;&#9;c0.1,0,0.1-0.1,0.2-0.1c0.1-0.1,0.1-0.3,0.1-0.4c0-0.1-0.1-0.2-0.2-0.3c0,0-0.1-0.1-0.1-0.1c0.2-0.1,0.3-0.3,0.3-0.6c0,0,0,0,0,0&#10;&#9;c0.2,0.2,0.5,0.2,0.7,0.1c0.1-0.1,0.2-0.2,0.3-0.3c0.2,0.2,0.5,0.3,0.8,0.1c0.2-0.1,0.3-0.4,0.4-0.7c0.7,0.2,1.6,0,1.3-0.8&#10;&#9;c0.1,0,0.1,0,0.2,0c0.5-0.2,0.5-0.6,0.5-1.1c0,0,0,0,0,0c0.1,0,0.1,0,0.2-0.1c0.2-0.1,0.3-0.4,0.3-0.6&#10;&#9;C323.5,97,323.5,96.8,323.3,96.6z M237,114.5c-0.9-0.1-1.9-0.1-2.9-0.2c-0.4,0-0.7,0-1.1-0.1c0.4-0.3,0.4-1,0.2-1.4c0,0,0,0,0-0.1&#10;&#9;c0.4-0.1,0.7-0.6,0.7-1.1c0.1,0,0.2,0.1,0.3,0.1c0.3,0,0.5-0.3,0.6-0.5c0.1-0.2,0.2-0.4,0.3-0.6c0.6,0.3,1.2-0.2,1.5-0.8&#10;&#9;c0.1,0.2,0.3,0.4,0.5,0.5c-0.3,0.3-0.5,0.9-0.3,1.3c0.2,0.4,0.5,0.3,0.8,0.2c0,0,0,0,0,0c0,0.1,0,0.1,0,0.2c0,0.3-0.1,0.4,0.2,0.6&#10;&#9;c0.4,0.4,1,0,1.3-0.3c0.1,0.1,0.1,0.3,0.3,0.3c0.3,0.1,0.7,0,0.9-0.2c0.2-0.1,0.4-0.3,0.5-0.6c0.1,0.1,0.2,0.2,0.4,0.3&#10;&#9;c0.2,0.1,0.5-0.1,0.6-0.2c0.1-0.1,0.2-0.3,0.2-0.5c0,0,0,0,0,0c0.5,0.1,0.8-0.3,0.9-0.8c0.3,0.2,0.8-0.1,0.9-0.5&#10;&#9;c0.4,0.5,0.7,1.1,1,1.6c0.3,0.4,0.8,0.7,0.9,1.3c0.2,0.5-0.3,1.1-0.5,1.5c-0.3,0.8,0.1,1.7,0.4,2.4c-0.3-0.2-0.6-0.4-1-0.6&#10;&#9;c-0.7-0.4-1.4-0.5-2.1-0.7c-1-0.2-2.1-0.4-3.1-0.7C238.8,114.9,237.9,114.7,237,114.5z M256.1,109.6&#10;&#9;C256.1,109.6,256.1,109.6,256.1,109.6C256.1,109.6,256.1,109.6,256.1,109.6z M254.5,109.6c0-0.2-0.1-0.4-0.1-0.5&#10;&#9;c0.2,0.1,0.4,0.1,0.5,0.1c0,0,0.1,0,0.1,0c0,0.2,0.1,0.4,0.2,0.5c0.2,0.2,0.4,0.2,0.6,0.1c0,0.1,0,0.3,0,0.4&#10;&#9;c0.1,0.4,0.5,0.4,0.9,0.3c0,0.6,0.7,0.6,1.1,0.5c-0.5,0.9-1.2,1.7-1.9,2.5c-0.4,0.4-0.8,0.8-1.2,1.2&#10;&#9;C255.3,112.9,254.8,111.2,254.5,109.6z M205,63.1C205,63.1,205,63.1,205,63.1C205,63.1,205,63.1,205,63.1z M182.1,83.2&#10;&#9;C182.1,83.2,182.1,83.2,182.1,83.2C182.2,83.2,182.2,83.2,182.1,83.2C182.2,83.2,182.2,83.2,182.1,83.2&#10;&#9;C182.1,83.2,182.1,83.2,182.1,83.2C182.1,83.2,182.1,83.2,182.1,83.2C182.1,83.2,182.1,83.2,182.1,83.2z" style="fill: rgb(48, 48, 48);" transform="matrix(3.1039229028191, 0, 0, 3.1039229028191, 0, 0.21039229341699944)"/>
</svg>