<?xml version="1.0" encoding="UTF-8" ?>
<!DOCTYPE svg PUBLIC "-//W3C//DTD SVG 1.1//EN" "http://www.w3.org/Graphics/SVG/1.1/DTD/svg11.dtd">
<svg width="300pt" height="300pt" viewBox="0 0 300 300" version="1.1" xmlns="http://www.w3.org/2000/svg">
<g id="#1e2c87ff">
<path fill="#1e2c87" opacity="1.00" d=" M 0.00 0.00 L 300.00 0.00 L 300.00 300.00 L 0.00 300.00 L 0.00 0.00 M 1.04 1.03 C 0.98 100.34 1.00 199.66 1.03 298.97 C 100.34 298.99 199.65 298.98 298.96 298.98 C 299.00 199.66 298.98 100.34 298.97 1.03 C 199.66 0.99 100.35 0.99 1.04 1.03 Z" />
<path fill="#1e2c87" opacity="1.00" d=" M 168.79 18.54 C 173.87 17.21 178.53 14.76 183.06 12.19 C 182.39 13.45 181.71 14.71 181.04 15.97 C 183.30 15.80 185.57 15.63 187.84 15.44 C 186.38 16.41 184.92 17.38 183.48 18.36 C 185.81 19.62 188.26 20.66 190.67 21.76 C 188.63 21.79 186.60 21.81 184.56 21.83 C 186.06 23.64 187.50 25.52 188.65 27.58 C 185.06 25.47 182.02 22.54 178.34 20.56 C 175.43 18.96 172.02 18.90 168.79 18.54 Z" />
<path fill="#1e2c87" opacity="1.00" d=" M 219.47 26.36 C 219.77 26.59 220.38 27.07 220.68 27.30 C 221.22 26.96 222.29 26.28 222.83 25.93 C 222.41 26.70 221.57 28.24 221.15 29.02 C 221.91 28.66 223.43 27.93 224.19 27.57 C 223.68 28.72 223.26 29.92 223.50 31.19 C 219.33 33.68 214.78 35.43 210.16 36.89 C 213.93 34.05 217.15 30.48 219.47 26.36 Z" />
<path fill="#1e2c87" opacity="1.00" d=" M 66.30 62.05 C 71.05 57.55 73.59 51.48 76.65 45.85 C 76.75 47.82 76.82 49.78 76.90 51.76 C 78.83 49.70 80.77 47.65 82.91 45.80 C 82.43 48.38 78.82 51.67 81.64 53.80 C 76.04 55.50 71.01 58.64 66.30 62.05 Z" />
<path fill="#1e2c87" opacity="1.00" d=" M 112.81 58.59 C 115.82 56.05 118.23 52.92 120.77 49.94 C 120.23 51.40 119.66 52.84 119.10 54.30 C 121.15 53.83 123.22 53.40 125.29 53.03 C 123.84 54.41 122.32 55.72 120.82 57.06 C 122.97 57.31 125.12 57.54 127.26 57.82 C 126.03 59.10 124.43 59.89 122.87 60.70 C 124.19 62.09 125.48 63.50 126.80 64.89 C 123.36 64.11 119.87 63.58 116.38 63.06 C 116.19 61.86 116.00 60.65 115.82 59.45 C 115.07 59.23 113.56 58.81 112.81 58.59 Z" />
<path fill="#1e2c87" opacity="1.00" d=" M 38.29 59.66 C 38.89 61.35 39.52 63.02 40.20 64.68 C 41.21 62.74 42.15 60.75 43.17 58.81 C 43.58 63.05 42.97 67.30 43.39 71.52 C 44.97 68.37 45.29 64.78 46.48 61.49 C 46.65 62.25 46.98 63.77 47.14 64.53 C 48.63 63.49 50.04 62.34 51.48 61.24 C 51.14 62.52 50.80 63.81 50.45 65.10 C 52.11 64.58 53.78 64.10 55.46 63.69 C 52.96 66.50 51.22 69.87 48.82 72.76 C 46.51 75.14 44.69 77.91 43.03 80.77 C 43.47 80.82 44.35 80.91 44.79 80.96 L 46.11 82.14 L 44.32 82.31 C 44.01 82.32 43.39 82.34 43.08 82.35 C 42.69 82.29 41.92 82.18 41.54 82.13 C 41.16 81.86 40.39 81.31 40.01 81.04 C 40.82 80.54 41.63 80.06 42.45 79.59 L 39.25 80.00 L 40.90 77.48 C 37.10 74.48 36.06 69.18 34.11 64.92 C 34.44 67.59 34.69 70.44 36.63 72.51 C 37.89 74.71 40.48 77.30 39.22 79.97 C 37.88 78.75 36.61 76.62 34.44 77.43 C 31.82 72.86 27.20 69.92 24.39 65.47 C 25.90 65.85 27.40 66.27 28.90 66.70 C 28.91 65.04 28.92 63.39 28.95 61.74 C 29.94 62.88 30.91 64.04 31.89 65.19 C 32.32 63.73 32.74 62.27 33.15 60.81 C 34.33 62.31 35.55 63.79 36.81 65.23 C 37.51 63.44 37.92 61.55 38.29 59.66 Z" />
<path fill="#1e2c87" opacity="1.00" d=" M 24.01 69.97 C 26.89 72.47 29.52 75.25 32.46 77.68 C 31.76 77.91 30.35 78.38 29.64 78.62 C 29.47 79.19 29.13 80.34 28.96 80.92 C 27.94 80.36 26.92 79.82 25.89 79.29 C 26.06 77.98 26.25 76.67 26.32 75.34 L 26.22 75.13 C 25.37 73.46 24.62 71.74 24.01 69.97 Z" />
<path fill="#1e2c87" opacity="1.00" d=" M 50.53 72.22 C 53.88 71.68 49.27 75.44 50.53 72.22 Z" />
<path fill="#1e2c87" opacity="1.00" d=" M 51.62 85.21 C 56.16 85.86 60.74 85.40 65.20 84.43 C 63.08 86.22 60.42 87.05 57.77 87.67 C 59.25 88.40 60.74 89.13 62.23 89.87 C 60.40 89.96 58.56 90.04 56.73 90.13 C 58.51 91.75 60.36 93.31 62.13 94.94 C 59.14 94.01 56.22 92.83 53.62 91.06 C 54.19 91.01 55.35 90.90 55.93 90.85 C 55.44 89.92 54.95 88.99 54.45 88.07 C 55.22 87.54 55.98 87.01 56.74 86.49 C 55.03 86.08 53.32 85.67 51.62 85.21 Z" />
<path fill="#1e2c87" opacity="1.00" d=" M 40.30 91.62 C 41.29 90.65 42.28 89.67 43.27 88.69 C 44.26 89.02 45.25 89.34 46.25 89.65 C 46.98 90.45 47.72 91.25 48.47 92.03 C 47.88 92.56 47.27 93.08 46.67 93.59 C 46.60 95.17 46.50 96.75 46.38 98.33 C 45.62 96.92 45.00 95.44 44.44 93.95 C 43.69 95.06 42.94 96.18 42.17 97.29 C 42.28 96.28 42.52 94.26 42.63 93.25 C 41.88 93.43 40.37 93.79 39.61 93.96 C 39.79 93.38 40.13 92.21 40.30 91.62 Z" />
<path fill="#1e2c87" opacity="1.00" d=" M 47.79 94.38 C 48.34 93.03 50.84 93.94 49.71 95.33 C 49.23 95.09 48.27 94.62 47.79 94.38 Z" />
<path fill="#1e2c87" opacity="1.00" d=" M 168.63 175.47 C 169.35 167.93 169.43 160.37 169.48 152.81 L 169.55 153.69 C 169.59 164.11 169.46 174.55 169.59 184.97 C 169.55 187.09 170.28 189.10 171.01 191.05 C 175.77 192.66 181.00 192.82 185.89 191.78 C 189.28 190.75 189.16 186.64 190.18 183.86 C 190.23 187.43 189.90 191.06 190.71 194.58 C 189.49 194.23 188.31 193.59 187.01 193.74 C 178.62 193.82 170.24 193.71 161.85 193.75 C 162.49 193.41 163.78 192.73 164.42 192.38 C 165.12 186.95 164.61 181.44 164.74 175.98 C 166.03 175.81 167.33 175.64 168.63 175.47 Z" />
<path fill="#1e2c87" opacity="1.00" d=" M 197.28 153.87 C 197.82 161.92 197.49 170.00 198.42 178.02 C 200.03 176.48 201.13 174.53 201.80 172.41 C 206.61 172.58 211.41 172.50 216.22 172.48 C 216.66 172.16 217.54 171.50 217.98 171.18 C 217.96 172.42 217.94 173.66 217.92 174.91 C 217.48 174.57 216.60 173.90 216.16 173.56 C 211.47 173.57 206.78 173.62 202.09 173.55 C 202.21 178.96 201.78 184.41 202.36 189.81 C 202.52 191.57 204.44 192.25 205.97 192.22 C 210.32 192.44 214.71 192.58 219.04 192.07 C 221.34 192.07 221.71 189.45 222.69 187.89 C 222.56 189.83 222.50 191.77 222.46 193.71 C 212.95 193.81 203.43 193.88 193.92 193.62 C 194.64 193.39 196.08 192.94 196.81 192.71 C 197.55 179.78 196.92 166.82 197.28 153.87 Z" />
<path fill="#1e2c87" opacity="1.00" d=" M 151.08 155.06 C 151.99 164.67 152.28 174.39 152.46 184.06 C 152.67 182.47 152.88 180.89 153.09 179.31 C 154.03 181.06 154.98 182.80 155.93 184.54 C 156.00 187.24 156.09 189.93 156.25 192.63 C 157.23 192.98 158.22 193.34 159.20 193.71 C 155.39 193.79 151.59 193.77 147.79 193.62 C 148.54 193.37 150.05 192.88 150.80 192.64 C 151.20 180.12 151.10 167.58 151.08 155.06 Z" />
<path fill="#1e2c87" opacity="1.00" d=" M 228.28 154.75 C 229.38 161.76 227.05 169.67 231.37 175.87 C 231.77 175.52 232.57 174.82 232.96 174.48 C 233.18 180.00 232.82 185.53 233.14 191.05 C 232.99 192.75 235.09 192.95 236.11 193.73 C 232.28 193.70 228.45 193.87 224.63 193.68 C 225.71 193.43 226.78 193.19 227.87 192.96 C 228.66 187.99 228.25 182.95 228.36 177.95 C 228.35 170.21 228.51 162.48 228.28 154.75 Z" />
<path fill="#1e2c87" opacity="1.00" d=" M 72.21 170.25 C 72.75 170.01 73.82 169.51 74.36 169.26 C 70.85 177.79 67.50 186.39 64.07 194.95 C 61.29 188.84 59.02 182.50 56.40 176.32 C 57.05 176.45 58.36 176.71 59.02 176.84 C 59.31 175.37 59.61 173.90 59.90 172.43 C 61.71 177.12 63.72 181.72 65.50 186.41 C 68.03 181.15 69.96 175.63 72.21 170.25 Z" />
<path fill="#1e2c87" opacity="1.00" d=" M 89.91 173.40 C 94.73 174.44 99.71 174.67 104.56 173.64 C 105.04 174.60 105.52 175.55 106.00 176.51 C 106.62 175.55 107.24 174.60 107.86 173.65 C 110.03 179.19 112.27 184.71 114.61 190.19 C 115.13 191.87 116.68 192.77 118.03 193.73 C 115.10 193.72 112.16 193.74 109.22 193.79 C 109.47 193.36 109.96 192.50 110.20 192.07 C 107.97 186.44 105.55 180.88 103.54 175.16 C 99.38 174.84 95.21 174.89 91.04 174.92 C 88.88 180.81 86.39 186.58 84.15 192.44 C 84.58 192.75 85.45 193.38 85.89 193.69 C 83.86 193.73 81.83 193.79 79.80 193.92 C 81.29 192.98 82.65 191.79 83.24 190.08 C 85.57 184.56 87.66 178.95 89.91 173.40 Z" />
<path fill="#1e2c87" opacity="1.00" d=" M 142.18 174.64 C 147.42 180.62 144.51 191.68 136.44 193.25 C 131.04 194.09 125.57 193.68 120.14 193.75 C 120.14 189.74 120.13 185.74 120.35 181.74 C 120.70 185.27 121.37 189.64 125.13 191.14 C 130.36 193.18 137.69 193.22 141.31 188.25 C 143.25 185.55 142.67 182.01 141.10 179.30 C 141.45 177.74 141.81 176.19 142.18 174.64 Z" />
<path fill="#1e2c87" opacity="1.00" d=" M 234.76 174.78 C 236.42 175.38 238.11 175.96 239.79 176.55 C 240.51 175.92 241.24 175.29 241.98 174.66 C 251.11 181.10 259.32 189.10 269.55 193.83 C 264.96 193.73 260.38 193.81 255.79 193.65 C 256.36 193.46 257.49 193.07 258.05 192.88 C 250.44 186.64 242.28 181.10 234.76 174.78 Z" />
<path fill="#1e2c87" opacity="1.00" d=" M 196.91 202.91 C 199.93 199.86 204.56 200.94 208.30 201.51 C 208.46 202.05 208.79 203.13 208.95 203.67 C 206.83 201.68 203.89 200.71 201.03 201.41 C 194.96 203.34 193.95 213.46 199.85 216.22 C 201.96 217.67 204.57 217.25 206.94 216.87 C 206.89 215.11 206.82 213.35 206.70 211.60 C 207.60 211.53 208.51 211.46 209.42 211.39 C 209.10 213.41 208.99 215.45 208.92 217.50 C 204.84 217.52 200.06 218.39 196.86 215.19 C 192.91 212.29 192.96 205.77 196.91 202.91 Z" />
<path fill="#1e2c87" opacity="1.00" d=" M 260.49 205.00 C 260.56 200.53 267.04 199.39 269.48 202.61 C 267.38 202.13 265.06 200.47 262.97 201.84 C 261.17 202.77 261.71 205.03 262.06 206.62 C 264.77 207.74 268.29 208.24 269.80 211.08 C 271.21 214.07 268.40 217.88 265.11 217.48 C 263.38 217.17 260.16 218.57 259.77 216.05 C 259.94 215.24 260.29 213.63 260.46 212.83 C 260.42 213.43 260.34 214.63 260.30 215.23 C 263.09 218.44 270.14 217.29 268.88 212.16 C 266.24 209.58 260.51 209.67 260.49 205.00 Z" />
<path fill="#1e2c87" opacity="1.00" d=" M 218.57 200.55 C 221.33 206.16 223.33 212.10 225.80 217.83 C 225.19 217.68 223.95 217.37 223.34 217.22 C 222.27 214.67 221.36 212.06 220.18 209.57 C 218.69 209.60 217.20 209.64 215.72 209.67 C 214.93 211.62 214.20 213.59 213.42 215.55 C 213.10 216.21 212.46 217.53 212.14 218.20 C 213.25 212.03 216.45 206.43 218.57 200.55 M 215.98 209.22 C 217.06 209.20 219.21 209.15 220.29 209.13 C 219.68 207.81 219.11 206.47 218.42 205.20 C 216.39 204.41 216.87 208.09 215.98 209.22 Z" />
<path fill="#1e2c87" opacity="1.00" d=" M 228.75 200.54 C 230.26 200.76 231.63 201.48 232.04 203.06 C 233.66 206.70 235.10 210.41 236.67 214.07 C 239.15 210.12 240.30 205.52 242.57 201.47 C 242.99 201.26 243.84 200.85 244.26 200.65 C 244.17 206.36 245.10 212.05 246.48 217.58 C 245.56 217.58 244.65 217.59 243.75 217.62 C 243.99 213.27 242.74 209.03 242.20 204.74 C 239.80 208.75 238.26 213.18 236.33 217.42 C 234.08 213.13 232.35 208.60 230.32 204.21 C 229.17 208.87 229.45 213.90 227.70 218.38 C 228.13 213.19 228.91 208.05 229.58 202.90 C 229.38 202.31 228.96 201.13 228.75 200.54 Z" />
<path fill="#1e2c87" opacity="1.00" d=" M 248.77 200.85 C 252.27 201.42 256.13 200.64 259.38 202.26 C 256.58 201.98 253.80 201.62 250.99 201.46 C 251.00 204.15 251.03 206.84 251.07 209.53 C 253.31 209.38 255.55 209.15 257.74 208.64 C 257.71 208.86 257.66 209.29 257.64 209.50 C 255.43 209.55 253.23 209.68 251.02 209.77 C 251.41 212.12 249.97 215.37 252.18 217.02 C 254.67 217.66 257.18 216.91 259.63 216.42 C 256.65 218.83 252.36 217.14 248.84 217.44 C 249.05 211.91 249.12 206.37 248.77 200.85 Z" />
</g>
<g id="#ffffffff">
<path fill="#ffffff" opacity="1.00" d=" M 1.04 1.03 C 100.35 0.99 199.66 0.99 298.97 1.03 C 298.98 100.34 299.00 199.66 298.96 298.98 C 199.65 298.98 100.34 298.99 1.03 298.97 C 1.00 199.66 0.98 100.34 1.04 1.03 M 168.79 18.54 C 172.02 18.90 175.43 18.96 178.34 20.56 C 182.02 22.54 185.06 25.47 188.65 27.58 C 187.50 25.52 186.06 23.64 184.56 21.83 C 186.60 21.81 188.63 21.79 190.67 21.76 C 188.26 20.66 185.81 19.62 183.48 18.36 C 184.92 17.38 186.38 16.41 187.84 15.44 C 185.57 15.63 183.30 15.80 181.04 15.97 C 181.71 14.71 182.39 13.45 183.06 12.19 C 178.53 14.76 173.87 17.21 168.79 18.54 M 219.47 26.36 C 217.15 30.48 213.93 34.05 210.16 36.89 C 214.78 35.43 219.33 33.68 223.50 31.19 C 223.26 29.92 223.68 28.72 224.19 27.57 C 223.43 27.93 221.91 28.66 221.15 29.02 C 221.57 28.24 222.41 26.70 222.83 25.93 C 222.29 26.28 221.22 26.96 220.68 27.30 C 220.38 27.07 219.77 26.59 219.47 26.36 M 66.30 62.05 C 71.01 58.64 76.04 55.50 81.64 53.80 C 78.82 51.67 82.43 48.38 82.91 45.80 C 80.77 47.65 78.83 49.70 76.90 51.76 C 76.82 49.78 76.75 47.82 76.65 45.85 C 73.59 51.48 71.05 57.55 66.30 62.05 M 112.81 58.59 C 110.92 59.84 109.02 61.07 107.09 62.25 C 110.20 62.34 113.30 62.64 116.38 63.06 C 119.87 63.58 123.36 64.11 126.80 64.89 C 125.48 63.50 124.19 62.09 122.87 60.70 C 124.43 59.89 126.03 59.10 127.26 57.82 C 125.12 57.54 122.97 57.31 120.82 57.06 C 122.32 55.72 123.84 54.41 125.29 53.03 C 123.22 53.40 121.15 53.83 119.10 54.30 C 119.66 52.84 120.23 51.40 120.77 49.94 C 118.23 52.92 115.82 56.05 112.81 58.59 M 82.10 52.15 C 82.16 55.47 85.16 50.67 82.10 52.15 M 38.29 59.66 C 37.92 61.55 37.51 63.44 36.81 65.23 C 35.55 63.79 34.33 62.31 33.15 60.81 C 32.74 62.27 32.32 63.73 31.89 65.19 C 30.91 64.04 29.94 62.88 28.95 61.74 C 28.92 63.39 28.91 65.04 28.90 66.70 C 27.40 66.27 25.90 65.85 24.39 65.47 C 27.20 69.92 31.82 72.86 34.44 77.43 C 36.61 76.62 37.88 78.75 39.22 79.97 C 40.48 77.30 37.89 74.71 36.63 72.51 C 34.69 70.44 34.44 67.59 34.11 64.92 C 36.06 69.18 37.10 74.48 40.90 77.48 L 39.25 80.00 L 42.45 79.59 C 41.63 80.06 40.82 80.54 40.01 81.04 C 38.92 80.27 37.84 79.50 36.76 78.71 L 35.66 80.05 C 34.62 79.24 33.73 78.11 32.46 77.68 C 29.52 75.25 26.89 72.47 24.01 69.97 C 24.62 71.74 25.37 73.46 26.22 75.13 C 25.55 75.01 24.23 74.79 23.57 74.67 C 23.96 75.23 24.74 76.33 25.12 76.89 L 23.62 77.21 C 24.37 77.91 25.13 78.60 25.89 79.29 C 26.92 79.82 27.94 80.36 28.96 80.92 C 32.35 82.00 35.95 82.00 39.43 82.59 C 34.21 84.14 28.94 82.69 23.96 81.05 C 25.86 82.76 28.05 84.08 30.25 85.37 C 29.14 85.97 28.03 86.57 26.94 87.19 C 28.51 87.27 30.08 87.34 31.65 87.40 C 31.20 88.07 30.30 89.41 29.85 90.09 C 30.53 89.95 31.89 89.67 32.58 89.53 C 32.52 90.16 32.40 91.43 32.35 92.06 C 33.83 90.74 35.41 89.52 36.80 88.10 C 35.44 90.33 37.32 92.50 38.81 94.01 C 37.84 97.25 36.90 100.51 36.57 103.89 C 34.39 117.49 32.71 131.22 32.72 145.02 C 32.31 168.91 36.69 193.14 47.29 214.68 C 55.82 232.14 68.07 247.52 81.44 261.51 C 85.71 266.16 90.33 270.47 94.51 275.19 C 95.55 274.51 98.00 273.15 95.99 272.06 C 82.02 259.93 68.89 246.57 58.87 230.94 C 47.28 213.54 40.02 193.45 36.67 172.87 C 33.48 152.12 33.77 130.91 36.47 110.12 C 36.97 104.66 37.54 99.10 39.61 93.96 C 40.37 93.79 41.88 93.43 42.63 93.25 C 42.52 94.26 42.28 96.28 42.17 97.29 C 42.94 96.18 43.69 95.06 44.44 93.95 C 45.00 95.44 45.62 96.92 46.38 98.33 C 46.50 96.75 46.60 95.17 46.67 93.59 C 47.27 93.08 47.88 92.56 48.47 92.03 C 47.72 91.25 46.98 90.45 46.25 89.65 C 45.28 87.66 44.50 85.58 44.03 83.41 C 47.20 85.97 49.96 89.15 53.62 91.06 C 56.22 92.83 59.14 94.01 62.13 94.94 C 60.36 93.31 58.51 91.75 56.73 90.13 C 58.56 90.04 60.40 89.96 62.23 89.87 C 60.74 89.13 59.25 88.40 57.77 87.67 C 60.42 87.05 63.08 86.22 65.20 84.43 C 60.74 85.40 56.16 85.86 51.62 85.21 C 49.08 84.54 46.62 83.58 44.32 82.31 L 46.11 82.14 C 50.82 84.76 57.00 83.74 61.98 82.15 C 60.93 81.39 59.89 80.63 58.85 79.88 C 61.39 79.47 64.08 79.13 66.07 77.33 C 63.71 77.14 61.34 77.02 58.97 76.93 C 60.23 75.91 62.00 75.28 62.59 73.63 L 62.82 74.48 C 62.89 73.60 63.03 71.84 63.10 70.96 C 62.60 71.27 61.60 71.90 61.10 72.21 C 61.02 70.70 60.91 69.20 60.77 67.70 C 60.38 68.28 60.03 68.89 59.72 69.51 C 57.25 72.40 54.48 75.04 51.28 77.10 L 49.22 77.71 C 51.60 76.02 50.33 74.31 48.82 72.76 C 51.22 69.87 52.96 66.50 55.46 63.69 C 53.78 64.10 52.11 64.58 50.45 65.10 C 50.80 63.81 51.14 62.52 51.48 61.24 C 50.04 62.34 48.63 63.49 47.14 64.53 C 46.98 63.77 46.65 62.25 46.48 61.49 C 45.29 64.78 44.97 68.37 43.39 71.52 C 42.97 67.30 43.58 63.05 43.17 58.81 C 42.15 60.75 41.21 62.74 40.20 64.68 C 39.52 63.02 38.89 61.35 38.29 59.66 M 50.53 72.22 C 49.27 75.44 53.88 71.68 50.53 72.22 M 47.79 94.38 C 48.27 94.62 49.23 95.09 49.71 95.33 C 50.84 93.94 48.34 93.03 47.79 94.38 M 198.40 143.63 C 198.04 146.09 198.70 149.41 201.95 148.84 C 204.82 148.66 204.59 145.63 204.58 143.55 C 202.58 142.40 200.37 142.50 198.40 143.63 M 212.24 148.21 C 211.51 150.01 215.36 150.06 214.69 148.25 C 217.86 148.19 217.06 142.43 214.06 142.56 C 210.68 141.52 208.60 147.62 212.24 148.21 M 44.19 152.58 C 45.47 153.32 47.17 153.69 47.73 155.24 C 50.94 162.13 53.46 169.32 56.40 176.32 C 59.02 182.50 61.29 188.84 64.07 194.95 C 67.50 186.39 70.85 177.79 74.36 169.26 C 76.84 163.68 78.34 157.60 81.89 152.56 C 81.08 152.56 79.45 152.55 78.63 152.55 C 77.62 158.80 74.14 164.28 72.21 170.25 C 69.96 175.63 68.03 181.15 65.50 186.41 C 63.72 181.72 61.71 177.12 59.90 172.43 C 57.92 167.21 55.65 162.10 53.62 156.89 C 53.01 155.51 53.24 153.98 53.28 152.53 C 50.25 152.61 47.22 152.66 44.19 152.58 M 89.91 173.40 C 87.66 178.95 85.57 184.56 83.24 190.08 C 82.65 191.79 81.29 192.98 79.80 193.92 C 81.83 193.79 83.86 193.73 85.89 193.69 C 85.45 193.38 84.58 192.75 84.15 192.44 C 86.39 186.58 88.88 180.81 91.04 174.92 C 95.21 174.89 99.38 174.84 103.54 175.16 C 105.55 180.88 107.97 186.44 110.20 192.07 C 109.96 192.50 109.47 193.36 109.22 193.79 C 112.16 193.74 115.10 193.72 118.03 193.73 C 116.68 192.77 115.13 191.87 114.61 190.19 C 112.27 184.71 110.03 179.19 107.86 173.65 C 104.85 166.29 101.96 158.87 98.82 151.56 C 95.51 158.69 92.85 166.11 89.91 173.40 M 123.99 156.02 C 119.73 160.75 120.93 169.32 126.53 172.45 C 131.28 174.96 136.81 175.89 141.10 179.30 C 142.67 182.01 143.25 185.55 141.31 188.25 C 137.69 193.22 130.36 193.18 125.13 191.14 C 121.37 189.64 120.70 185.27 120.35 181.74 C 120.13 185.74 120.14 189.74 120.14 193.75 C 125.57 193.68 131.04 194.09 136.44 193.25 C 144.51 191.68 147.42 180.62 142.18 174.64 C 137.90 170.50 131.71 170.02 126.67 167.27 C 122.62 164.94 122.65 158.68 125.97 155.71 C 128.25 153.18 131.97 153.13 135.10 153.52 C 138.19 153.92 140.32 156.46 142.72 158.20 C 142.05 156.53 141.44 154.82 140.52 153.27 C 135.17 151.24 127.92 151.24 123.99 156.02 M 147.99 152.64 C 148.90 152.95 149.82 153.25 150.74 153.54 C 150.82 153.92 150.99 154.68 151.08 155.06 C 151.10 167.58 151.20 180.12 150.80 192.64 C 150.05 192.88 148.54 193.37 147.79 193.62 C 151.59 193.77 155.39 193.79 159.20 193.71 C 158.22 193.34 157.23 192.98 156.25 192.63 C 156.09 189.93 156.00 187.24 155.93 184.54 C 156.40 174.25 155.50 163.94 156.26 153.66 C 157.22 153.30 158.18 152.93 159.14 152.56 C 155.42 152.63 151.71 152.62 147.99 152.64 M 161.81 152.73 C 162.69 153.05 163.58 153.37 164.47 153.69 C 165.02 161.11 164.60 168.55 164.74 175.98 C 164.61 181.44 165.12 186.95 164.42 192.38 C 163.78 192.73 162.49 193.41 161.85 193.75 C 170.24 193.71 178.62 193.82 187.01 193.74 C 188.31 193.59 189.49 194.23 190.71 194.58 C 189.90 191.06 190.23 187.43 190.18 183.86 C 189.16 186.64 189.28 190.75 185.89 191.78 C 181.00 192.82 175.77 192.66 171.01 191.05 C 170.28 189.10 169.55 187.09 169.59 184.97 C 169.46 174.55 169.59 164.11 169.55 153.69 C 170.44 153.39 171.34 153.10 172.24 152.82 C 168.77 152.47 165.28 152.60 161.81 152.73 M 193.91 152.78 C 195.03 153.16 196.15 153.51 197.28 153.87 C 196.92 166.82 197.55 179.78 196.81 192.71 C 196.08 192.94 194.64 193.39 193.92 193.62 C 203.43 193.88 212.95 193.81 222.46 193.71 C 222.50 191.77 222.56 189.83 222.69 187.89 C 221.71 189.45 221.34 192.07 219.04 192.07 C 214.71 192.58 210.32 192.44 205.97 192.22 C 204.44 192.25 202.52 191.57 202.36 189.81 C 201.78 184.41 202.21 178.96 202.09 173.55 C 206.78 173.62 211.47 173.57 216.16 173.56 C 216.60 173.90 217.48 174.57 217.92 174.91 C 217.94 173.66 217.96 172.42 217.98 171.18 C 217.54 171.50 216.66 172.16 216.22 172.48 C 211.41 172.50 206.61 172.58 201.80 172.41 C 202.50 166.26 201.89 160.05 202.13 153.88 C 207.50 153.95 212.91 153.49 218.26 154.29 C 218.86 155.43 219.50 156.55 220.17 157.66 C 220.23 156.04 220.25 154.42 220.21 152.81 C 211.46 152.39 202.67 152.58 193.91 152.78 M 224.82 152.65 C 225.94 153.04 227.07 153.41 228.21 153.79 L 228.28 154.75 C 228.51 162.48 228.35 170.21 228.36 177.95 C 228.25 182.95 228.66 187.99 227.87 192.96 C 226.78 193.19 225.71 193.43 224.63 193.68 C 228.45 193.87 232.28 193.70 236.11 193.73 C 235.09 192.95 232.99 192.75 233.14 191.05 C 232.82 185.53 233.18 180.00 232.96 174.48 L 233.27 174.21 C 233.64 174.35 234.38 174.64 234.76 174.78 C 242.28 181.10 250.44 186.64 258.05 192.88 C 257.49 193.07 256.36 193.46 255.79 193.65 C 260.38 193.81 264.96 193.73 269.55 193.83 C 259.32 189.10 251.11 181.10 241.98 174.66 C 240.57 173.56 239.17 172.45 237.79 171.33 C 246.32 165.23 254.27 158.25 263.31 152.92 C 261.82 152.79 260.33 152.66 258.85 152.47 C 257.91 153.70 256.97 154.95 255.70 155.84 C 248.16 161.51 240.61 167.17 233.04 172.80 C 233.20 166.88 232.65 160.94 233.23 155.04 C 233.25 153.58 235.09 153.31 236.02 152.48 C 232.29 152.72 228.55 152.60 224.82 152.65 M 196.91 202.91 C 192.96 205.77 192.91 212.29 196.86 215.19 C 200.06 218.39 204.84 217.52 208.92 217.50 C 208.99 215.45 209.10 213.41 209.42 211.39 C 208.51 211.46 207.60 211.53 206.70 211.60 C 206.82 213.35 206.89 215.11 206.94 216.87 C 204.57 217.25 201.96 217.67 199.85 216.22 C 193.95 213.46 194.96 203.34 201.03 201.41 C 203.89 200.71 206.83 201.68 208.95 203.67 C 208.79 203.13 208.46 202.05 208.30 201.51 C 204.56 200.94 199.93 199.86 196.91 202.91 M 260.49 205.00 C 260.51 209.67 266.24 209.58 268.88 212.16 C 270.14 217.29 263.09 218.44 260.30 215.23 C 260.34 214.63 260.42 213.43 260.46 212.83 C 260.29 213.63 259.94 215.24 259.77 216.05 C 260.16 218.57 263.38 217.17 265.11 217.48 C 268.40 217.88 271.21 214.07 269.80 211.08 C 268.29 208.24 264.77 207.74 262.06 206.62 C 261.71 205.03 261.17 202.77 262.97 201.84 C 265.06 200.47 267.38 202.13 269.48 202.61 C 267.04 199.39 260.56 200.53 260.49 205.00 M 218.57 200.55 C 216.45 206.43 213.25 212.03 212.14 218.20 C 212.46 217.53 213.10 216.21 213.42 215.55 C 214.20 213.59 214.93 211.62 215.72 209.67 C 217.20 209.64 218.69 209.60 220.18 209.57 C 221.36 212.06 222.27 214.67 223.34 217.22 C 223.95 217.37 225.19 217.68 225.80 217.83 C 223.33 212.10 221.33 206.16 218.57 200.55 M 228.75 200.54 C 228.96 201.13 229.38 202.31 229.58 202.90 C 228.91 208.05 228.13 213.19 227.70 218.38 C 229.45 213.90 229.17 208.87 230.32 204.21 C 232.35 208.60 234.08 213.13 236.33 217.42 C 238.26 213.18 239.80 208.75 242.20 204.74 C 242.74 209.03 243.99 213.27 243.75 217.62 C 244.65 217.59 245.56 217.58 246.48 217.58 C 245.10 212.05 244.17 206.36 244.26 200.65 C 243.84 200.85 242.99 201.26 242.57 201.47 C 240.30 205.52 239.15 210.12 236.67 214.07 C 235.10 210.41 233.66 206.70 232.04 203.06 C 231.63 201.48 230.26 200.76 228.75 200.54 M 248.77 200.85 C 249.12 206.37 249.05 211.91 248.84 217.44 C 252.36 217.14 256.65 218.83 259.63 216.42 C 257.18 216.91 254.67 217.66 252.18 217.02 C 249.97 215.37 251.41 212.12 251.02 209.77 C 253.23 209.68 255.43 209.55 257.64 209.50 C 257.66 209.29 257.71 208.86 257.74 208.64 C 255.55 209.15 253.31 209.38 251.07 209.53 C 251.03 206.84 251.00 204.15 250.99 201.46 C 253.80 201.62 256.58 201.98 259.38 202.26 C 256.13 200.64 252.27 201.42 248.77 200.85 Z" />
<path fill="#ffffff" opacity="1.00" d=" M 91.68 173.56 C 93.46 168.94 95.14 164.28 97.21 159.78 C 99.02 164.39 100.81 169.00 102.68 173.59 C 99.01 173.64 95.35 173.62 91.68 173.56 Z" />
<path fill="#ffffff" opacity="1.00" d=" M 215.98 209.22 C 216.87 208.09 216.39 204.41 218.42 205.20 C 219.11 206.47 219.68 207.81 220.29 209.13 C 219.21 209.15 217.06 209.20 215.98 209.22 Z" />
</g>
<g id="#7b92b1ff">
<path fill="#7b92b1" opacity="1.00" d=" M 82.10 52.15 C 85.16 50.67 82.16 55.47 82.10 52.15 Z" />
<path fill="#7b92b1" opacity="1.00" d=" M 59.72 69.51 C 60.03 68.89 60.38 68.28 60.77 67.70 C 60.91 69.20 61.02 70.70 61.10 72.21 C 61.60 71.90 62.60 71.27 63.10 70.96 C 63.03 71.84 62.89 73.60 62.82 74.48 L 62.59 73.63 L 62.34 72.68 C 61.77 72.99 60.63 73.59 60.06 73.90 C 59.93 72.44 59.79 70.98 59.72 69.51 Z" />
<path fill="#7b92b1" opacity="1.00" d=" M 43.03 80.77 C 44.69 77.91 46.51 75.14 48.82 72.76 C 50.33 74.31 51.60 76.02 49.22 77.71 L 51.28 77.10 C 49.20 78.53 47.05 79.86 44.79 80.96 C 44.35 80.91 43.47 80.82 43.03 80.77 Z" />
<path fill="#7b92b1" opacity="1.00" d=" M 23.57 74.67 C 24.23 74.79 25.55 75.01 26.22 75.13 L 26.32 75.34 C 26.25 76.67 26.06 77.98 25.89 79.29 C 25.13 78.60 24.37 77.91 23.62 77.21 L 25.12 76.89 C 24.74 76.33 23.96 75.23 23.57 74.67 Z" />
<path fill="#7b92b1" opacity="1.00" d=" M 212.24 148.21 C 212.85 148.22 214.08 148.24 214.69 148.25 C 215.36 150.06 211.51 150.01 212.24 148.21 Z" />
</g>
<g id="#1556a7ff">
<path fill="#1556a7" opacity="1.00" d=" M 107.09 62.25 C 109.02 61.07 110.92 59.84 112.81 58.59 C 113.56 58.81 115.07 59.23 115.82 59.45 C 116.00 60.65 116.19 61.86 116.38 63.06 C 113.30 62.64 110.20 62.34 107.09 62.25 Z" />
<path fill="#1556a7" opacity="1.00" d=" M 59.72 69.51 C 59.79 70.98 59.93 72.44 60.06 73.90 C 60.63 73.59 61.77 72.99 62.34 72.68 L 62.59 73.63 C 62.00 75.28 60.23 75.91 58.97 76.93 C 61.34 77.02 63.71 77.14 66.07 77.33 C 64.08 79.13 61.39 79.47 58.85 79.88 C 59.89 80.63 60.93 81.39 61.98 82.15 C 57.00 83.74 50.82 84.76 46.11 82.14 L 44.79 80.96 C 47.05 79.86 49.20 78.53 51.28 77.10 C 54.48 75.04 57.25 72.40 59.72 69.51 Z" />
<path fill="#1556a7" opacity="1.00" d=" M 29.64 78.62 C 30.35 78.38 31.76 77.91 32.46 77.68 C 33.73 78.11 34.62 79.24 35.66 80.05 L 36.76 78.71 C 37.84 79.50 38.92 80.27 40.01 81.04 C 40.39 81.31 41.16 81.86 41.54 82.13 C 40.09 84.22 38.46 86.18 36.80 88.10 C 35.41 89.52 33.83 90.74 32.35 92.06 C 32.40 91.43 32.52 90.16 32.58 89.53 C 31.89 89.67 30.53 89.95 29.85 90.09 C 30.30 89.41 31.20 88.07 31.65 87.40 C 30.08 87.34 28.51 87.27 26.94 87.19 C 28.03 86.57 29.14 85.97 30.25 85.37 C 28.05 84.08 25.86 82.76 23.96 81.05 C 28.94 82.69 34.21 84.14 39.43 82.59 C 35.95 82.00 32.35 82.00 28.96 80.92 C 29.13 80.34 29.47 79.19 29.64 78.62 Z" />
<path fill="#1556a7" opacity="1.00" d=" M 43.08 82.35 C 43.39 82.34 44.01 82.32 44.32 82.31 C 46.62 83.58 49.08 84.54 51.62 85.21 C 53.32 85.67 55.03 86.08 56.74 86.49 C 55.98 87.01 55.22 87.54 54.45 88.07 C 54.95 88.99 55.44 89.92 55.93 90.85 C 55.35 90.90 54.19 91.01 53.62 91.06 C 49.96 89.15 47.20 85.97 44.03 83.41 C 44.50 85.58 45.28 87.66 46.25 89.65 C 45.25 89.34 44.26 89.02 43.27 88.69 C 42.28 89.67 41.29 90.65 40.30 91.62 C 41.08 88.49 41.96 85.38 43.08 82.35 Z" />
<path fill="#1556a7" opacity="1.00" d=" M 198.40 143.63 C 200.37 142.50 202.58 142.40 204.58 143.55 C 204.59 145.63 204.82 148.66 201.95 148.84 C 198.70 149.41 198.04 146.09 198.40 143.63 Z" />
<path fill="#1556a7" opacity="1.00" d=" M 212.24 148.21 C 208.60 147.62 210.68 141.52 214.06 142.56 C 217.06 142.43 217.86 148.19 214.69 148.25 C 214.08 148.24 212.85 148.22 212.24 148.21 Z" />
<path fill="#1556a7" opacity="1.00" d=" M 44.19 152.58 C 47.22 152.66 50.25 152.61 53.28 152.53 C 53.24 153.98 53.01 155.51 53.62 156.89 C 55.65 162.10 57.92 167.21 59.90 172.43 C 59.61 173.90 59.31 175.37 59.02 176.84 C 58.36 176.71 57.05 176.45 56.40 176.32 C 53.46 169.32 50.94 162.13 47.73 155.24 C 47.17 153.69 45.47 153.32 44.19 152.58 Z" />
<path fill="#1556a7" opacity="1.00" d=" M 89.91 173.40 C 92.85 166.11 95.51 158.69 98.82 151.56 C 101.96 158.87 104.85 166.29 107.86 173.65 C 107.24 174.60 106.62 175.55 106.00 176.51 C 105.52 175.55 105.04 174.60 104.56 173.64 C 99.71 174.67 94.73 174.44 89.91 173.40 M 91.68 173.56 C 95.35 173.62 99.01 173.64 102.68 173.59 C 100.81 169.00 99.02 164.39 97.21 159.78 C 95.14 164.28 93.46 168.94 91.68 173.56 Z" />
<path fill="#1556a7" opacity="1.00" d=" M 123.99 156.02 C 127.92 151.24 135.17 151.24 140.52 153.27 C 141.44 154.82 142.05 156.53 142.72 158.20 C 140.32 156.46 138.19 153.92 135.10 153.52 C 131.97 153.13 128.25 153.18 125.97 155.71 C 122.65 158.68 122.62 164.94 126.67 167.27 C 131.71 170.02 137.90 170.50 142.18 174.64 C 141.81 176.19 141.45 177.74 141.10 179.30 C 136.81 175.89 131.28 174.96 126.53 172.45 C 120.93 169.32 119.73 160.75 123.99 156.02 Z" />
<path fill="#1556a7" opacity="1.00" d=" M 147.99 152.64 C 151.71 152.62 155.42 152.63 159.14 152.56 C 158.18 152.93 157.22 153.30 156.26 153.66 C 155.50 163.94 156.40 174.25 155.93 184.54 C 154.98 182.80 154.03 181.06 153.09 179.31 C 152.88 180.89 152.67 182.47 152.46 184.06 C 152.28 174.39 151.99 164.67 151.08 155.06 C 150.99 154.68 150.82 153.92 150.74 153.54 C 149.82 153.25 148.90 152.95 147.99 152.64 Z" />
<path fill="#1556a7" opacity="1.00" d=" M 161.81 152.73 C 165.28 152.60 168.77 152.47 172.24 152.82 C 171.34 153.10 170.44 153.39 169.55 153.69 L 169.48 152.81 C 169.43 160.37 169.35 167.93 168.63 175.47 C 167.33 175.64 166.03 175.81 164.74 175.98 C 164.60 168.55 165.02 161.11 164.47 153.69 C 163.58 153.37 162.69 153.05 161.81 152.73 Z" />
<path fill="#1556a7" opacity="1.00" d=" M 193.91 152.78 C 202.67 152.58 211.46 152.39 220.21 152.81 C 220.25 154.42 220.23 156.04 220.17 157.66 C 219.50 156.55 218.86 155.43 218.26 154.29 C 212.91 153.49 207.50 153.95 202.13 153.88 C 201.89 160.05 202.50 166.26 201.80 172.41 C 201.13 174.53 200.03 176.48 198.42 178.02 C 197.49 170.00 197.82 161.92 197.28 153.87 C 196.15 153.51 195.03 153.16 193.91 152.78 Z" />
<path fill="#1556a7" opacity="1.00" d=" M 224.82 152.65 C 228.55 152.60 232.29 152.72 236.02 152.48 C 235.09 153.31 233.25 153.58 233.23 155.04 C 232.65 160.94 233.20 166.88 233.04 172.80 C 240.61 167.17 248.16 161.51 255.70 155.84 C 256.97 154.95 257.91 153.70 258.85 152.47 C 260.33 152.66 261.82 152.79 263.31 152.92 C 254.27 158.25 246.32 165.23 237.79 171.33 C 239.17 172.45 240.57 173.56 241.98 174.66 C 241.24 175.29 240.51 175.92 239.79 176.55 C 238.11 175.96 236.42 175.38 234.76 174.78 C 234.38 174.64 233.64 174.35 233.27 174.21 L 232.96 174.48 C 232.57 174.82 231.77 175.52 231.37 175.87 C 227.05 169.67 229.38 161.76 228.28 154.75 L 228.21 153.79 C 227.07 153.41 225.94 153.04 224.82 152.65 Z" />
<path fill="#1556a7" opacity="1.00" d=" M 78.63 152.55 C 79.45 152.55 81.08 152.56 81.89 152.56 C 78.34 157.60 76.84 163.68 74.36 169.26 C 73.82 169.51 72.75 170.01 72.21 170.25 C 74.14 164.28 77.62 158.80 78.63 152.55 Z" />
</g>
<g id="#038561ff">
<path fill="#038561" opacity="1.00" d=" M 41.54 82.13 C 41.92 82.18 42.69 82.29 43.08 82.35 C 41.96 85.38 41.08 88.49 40.30 91.62 C 40.13 92.21 39.79 93.38 39.61 93.96 C 37.54 99.10 36.97 104.66 36.47 110.12 C 33.77 130.91 33.48 152.12 36.67 172.87 C 40.02 193.45 47.28 213.54 58.87 230.94 C 68.89 246.57 82.02 259.93 95.99 272.06 C 98.00 273.15 95.55 274.51 94.51 275.19 C 90.33 270.47 85.71 266.16 81.44 261.51 C 68.07 247.52 55.82 232.14 47.29 214.68 C 36.69 193.14 32.31 168.91 32.72 145.02 C 32.71 131.22 34.39 117.49 36.57 103.89 C 36.90 100.51 37.84 97.25 38.81 94.01 C 37.32 92.50 35.44 90.33 36.80 88.10 C 38.46 86.18 40.09 84.22 41.54 82.13 Z" />
</g>
</svg>
